<svg width="408" height="408" viewBox="0 0 408 408" fill="none" xmlns="http://www.w3.org/2000/svg">
<path d="M86.4952 113.482L80.123 160.182L153.762 170.23L160.134 123.53L86.4952 113.482Z" fill="#F2F2F2"/>
<path d="M86.4961 113.473C89.0828 116.737 91.743 119.862 94.3542 123.069C96.9654 126.276 99.6582 129.377 102.335 132.494C105.117 135.758 107.924 139.022 110.723 142.213C110.813 142.31 110.886 142.417 110.976 142.523C113.462 145.362 115.956 148.199 118.459 151.034L118.826 151.442L119.283 151.148C122.449 149.086 125.61 147.013 128.765 144.93C128.877 144.865 128.986 144.794 129.091 144.718C132.676 142.368 136.245 139.993 139.797 137.594C143.192 135.309 146.603 132.984 149.989 130.658C153.375 128.332 156.77 125.958 160.132 123.518C156.639 125.525 153.18 127.655 149.712 129.728C146.244 131.8 142.784 133.963 139.332 136.133C135.491 138.522 131.651 140.95 127.81 143.42C124.932 145.248 122.055 147.087 119.177 148.936C116.917 146.39 114.64 143.828 112.355 141.307C109.32 137.923 106.27 134.556 103.208 131.205C100.455 128.202 97.6943 125.21 94.9254 122.229C92.0775 119.324 89.3195 116.345 86.4961 113.473Z" fill="white"/>
<path d="M127.541 144.473C127.57 144.501 127.597 144.531 127.623 144.563L128.651 145.705C130.283 147.517 131.972 149.263 133.694 150.976C135.799 153.082 137.961 155.13 140.14 157.162C142.319 159.194 144.538 161.152 146.815 163.078C149.092 165.003 151.385 166.913 153.784 168.692C151.817 166.431 149.704 164.294 147.639 162.164C145.575 160.034 143.363 158.01 141.201 155.987C139.038 153.963 136.786 151.98 134.518 150.046C132.714 148.504 130.87 146.986 128.969 145.534C128.534 145.191 128.093 144.856 127.647 144.53L127.541 144.473Z" fill="white"/>
<path d="M80.4985 158.704C83.2974 157.627 86.031 156.411 88.7238 155.162C91.4166 153.914 94.0849 152.576 96.7451 151.237C99.4053 149.899 102.025 148.479 104.611 147.011C106.725 145.819 108.814 144.563 110.862 143.29C111.311 143.012 111.743 142.735 112.176 142.474L112.274 142.408C112.233 142.419 112.191 142.419 112.151 142.408L110.601 143.037C108.389 143.926 106.219 144.905 104.073 145.901C101.372 147.157 98.7117 148.479 96.0597 149.834C93.4077 151.188 90.7883 152.592 88.1934 154.069C85.5985 155.546 83.0037 157.047 80.4985 158.704Z" fill="white"/>
<path d="M105.262 45.9026L44.3604 61.3583L54.1617 99.9793L115.063 84.5236L105.262 45.9026Z" fill="#F2F2F2"/>
<path d="M44.3579 61.355C47.4179 63.0849 50.4942 64.7006 53.5624 66.3816C56.6305 68.0625 59.715 69.6456 62.7995 71.2776C66.0145 72.9585 69.2378 74.5987 72.461 76.2389L72.7547 76.4021L81.3145 80.7024L81.7307 80.9064L82 80.531C83.8278 77.9117 85.6394 75.2841 87.459 72.6566C87.5263 72.5674 87.5889 72.4748 87.6467 72.3792C89.7139 69.4089 91.7593 66.4169 93.783 63.4032C95.7251 60.539 97.659 57.6341 99.5766 54.7373C101.494 51.8405 103.404 48.9029 105.289 45.9326C103.183 48.6091 101.152 51.3753 99.087 54.0926C97.0225 56.8099 95.007 59.6088 92.9833 62.3995C90.7312 65.4949 88.4872 68.6174 86.2513 71.7672C84.5813 74.1118 82.9085 76.4646 81.233 78.8256C78.6217 77.52 76.0269 76.2552 73.4401 74.9985C69.9803 73.3013 66.5205 71.6257 63.0606 69.972C59.9598 68.495 56.8509 67.0262 53.7419 65.5901C50.633 64.1539 47.4913 62.7096 44.3579 61.355Z" fill="white"/>
<path d="M86.3652 72.624C86.3934 72.6434 86.4234 72.6598 86.455 72.673L87.6219 73.2442C89.4769 74.1418 91.351 74.985 93.2441 75.7738C95.5616 76.7693 97.9035 77.6832 100.254 78.5808C102.604 79.4784 104.97 80.3189 107.361 81.1104C109.752 81.9019 112.159 82.669 114.607 83.3055C112.347 82.1549 110.046 81.1349 107.736 80.1475C105.427 79.1602 103.061 78.2463 100.719 77.3487C98.3768 76.4511 95.994 75.6024 93.6032 74.8109C91.7019 74.1744 89.7761 73.5624 87.8259 73.0239C87.3771 72.8933 86.9283 72.7791 86.4713 72.6567L86.3652 72.624Z" fill="white"/>
<path d="M53.9946 98.7361C55.8469 97.0143 57.6014 95.1946 59.315 93.3505C61.0286 91.5063 62.7095 89.6295 64.366 87.7445C66.0225 85.8596 67.63 83.9012 69.1886 81.9346C70.4697 80.3026 71.7263 78.6706 72.9177 77.0386L73.6765 75.9697C73.6765 75.9697 73.6765 75.9125 73.7337 75.8881L73.6521 75.9615C73.3094 76.2879 72.9666 76.6061 72.6321 76.9407C71.1796 78.3361 69.7842 79.7885 68.4052 81.2655C66.6834 83.1015 65.0188 84.9865 63.3705 86.8796C61.7222 88.7727 60.1065 90.7148 58.5479 92.6895C56.9894 94.6642 55.4308 96.6145 53.9946 98.7361Z" fill="white"/>
<path d="M357.649 213.391L295.245 220.711L299.887 260.285L362.291 252.965L357.649 213.391Z" fill="#F2F2F2"/>
<path d="M295.237 220.728C298.044 222.841 300.884 224.849 303.699 226.93C306.514 229.01 309.37 230.969 312.218 232.96C315.066 234.951 318.166 237.097 321.145 239.145L321.414 239.341C324.042 241.142 326.68 242.939 329.329 244.735L329.721 244.988L330.031 244.653C332.207 242.298 334.356 239.934 336.477 237.562C336.56 237.486 336.636 237.405 336.706 237.317C339.138 234.641 341.558 231.943 343.968 229.223C346.269 226.644 348.562 224.016 350.847 221.397C353.132 218.778 355.409 216.118 357.645 213.408C355.197 215.791 352.83 218.304 350.423 220.695C348.016 223.086 345.649 225.591 343.275 228.129C340.636 230.893 338.006 233.691 335.384 236.526C333.417 238.631 331.459 240.753 329.493 242.866C327.093 241.234 324.694 239.643 322.295 238.06C319.097 235.922 315.887 233.806 312.667 231.711C309.794 229.835 306.908 227.979 304.009 226.146C301.047 224.343 298.158 222.482 295.237 220.728Z" fill="white"/>
<path d="M335.376 237.456L335.458 237.513C335.817 237.758 336.184 238.003 336.543 238.231C338.265 239.374 340.011 240.451 341.79 241.495C343.952 242.776 346.155 243.992 348.367 245.2C350.578 246.408 352.814 247.534 355.082 248.635C357.351 249.737 359.627 250.814 361.969 251.761C359.889 250.324 357.734 249.011 355.572 247.738C353.41 246.465 351.19 245.233 348.987 244.033C346.784 242.833 344.532 241.683 342.271 240.581C340.468 239.7 338.632 238.843 336.771 238.052C336.347 237.867 335.915 237.687 335.474 237.513L335.376 237.456Z" fill="white"/>
<path d="M299.88 259.023C301.944 257.554 303.96 255.979 305.861 254.388C307.762 252.797 309.713 251.124 311.573 249.492C313.434 247.86 315.31 246.122 317.122 244.367C318.599 242.948 320.051 241.503 321.455 240.002L322.353 239.039C322.376 239.016 322.398 238.992 322.418 238.966C322.392 238.99 322.361 239.01 322.328 239.023L321.194 239.839C319.562 241.038 317.995 242.287 316.428 243.568C314.478 245.2 312.585 246.832 310.716 248.464C308.848 250.096 306.979 251.834 305.168 253.588C303.356 255.343 301.577 257.138 299.88 259.023Z" fill="white"/>
<path d="M308.554 130.25L297.84 130.478L292.405 130.568C290.586 130.609 288.758 130.568 286.938 130.617H286.579V130.25L286.53 121.119V120.711H286.938L297.742 120.76C301.341 120.76 304.947 120.858 308.546 120.899H308.774V121.119C308.774 122.669 308.709 124.212 308.668 125.729L308.554 130.25ZM308.554 130.25L308.448 125.664C308.407 124.138 308.358 122.637 308.342 121.143L308.562 121.364C304.964 121.405 301.357 121.494 297.758 121.502L286.955 121.551L287.363 121.143V130.274L286.995 129.907C288.774 129.907 290.553 129.907 292.34 129.956L297.709 130.046L308.554 130.25Z" fill="#F2F2F2"/>
<path d="M296.502 141.764L285.788 141.992L280.353 142.082C278.541 142.082 276.714 142.082 274.894 142.131H274.535V141.764L274.494 132.633V132.192H274.902L285.706 132.241C289.305 132.241 292.911 132.339 296.51 132.38H296.738V132.6C296.738 134.15 296.673 135.693 296.632 137.21L296.502 141.764ZM296.502 141.764L296.387 137.153C296.347 135.627 296.298 134.126 296.281 132.633L296.502 132.853C292.903 132.894 289.296 132.984 285.698 132.992L274.894 133.041L275.302 132.633L275.253 141.764L274.894 141.396C276.673 141.396 278.452 141.396 280.231 141.445L285.6 141.535L296.502 141.764Z" fill="#F2F2F2"/>
<path d="M320.606 141.764L309.9 141.992L304.466 142.082C302.646 142.082 300.818 142.082 298.999 142.131H298.656V141.764L298.607 132.633V132.192H299.015L309.819 132.241C313.425 132.241 317.024 132.339 320.623 132.38H320.851V132.6C320.851 134.15 320.778 135.693 320.737 137.21L320.606 141.764ZM320.606 141.764L320.492 137.153C320.492 135.627 320.402 134.126 320.386 132.633L320.606 132.853C317.008 132.894 313.409 132.984 309.802 132.992L298.999 133.041L299.407 132.633L299.366 141.764L298.999 141.396C300.778 141.396 302.556 141.396 304.343 141.445L309.713 141.535L320.606 141.764Z" fill="#F2F2F2"/>
<path d="M361.774 47.5647L351.059 47.7932L345.625 47.8829C343.805 47.8829 341.985 47.8829 340.166 47.9319H339.799V47.5647L339.758 38.4336V38.0256H340.174L350.978 38.0746C354.576 38.0746 358.175 38.1725 361.782 38.2133H362.002V38.4336C362.002 39.984 361.929 41.5263 361.896 43.044L361.774 47.5647ZM361.774 47.5647L361.651 42.9543C361.651 41.4284 361.561 39.9269 361.545 38.4336L361.774 38.654C358.167 38.6948 354.568 38.7845 350.97 38.7927L340.166 38.8416L340.566 38.4336L340.525 47.5647L340.166 47.1975C341.945 47.1975 343.715 47.1975 345.502 47.2464L350.88 47.328L361.774 47.5647Z" fill="#F2F2F2"/>
<path d="M373.826 59.0785L363.12 59.3069L357.685 59.3967C355.874 59.3967 354.046 59.3967 352.226 59.4457H351.859V59.0785L351.818 49.9474V49.5394H352.226L363.03 49.5884C366.629 49.5884 370.227 49.6863 373.834 49.7271H374.054V49.9474C374.054 51.4978 373.981 53.0401 373.948 54.5578L373.826 59.0785ZM373.826 59.0785L373.728 54.4681C373.687 52.9421 373.63 51.4407 373.614 49.9474L373.842 50.1677C370.235 50.2085 366.637 50.2983 363.038 50.3065L352.235 50.3554L352.643 49.9474L352.594 59.0785L352.235 58.7113C354.013 58.7113 355.784 58.7113 357.571 58.7602L362.94 58.85L373.826 59.0785Z" fill="#F2F2F2"/>
<path d="M55.7818 47.5729L45.0759 47.8013L39.6413 47.8911C37.8216 47.9319 35.9938 47.8911 34.1741 47.9401H33.8151V47.5729L33.7661 38.4418V38.0338H34.1741L44.978 38.0909C48.5847 38.0909 52.1832 38.1807 55.7818 38.2215H56.0103V38.4418C56.0103 39.9922 55.9368 41.5345 55.896 43.0604L55.7818 47.5729ZM55.7818 47.5729L55.6676 42.9625C55.6676 41.4447 55.5778 39.9351 55.5615 38.4418L55.7818 38.6703C52.1832 38.6703 48.5847 38.7927 44.978 38.8009L34.1741 38.8498L34.5821 38.4418L34.5413 47.5729L34.1741 47.2138C35.953 47.2138 37.7319 47.2138 39.5189 47.2138L44.88 47.3281L55.7818 47.5729Z" fill="#F2F2F2"/>
<path d="M352.219 259.904L362.925 259.676L368.359 259.586C370.179 259.545 372.007 259.586 373.826 259.537H374.185V259.904L374.234 269.035V269.443H373.826L363.023 269.386C359.416 269.386 355.817 269.296 352.219 269.256H351.99V269.035C351.99 267.485 352.064 265.943 352.096 264.417L352.219 259.904ZM352.219 259.904L352.333 264.515C352.333 266.032 352.423 267.542 352.439 269.035L352.219 268.807C355.817 268.766 359.416 268.684 363.023 268.676L373.826 268.627L373.418 269.035L373.459 259.904L373.826 260.263C372.048 260.263 370.269 260.263 368.482 260.222L363.112 260.133L352.219 259.904Z" fill="#F2F2F2"/>
<path d="M34.1741 259.904L44.88 259.676L50.3145 259.586C52.1261 259.545 53.9539 259.586 55.7736 259.537H56.1408V259.904V269.035V269.443H55.7328L44.9289 269.386C41.3304 269.386 37.7318 269.296 34.1251 269.256H33.9048V269.035C33.9048 267.485 33.9782 265.943 34.0109 264.417L34.1741 259.904ZM34.1741 259.904L34.2883 264.515C34.2883 266.032 34.3862 267.542 34.4025 269.035L34.1741 268.807C37.7808 268.766 41.3793 268.684 44.9779 268.676L55.7817 268.627L55.3737 269.035L55.4227 259.904L55.7817 260.263C54.0029 260.263 52.2321 260.263 50.4451 260.222L45.0758 260.133L34.1741 259.904Z" fill="#F2F2F2"/>
<path d="M46.2267 248.39L56.9407 248.162L62.3753 248.072C64.195 248.031 66.0147 248.072 67.8343 248.023H68.2015V248.39V257.521V257.929H67.7854L57.0305 257.856C53.4319 257.856 49.8334 257.766 46.2267 257.725H46.0063V257.505C46.0063 255.955 46.0798 254.412 46.1124 252.887L46.2267 248.39ZM46.2267 248.39L46.3491 253.001C46.3491 254.519 46.4388 256.028 46.4551 257.521L46.2267 257.293C49.8334 257.252 53.4319 257.171 57.0305 257.162L67.8343 257.113L67.4345 257.521V248.39L67.7935 248.749C66.0147 248.749 64.2439 248.749 62.4569 248.749L57.1203 248.619L46.2267 248.39Z" fill="#F2F2F2"/>
<path d="M264.196 111.147L375.376 111.147V104.546L264.196 104.546V111.147Z" fill="#F2F2F2"/>
<path d="M366.939 111.147H360.338V132.984H366.939V111.147Z" fill="#F2F2F2"/>
<path d="M366.939 111.147H360.338V117.896H366.939V111.147Z" fill="#E6E6E6"/>
<path d="M279.235 111.147H272.634V132.984H279.235V111.147Z" fill="#F2F2F2"/>
<path d="M279.235 111.147H272.634V117.896H279.235V111.147Z" fill="#E6E6E6"/>
<path d="M347.281 104.546V62.473H336.69V104.546H347.281Z" fill="#F2F2F2"/>
<path d="M347.29 64.8557V60.229H336.698V64.8557H347.29Z" fill="#E6E6E6"/>
<path d="M347.281 72.4853V70.7717H336.69V72.4853H347.281Z" fill="#E6E6E6"/>
<path d="M347.29 99.038V94.4113H335.376V99.038H347.29Z" fill="#E6E6E6"/>
<path d="M336.689 104.554V55.4717H329.288V104.554H336.689Z" fill="#E6E6E6"/>
<path d="M335.245 78.9562V60.0822H330.798V78.9562H335.245Z" fill="#F2F2F2"/>
<path d="M281.815 104.58L316.721 70.0739L311.518 64.8104L276.612 99.3164L281.815 104.58Z" fill="#F2F2F2"/>
<path d="M288.95 95.4097L302.373 82.1407L299.246 78.978L285.823 92.2469L288.95 95.4097Z" fill="#E6E6E6"/>
<path d="M329.289 104.562V67.2792H316.714V104.562H329.289Z" fill="#E6E6E6"/>
<path d="M329.28 100.605V97.1285H316.706V100.605H329.28Z" fill="#F2F2F2"/>
<path d="M329.28 94.8519V93.5055H316.706V94.8519H329.28Z" fill="#F2F2F2"/>
<path d="M355.972 104.562V69.5232H347.281V104.562H355.972Z" fill="#E6E6E6"/>
<path d="M355.972 100.841V97.5773H347.281V100.841H355.972Z" fill="#F2F2F2"/>
<path d="M355.964 80.0007V76.7367H347.273V80.0007H355.964Z" fill="#F2F2F2"/>
<path d="M355.972 83.5094V82.2446H347.281V83.5094H355.972Z" fill="#F2F2F2"/>
<path d="M32.6157 366.001L75.4639 365.805L118.312 365.731L204 365.593L289.688 365.731L332.536 365.805L375.385 366.001L332.536 366.205L289.688 366.27L204 366.409L118.312 366.27L75.4639 366.196L32.6157 366.001Z" fill="#242424"/>
<path d="M333.85 293.899C345.739 305.535 347.722 323.544 345.225 339.317C345.16 339.676 344.605 339.578 344.605 339.244C344.605 335.654 344.719 332.096 344.703 328.546C344.638 328.383 344.589 328.228 344.523 328.065C341.423 325.813 338.567 323.267 336.796 319.766C334.813 315.866 334.03 311.459 332.512 307.379C332.373 306.987 332.789 307.102 333.059 307.306C340.297 312.642 342.598 318.379 344.67 326.074C344.628 322.061 344.207 318.061 343.414 314.127C341.855 306.849 338.763 299.635 333.532 294.233C333.488 294.191 333.462 294.133 333.46 294.072C333.459 294.011 333.482 293.951 333.524 293.907C333.566 293.863 333.624 293.837 333.685 293.835C333.747 293.834 333.806 293.857 333.85 293.899Z" fill="#242424"/>
<path d="M331.614 295.253C329.566 295.327 328.285 298.591 326.718 299.545C326.551 299.681 326.357 299.78 326.149 299.837C325.941 299.893 325.723 299.905 325.51 299.872C325.297 299.839 325.094 299.761 324.912 299.645C324.731 299.528 324.576 299.375 324.458 299.195C322.875 296.983 325.045 294.299 327.085 292.748C325.625 293.344 324.417 294.38 322.842 294.698C322.641 294.763 322.429 294.785 322.219 294.76C322.009 294.736 321.806 294.667 321.625 294.558C321.444 294.449 321.289 294.303 321.169 294.128C321.05 293.954 320.969 293.756 320.933 293.548C320.239 290.545 324.009 289.207 326.596 289.141C325.339 288.277 321.749 285.877 323.658 284.735C325.568 283.593 329.811 286.955 331.19 288.073C333.205 289.705 335.621 292.153 335.711 294.731C335.809 297.726 333.189 295.882 331.614 295.253Z" fill="#419FD9"/>
<path opacity="0.1" d="M331.614 295.253C329.566 295.327 328.285 298.591 326.718 299.545C326.551 299.681 326.357 299.78 326.149 299.837C325.941 299.893 325.723 299.905 325.51 299.872C325.297 299.839 325.094 299.761 324.912 299.645C324.731 299.528 324.576 299.375 324.458 299.195C322.875 296.983 325.045 294.299 327.085 292.748C325.625 293.344 324.417 294.38 322.842 294.698C322.641 294.763 322.429 294.785 322.219 294.76C322.009 294.736 321.806 294.667 321.625 294.558C321.444 294.449 321.289 294.303 321.169 294.128C321.05 293.954 320.969 293.756 320.933 293.548C320.239 290.545 324.009 289.207 326.596 289.141C325.339 288.277 321.749 285.877 323.658 284.735C325.568 283.593 329.811 286.955 331.19 288.073C333.205 289.705 335.621 292.153 335.711 294.731C335.809 297.726 333.189 295.882 331.614 295.253Z" fill="#242424"/>
<path d="M332.202 295.759C329.591 294.568 324.564 296.282 324.14 295.294C323.275 293.279 327.29 291.891 329.452 291.63C327.461 291.084 323.634 290.227 323.74 288.301C323.887 285.951 329.607 287.975 332.504 290.194C336.151 292.993 336.127 295.686 335.523 296.233C334.707 296.967 332.634 295.955 332.202 295.759Z" fill="#419FD9"/>
<path d="M360.925 292.748C348.603 303.927 345.918 321.847 347.828 337.702C347.877 338.061 348.432 337.987 348.448 337.645C348.578 334.062 348.611 330.496 348.758 326.955L348.954 326.482C352.144 324.352 355.09 321.912 356.991 318.485C359.121 314.658 360.068 310.284 361.741 306.245C361.904 305.861 361.479 305.959 361.202 306.147C353.768 311.206 351.247 316.853 348.88 324.442C349.08 320.434 349.654 316.454 350.594 312.553C352.43 305.339 355.792 298.248 361.202 293.05C361.43 292.871 361.137 292.544 360.925 292.748Z" fill="#242424"/>
<path d="M363.12 294.184C365.16 294.331 366.318 297.644 367.877 298.664C368.039 298.807 368.229 298.913 368.435 298.977C368.64 299.041 368.857 299.061 369.071 299.036C369.285 299.011 369.492 298.94 369.677 298.83C369.862 298.719 370.022 298.571 370.146 298.395C371.778 296.249 369.746 293.45 367.771 291.867C369.199 292.52 370.366 293.621 371.924 293.98C372.123 294.054 372.336 294.084 372.547 294.069C372.759 294.053 372.964 293.992 373.15 293.89C373.336 293.788 373.497 293.647 373.624 293.476C373.75 293.306 373.839 293.111 373.883 292.903C374.699 289.933 370.97 288.448 368.391 288.285C369.68 287.469 373.361 285.233 371.492 283.993C369.623 282.752 365.266 285.975 363.846 287.044C361.765 288.603 359.26 290.961 359.072 293.523C358.819 296.494 361.488 294.756 363.12 294.184Z" fill="#419FD9"/>
<path opacity="0.1" d="M363.12 294.184C365.16 294.331 366.318 297.644 367.877 298.664C368.039 298.807 368.229 298.913 368.435 298.977C368.64 299.041 368.857 299.061 369.071 299.036C369.285 299.011 369.492 298.94 369.677 298.83C369.862 298.719 370.022 298.571 370.146 298.395C371.778 296.249 369.746 293.45 367.771 291.867C369.199 292.52 370.366 293.621 371.924 293.98C372.123 294.054 372.336 294.084 372.547 294.069C372.759 294.053 372.964 293.992 373.15 293.89C373.336 293.788 373.497 293.647 373.624 293.476C373.75 293.306 373.839 293.111 373.883 292.903C374.699 289.933 370.97 288.448 368.391 288.285C369.68 287.469 373.361 285.233 371.492 283.993C369.623 282.752 365.266 285.975 363.846 287.044C361.765 288.603 359.26 290.961 359.072 293.523C358.819 296.494 361.488 294.756 363.12 294.184Z" fill="#242424"/>
<path d="M362.492 294.666C365.152 293.58 370.105 295.482 370.571 294.511C371.517 292.528 367.56 290.994 365.397 290.643C367.413 290.178 371.272 289.46 371.223 287.534C371.174 285.184 365.381 286.987 362.402 289.092C358.649 291.753 358.567 294.445 359.138 295.008C359.946 295.784 362.06 294.845 362.492 294.666Z" fill="#419FD9"/>
<path d="M348.326 322.271C347.489 328.249 346.21 334.157 344.499 339.946C344.488 340.002 344.465 340.056 344.433 340.105C344.401 340.153 344.36 340.194 344.312 340.226C344.264 340.259 344.21 340.281 344.153 340.292C344.096 340.304 344.038 340.304 343.981 340.292C343.924 340.281 343.87 340.259 343.822 340.227C343.774 340.195 343.732 340.153 343.7 340.105C343.668 340.057 343.645 340.003 343.634 339.946C343.623 339.89 343.623 339.831 343.634 339.774C344.45 334.323 345.919 328.979 346.727 323.528C347.612 318.018 347.93 312.432 347.673 306.857C347.159 297.677 344.662 287.918 338.697 280.745C338.567 280.582 338.844 280.337 338.983 280.492C350.97 294.478 349.068 311.622 349.052 313.132C350.749 307.346 352.504 300.712 358.926 294.813C359.203 294.56 359.415 294.682 359.375 295.115C358.224 305.853 355.237 311.435 349.011 317.196C348.816 318.901 348.595 320.598 348.326 322.271Z" fill="#242424"/>
<path d="M338.567 282.336C336.413 281.373 333.434 284.123 331.296 284.311C331.054 284.368 330.803 284.373 330.558 284.326C330.314 284.279 330.082 284.181 329.878 284.039C329.674 283.896 329.502 283.713 329.374 283.499C329.246 283.286 329.164 283.048 329.134 282.801C328.603 279.725 332.227 277.987 335.107 277.44C333.287 277.326 331.508 277.807 329.73 277.326C329.488 277.294 329.256 277.211 329.049 277.081C328.843 276.952 328.667 276.779 328.533 276.576C328.399 276.372 328.31 276.142 328.273 275.901C328.236 275.66 328.251 275.414 328.318 275.18C329.134 271.712 333.695 272.218 336.413 273.458C335.548 271.924 333.01 267.648 335.597 267.403C338.183 267.158 340.868 272.805 341.733 274.657C343.006 277.375 344.271 281.128 343.071 283.837C341.676 287.012 339.881 283.78 338.567 282.336Z" fill="#419FD9"/>
<path opacity="0.1" d="M338.567 282.336C336.413 281.373 333.434 284.123 331.296 284.311C331.054 284.368 330.803 284.373 330.558 284.326C330.314 284.279 330.082 284.181 329.878 284.039C329.674 283.896 329.502 283.713 329.374 283.499C329.246 283.286 329.164 283.048 329.134 282.801C328.603 279.725 332.227 277.987 335.107 277.44C333.287 277.326 331.508 277.807 329.73 277.326C329.488 277.294 329.256 277.211 329.049 277.081C328.843 276.952 328.667 276.779 328.533 276.576C328.399 276.372 328.31 276.142 328.273 275.901C328.236 275.66 328.251 275.414 328.318 275.18C329.134 271.712 333.695 272.218 336.413 273.458C335.548 271.924 333.01 267.648 335.597 267.403C338.183 267.158 340.868 272.805 341.733 274.657C343.006 277.375 344.271 281.128 343.071 283.837C341.676 287.012 339.881 283.78 338.567 282.336Z" fill="#242424"/>
<path d="M338.926 283.152C336.812 280.606 330.766 279.847 330.766 278.607C330.88 276.085 335.743 276.665 338.11 277.481C336.314 275.914 332.781 273.099 333.866 271.157C335.205 268.79 340.117 273.768 342.026 277.53C344.401 282.271 343.014 285.061 342.116 285.314C340.909 285.682 339.277 283.584 338.926 283.152Z" fill="#419FD9"/>
<path d="M356.208 325.502L361.488 365.911H329.321C329.982 362.329 335.972 325.453 335.972 325.453L356.208 325.502Z" fill="#419FD9"/>
<path d="M305.723 47.5728H165.118C163.232 47.5898 161.368 47.9783 159.633 48.7159C157.897 49.4536 156.324 50.526 155.003 51.8718C153.683 53.2177 152.64 54.8106 151.935 56.5596C151.23 58.3085 150.876 60.1793 150.895 62.0649V351.508C150.862 355.315 152.342 358.98 155.008 361.697C157.675 364.414 161.311 365.962 165.118 366H305.723C309.532 365.964 313.17 364.417 315.84 361.7C318.51 358.983 319.992 355.317 319.962 351.508V62.0649C319.979 60.1782 319.624 58.3066 318.918 56.5571C318.212 54.8075 317.167 53.2143 315.845 51.8685C314.523 50.5226 312.948 49.4505 311.211 48.7134C309.474 47.9764 307.609 47.5888 305.723 47.5728ZM311.067 342.557C311.067 350.178 305.355 356.339 298.321 356.339H172.535C165.485 356.339 159.773 350.178 159.773 342.557V73.032C159.773 57.528 165.485 56.712 172.535 56.712H197.733C199.202 56.712 200.401 58.344 200.401 60.4411V61.3305C200.401 66.1612 203.045 66.1776 206.285 66.1776H264.555C267.819 66.1776 270.463 66.1776 270.463 61.3305V60.4819C270.463 58.4174 271.646 56.7528 273.132 56.7528H298.321C305.364 56.7528 311.067 58.8172 311.067 73.0728V342.557Z" fill="#242424"/>
<path d="M311.075 73.0319V342.557C311.075 350.178 305.363 356.339 298.329 356.339H172.543C165.493 356.339 159.781 350.178 159.781 342.557V73.0319C159.781 57.5279 165.493 56.7119 172.543 56.7119H197.741C199.21 56.7119 200.409 58.3439 200.409 60.441V61.3305C200.409 66.1612 203.053 66.1775 206.293 66.1775H264.563C267.827 66.1775 270.471 66.1775 270.471 61.3305V60.4818C270.471 58.4174 271.654 56.7527 273.139 56.7527H298.329C305.371 56.7527 311.075 58.8172 311.075 73.0319Z" fill="white"/>
<path d="M311.075 73.0401V97.5201H159.781V73.0401C159.781 57.5361 165.493 56.7201 172.543 56.7201H197.741C199.21 56.7201 200.409 58.3521 200.409 60.4492V61.3386C200.409 66.1694 203.053 66.1857 206.293 66.1857H264.563C267.827 66.1857 270.471 66.1857 270.471 61.3386V60.49C270.471 58.4255 271.654 56.7609 273.139 56.7609H298.329C305.371 56.7609 311.075 58.8254 311.075 73.0401Z" fill="#419FD9"/>
<path d="M243.372 59.9514H227.476C227.216 59.9493 226.967 59.8443 226.783 59.6594C226.6 59.4744 226.497 59.2245 226.497 58.9641C226.497 58.8355 226.522 58.7081 226.572 58.5893C226.621 58.4705 226.693 58.3626 226.784 58.2717C226.875 58.1807 226.983 58.1086 227.102 58.0594C227.22 58.0102 227.348 57.9849 227.476 57.9849H243.372C243.501 57.9849 243.628 58.0102 243.747 58.0594C243.865 58.1086 243.973 58.1807 244.064 58.2717C244.155 58.3626 244.227 58.4705 244.277 58.5893C244.326 58.7081 244.351 58.8355 244.351 58.9641C244.352 59.0933 244.328 59.2215 244.279 59.3413C244.23 59.461 244.158 59.57 244.067 59.6617C243.976 59.7535 243.868 59.8264 243.749 59.8761C243.629 59.9258 243.501 59.9514 243.372 59.9514Z" fill="white"/>
<path d="M182.776 79.8048H169.646V88.128H182.776V79.8048Z" fill="white"/>
<path d="M182.784 79.8048C182.253 80.3107 181.715 80.8003 181.152 81.2981L179.52 82.7587L177.888 84.2602L177.839 84.3091L176.256 85.6229L176.182 85.68L176.109 85.6229L174.624 84.301H174.575C174.004 83.8032 173.433 83.3054 172.869 82.7995L171.237 81.3389C170.707 80.8411 170.169 80.3515 169.605 79.8456C170.169 80.2862 170.723 80.735 171.237 81.1838C171.752 81.6326 172.347 82.0896 172.869 82.5547C173.392 83.0198 174.102 83.5829 174.714 84.1051L176.084 85.2802L177.464 84.1051L179.3 82.5547L180.932 81.192L182.784 79.8048Z" fill="#419FD9"/>
<path d="M174.844 84.252L174.632 84.4233C174.306 84.7008 173.963 84.97 173.62 85.2393C173.277 85.5086 172.804 85.8595 172.347 86.1614C171.89 86.4633 171.482 86.7571 171.042 87.0427C170.601 87.3283 170.144 87.6057 169.687 87.8587C170.079 87.5078 170.503 87.1814 170.911 86.8632C171.319 86.5449 171.727 86.243 172.192 85.9411C172.657 85.6392 173.057 85.3454 173.498 85.0598C173.938 84.7742 174.216 84.611 174.583 84.3988C174.665 84.3478 174.749 84.3015 174.836 84.2601L174.844 84.252Z" fill="#419FD9"/>
<path d="M182.784 87.8669C182.319 87.6139 181.87 87.3365 181.43 87.0509C180.989 86.7653 180.548 86.4715 180.116 86.1696C179.683 85.8676 179.259 85.5657 178.843 85.2475C178.427 84.9293 178.166 84.7253 177.839 84.4315L177.627 84.2601L177.88 84.407C178.25 84.6192 178.609 84.8395 178.957 85.068C179.406 85.3536 179.838 85.6473 180.271 85.9493C180.703 86.2512 181.128 86.5531 181.544 86.8713C181.96 87.1896 182.343 87.516 182.784 87.8669Z" fill="#419FD9"/>
<path d="M185.591 79.8047C185.591 80.3619 185.426 80.9065 185.116 81.3696C184.806 81.8327 184.366 82.1936 183.851 82.4064C183.336 82.6192 182.77 82.6745 182.223 82.5652C181.677 82.4559 181.175 82.187 180.782 81.7925C180.389 81.3979 180.121 80.8955 180.014 80.3489C179.906 79.8023 179.963 79.236 180.177 78.7217C180.391 78.2075 180.754 77.7683 181.218 77.46C181.682 77.1516 182.227 76.9879 182.784 76.9895C183.529 76.9917 184.243 77.2892 184.769 77.817C185.295 78.3447 185.591 79.0595 185.591 79.8047Z" fill="#419FD9"/>
<path d="M183.706 80.3678C183.704 80.4269 183.679 80.483 183.636 80.5241C183.594 80.5652 183.537 80.5881 183.478 80.5881V80.8982C183.468 80.9504 183.44 80.9974 183.399 81.0313C183.358 81.0651 183.306 81.0837 183.253 81.0837C183.2 81.0837 183.149 81.0651 183.108 81.0313C183.067 80.9974 183.039 80.9504 183.029 80.8982V80.5881H181.756C181.731 80.5902 181.705 80.5869 181.681 80.5785C181.657 80.57 181.635 80.5566 181.617 80.5391C181.596 80.5193 181.579 80.4953 181.567 80.4686C181.556 80.4419 181.55 80.4132 181.55 80.3841C181.55 80.355 181.556 80.3263 181.567 80.2996C181.579 80.2729 181.596 80.2489 181.617 80.2291L183.037 78.3359H183.102H183.233V79.9679C183.286 79.9052 183.362 79.8661 183.443 79.8592C183.525 79.8523 183.607 79.8782 183.669 79.9312C183.732 79.9842 183.771 80.06 183.778 80.1419C183.785 80.2238 183.759 80.305 183.706 80.3678ZM182.988 79.1438L182.172 80.1475H182.988V79.1438Z" fill="white"/>
<path d="M193.392 62.5708L193.147 62.8156L193.008 62.9544C192.386 62.333 191.542 61.984 190.662 61.984C189.783 61.984 188.939 62.333 188.316 62.9544L188.186 62.8156C188.104 62.734 188.023 62.6606 187.949 62.579L188.259 62.3016C188.476 62.1229 188.715 61.9722 188.969 61.8528C189.268 61.702 189.587 61.5948 189.916 61.5345C190.071 61.5345 190.226 61.5345 190.381 61.4692H190.797H191.115C191.412 61.5022 191.702 61.5735 191.98 61.6814C192.183 61.7544 192.38 61.8445 192.568 61.9507C192.765 62.0662 192.954 62.1972 193.131 62.3424L193.384 62.579L193.392 62.5708Z" fill="white"/>
<path d="M189.083 63.7214L188.7 63.3379C189.112 62.8976 189.661 62.6099 190.258 62.5219C190.688 62.4617 191.126 62.5042 191.536 62.6461C191.946 62.7879 192.316 63.0251 192.617 63.3379L192.233 63.7214C191.814 63.3066 191.248 63.0748 190.658 63.0768C190.366 63.0745 190.076 63.1303 189.806 63.2409C189.536 63.3516 189.29 63.5149 189.083 63.7214Z" fill="white"/>
<path d="M191.85 64.1049C191.719 64.2273 191.589 64.3579 191.466 64.4884C191.36 64.3802 191.233 64.2948 191.093 64.2373C190.952 64.1798 190.802 64.1514 190.65 64.1539C190.498 64.1504 190.348 64.1784 190.207 64.2359C190.067 64.2935 189.94 64.3795 189.834 64.4884L189.451 64.1049C189.607 63.9455 189.794 63.8189 190 63.7325C190.206 63.6461 190.427 63.6016 190.65 63.6016C190.874 63.6016 191.095 63.6461 191.301 63.7325C191.507 63.8189 191.693 63.9455 191.85 64.1049Z" fill="white"/>
<path d="M191.001 64.8312C191.003 64.9013 190.983 64.9702 190.945 65.0292C190.907 65.0881 190.853 65.1343 190.788 65.1619C190.724 65.1895 190.653 65.1971 190.584 65.1838C190.515 65.1705 190.452 65.1369 190.402 65.0874C190.353 65.0378 190.319 64.9746 190.306 64.9058C190.292 64.8369 190.3 64.7657 190.328 64.7013C190.355 64.6369 190.401 64.5821 190.46 64.5442C190.519 64.5063 190.588 64.4869 190.658 64.4885C190.749 64.4885 190.836 64.5246 190.901 64.5889C190.965 64.6531 191.001 64.7403 191.001 64.8312Z" fill="white"/>
<path d="M169.646 63.3052C169.646 63.1067 169.705 62.9126 169.816 62.7476C169.926 62.5825 170.083 62.4539 170.266 62.3779C170.449 62.3019 170.651 62.2821 170.846 62.3208C171.041 62.3595 171.22 62.4551 171.36 62.5955C171.5 62.7359 171.596 62.9147 171.635 63.1094C171.673 63.3041 171.653 63.5059 171.577 63.6893C171.501 63.8727 171.373 64.0294 171.208 64.1397C171.043 64.25 170.849 64.3089 170.65 64.3089C170.518 64.3089 170.388 64.2829 170.266 64.2325C170.144 64.182 170.034 64.1081 169.94 64.0149C169.847 63.9217 169.773 63.8111 169.723 63.6893C169.672 63.5675 169.646 63.437 169.646 63.3052Z" fill="white"/>
<path d="M172.804 63.3052C172.804 63.1067 172.863 62.9126 172.973 62.7476C173.084 62.5825 173.24 62.4539 173.424 62.3779C173.607 62.3019 173.809 62.2821 174.004 62.3208C174.198 62.3595 174.377 62.4551 174.518 62.5955C174.658 62.7359 174.754 62.9147 174.792 63.1094C174.831 63.3041 174.811 63.5059 174.735 63.6893C174.659 63.8727 174.531 64.0294 174.365 64.1397C174.2 64.25 174.006 64.3089 173.808 64.3089C173.542 64.3089 173.286 64.2031 173.098 64.0149C172.91 63.8267 172.804 63.5714 172.804 63.3052Z" fill="white"/>
<path d="M175.962 63.3052C175.962 63.1067 176.021 62.9126 176.132 62.7476C176.242 62.5825 176.399 62.4539 176.582 62.3779C176.765 62.3019 176.967 62.2821 177.162 62.3208C177.357 62.3595 177.535 62.4551 177.676 62.5955C177.816 62.7359 177.912 62.9147 177.95 63.1094C177.989 63.3041 177.969 63.5059 177.893 63.6893C177.817 63.8727 177.689 64.0294 177.524 64.1397C177.359 64.25 177.165 64.3089 176.966 64.3089C176.7 64.3089 176.445 64.2031 176.256 64.0149C176.068 63.8267 175.962 63.5714 175.962 63.3052Z" fill="white"/>
<path d="M179.12 63.3052C179.12 63.1067 179.179 62.9126 179.289 62.7476C179.4 62.5825 179.556 62.4539 179.74 62.3779C179.923 62.3019 180.125 62.2821 180.32 62.3208C180.514 62.3595 180.693 62.4551 180.834 62.5955C180.974 62.7359 181.069 62.9147 181.108 63.1094C181.147 63.3041 181.127 63.5059 181.051 63.6893C180.975 63.8727 180.846 64.0294 180.681 64.1397C180.516 64.25 180.322 64.3089 180.124 64.3089C179.992 64.3089 179.861 64.2829 179.74 64.2325C179.618 64.182 179.507 64.1081 179.414 64.0149C179.321 63.9217 179.247 63.8111 179.197 63.6893C179.146 63.5675 179.12 63.437 179.12 63.3052Z" fill="white"/>
<path d="M182.278 63.3052C182.278 63.1067 182.337 62.9126 182.447 62.7476C182.558 62.5825 182.715 62.4539 182.898 62.3779C183.081 62.3019 183.283 62.2821 183.478 62.3208C183.672 62.3595 183.851 62.4551 183.992 62.5955C184.132 62.7359 184.228 62.9147 184.266 63.1094C184.305 63.3041 184.285 63.5059 184.209 63.6893C184.133 63.8727 184.005 64.0294 183.84 64.1397C183.675 64.25 183.481 64.3089 183.282 64.3089C183.15 64.3089 183.02 64.2829 182.898 64.2325C182.776 64.182 182.665 64.1081 182.572 64.0149C182.479 63.9217 182.405 63.8111 182.355 63.6893C182.304 63.5675 182.278 63.437 182.278 63.3052Z" fill="white"/>
<path d="M299.717 65.5002H291.557V61.714H299.717V65.5002ZM291.973 65.0841H299.317V62.1302H291.973V65.0841Z" fill="white"/>
<path d="M297.497 62.3586H292.234V64.8556H297.497V62.3586Z" fill="white"/>
<path d="M300.451 62.5953H299.725V64.619H300.451V62.5953Z" fill="white"/>
<path d="M222.409 81.4205C222.408 81.3559 222.42 81.2917 222.444 81.2318C222.468 81.1719 222.504 81.1175 222.55 81.0718C222.595 81.0261 222.65 80.9901 222.71 80.9659C222.77 80.9417 222.834 80.9298 222.898 80.9309C222.963 80.9298 223.028 80.9416 223.088 80.9658C223.149 80.9899 223.204 81.0258 223.25 81.0713C223.296 81.1169 223.333 81.1713 223.358 81.2312C223.383 81.2911 223.396 81.3555 223.396 81.4205V86.651C223.396 86.716 223.383 86.7803 223.358 86.8403C223.333 86.9002 223.296 86.9546 223.25 87.0001C223.204 87.0457 223.149 87.0816 223.088 87.1057C223.028 87.1298 222.963 87.1417 222.898 87.1406C222.834 87.1417 222.77 87.1298 222.71 87.1056C222.65 87.0814 222.595 87.0454 222.55 86.9997C222.504 86.954 222.468 86.8996 222.444 86.8397C222.42 86.7798 222.408 86.7156 222.409 86.651V81.4205Z" fill="white"/>
<path d="M226.032 86.6511C226.032 86.7795 225.982 86.9028 225.891 86.9944C225.801 87.086 225.679 87.1385 225.551 87.1407C225.487 87.1407 225.423 87.1279 225.364 87.1032C225.305 87.0785 225.252 87.0423 225.207 86.9968C225.162 86.9512 225.127 86.8972 225.103 86.8378C225.08 86.7784 225.068 86.715 225.069 86.6511V81.4939C225.063 81.4156 225.078 81.3371 225.11 81.2658C225.143 81.1944 225.194 81.1326 225.257 81.0859C225.362 81.0135 225.491 80.9841 225.617 81.0038C225.743 81.0235 225.856 81.0909 225.934 81.192L228.798 85.1578V81.4939C228.8 81.3677 228.852 81.2473 228.942 81.1588C229.032 81.0702 229.153 81.0206 229.28 81.0207C229.407 81.0206 229.529 81.0699 229.62 81.1582C229.712 81.2466 229.765 81.3669 229.769 81.4939V86.6511C229.769 86.7809 229.718 86.9054 229.626 86.9973C229.534 87.0891 229.41 87.1407 229.28 87.1407C229.209 87.1384 229.14 87.1213 229.077 87.0903C229.013 87.0594 228.957 87.0153 228.912 86.9611V86.9122L226.032 82.9709V86.6511Z" fill="white"/>
<path d="M231.899 86.6509V81.4204C231.899 81.2905 231.95 81.166 232.042 81.0742C232.134 80.9824 232.259 80.9308 232.389 80.9308H233.645C234.092 80.9308 234.52 81.1076 234.837 81.4226C235.153 81.7376 235.332 82.1652 235.334 82.6117C235.337 82.9779 235.216 83.3343 234.992 83.6236C235.342 83.8412 235.613 84.1671 235.762 84.552C235.911 84.9369 235.931 85.3599 235.819 85.7571C235.706 86.1543 235.468 86.5042 235.139 86.7537C234.81 87.0033 234.409 87.1391 233.996 87.1405H232.421C232.354 87.145 232.287 87.1357 232.224 87.1131C232.161 87.0905 232.103 87.0551 232.054 87.0092C232.005 86.9633 231.966 86.9078 231.939 86.8462C231.912 86.7845 231.899 86.7181 231.899 86.6509ZM232.886 83.338H233.645C233.834 83.3337 234.014 83.255 234.145 83.1191C234.277 82.9831 234.349 82.8008 234.347 82.6117C234.347 82.52 234.329 82.4291 234.293 82.3444C234.258 82.2597 234.206 82.1829 234.141 82.1184C234.076 82.0539 233.998 82.003 233.913 81.9686C233.828 81.9342 233.737 81.9171 233.645 81.9181H232.886V83.338ZM232.886 86.1532H233.996C234.225 86.1316 234.437 86.0256 234.591 85.8558C234.746 85.686 234.831 85.4647 234.831 85.2352C234.831 85.0056 234.746 84.7843 234.591 84.6146C234.437 84.4448 234.225 84.3388 233.996 84.3172H232.886V86.1532Z" fill="white"/>
<path d="M242.066 81.6978C242.642 82.3044 242.964 83.1092 242.964 83.9459C242.964 84.7826 242.642 85.5874 242.066 86.194C241.796 86.4885 241.468 86.7244 241.104 86.8872C240.739 87.0501 240.344 87.1363 239.945 87.1405C239.538 87.1377 239.135 87.0523 238.762 86.8896C238.389 86.7269 238.053 86.4903 237.774 86.194C237.207 85.5828 236.892 84.7798 236.892 83.9459C236.892 83.1121 237.207 82.309 237.774 81.6978C238.055 81.4059 238.392 81.1744 238.765 81.0172C239.138 80.8601 239.54 80.7807 239.945 80.7839C240.342 80.7826 240.735 80.863 241.1 81.0202C241.465 81.1775 241.794 81.4081 242.066 81.6978ZM241.952 83.9418C241.952 83.3677 241.736 82.8144 241.348 82.3914C241.171 82.1943 240.955 82.0366 240.713 81.9283C240.471 81.8201 240.209 81.7638 239.945 81.7631C239.675 81.7618 239.407 81.817 239.16 81.9252C238.913 82.0334 238.691 82.1923 238.508 82.3914C238.12 82.8144 237.905 83.3677 237.905 83.9418C237.901 84.5166 238.117 85.071 238.508 85.4922C238.69 85.6925 238.912 85.8526 239.159 85.9622C239.407 86.0718 239.674 86.1285 239.945 86.1287C240.21 86.1265 240.472 86.0687 240.714 85.959C240.955 85.8494 241.172 85.6904 241.348 85.4922C241.739 85.071 241.955 84.5166 241.952 83.9418Z" fill="white"/>
<path d="M248.717 81.7714L247.028 84.048L248.717 86.3491C248.791 86.4534 248.822 86.5828 248.802 86.7094C248.782 86.8361 248.714 86.9499 248.611 87.0264C248.529 87.0888 248.429 87.1232 248.325 87.1243C248.248 87.1222 248.171 87.1028 248.102 87.0675C248.033 87.0322 247.973 86.9819 247.925 86.9203L246.432 84.864L244.931 86.9122C244.884 86.9727 244.825 87.0224 244.757 87.0576C244.69 87.0929 244.615 87.1128 244.539 87.1162C244.435 87.1175 244.334 87.0829 244.253 87.0183C244.149 86.9429 244.079 86.8297 244.058 86.703C244.036 86.5763 244.066 86.4463 244.139 86.341L245.828 84.0399L244.139 81.7469C244.066 81.6429 244.037 81.5141 244.058 81.3888C244.08 81.2634 244.15 81.1516 244.253 81.0778C244.303 81.0364 244.361 81.006 244.424 80.9888C244.486 80.9716 244.552 80.9679 244.616 80.9779C244.68 80.988 244.741 81.0115 244.796 81.047C244.85 81.0825 244.896 81.1292 244.931 81.1839L246.432 83.232L247.917 81.192C247.953 81.1371 248 81.0903 248.055 81.0548C248.11 81.0192 248.172 80.9956 248.236 80.9856C248.301 80.9756 248.367 80.9794 248.43 80.9967C248.493 81.0139 248.552 81.0444 248.603 81.0859C248.656 81.1226 248.702 81.1696 248.737 81.2243C248.772 81.2791 248.795 81.3403 248.806 81.4043C248.817 81.4683 248.814 81.5339 248.799 81.5969C248.784 81.66 248.756 81.7194 248.717 81.7714Z" fill="white"/>
<path d="M290.235 87.0916L289.207 87.9076L287.305 85.3944L286.612 84.4723C286.754 84.4166 286.889 84.3425 287.012 84.252C287.242 84.0722 287.422 83.8361 287.534 83.5665L288.276 84.5376L290.235 87.0916Z" fill="white"/>
<path d="M288.211 81.1675C287.885 80.7427 287.445 80.4201 286.941 80.2376C286.438 80.0552 285.893 80.0206 285.37 80.1379C284.848 80.2551 284.369 80.5194 283.992 80.8995C283.615 81.2796 283.354 81.7597 283.241 82.2831C283.128 82.8065 283.167 83.3514 283.353 83.8534C283.539 84.3554 283.865 84.7937 284.293 85.1165C284.72 85.4393 285.231 85.6331 285.765 85.6751C286.298 85.7171 286.833 85.6056 287.306 85.3536C287.444 85.2819 287.575 85.1972 287.697 85.1006C287.923 84.9328 288.118 84.7287 288.277 84.4968C288.623 84.0075 288.803 83.4204 288.791 82.8214C288.779 82.2224 288.576 81.6428 288.211 81.1675ZM287.012 84.2112C286.889 84.3017 286.754 84.3758 286.612 84.4315C286.253 84.5748 285.856 84.5894 285.487 84.4728C285.119 84.3562 284.802 84.1157 284.591 83.792C284.38 83.4684 284.287 83.0816 284.329 82.6975C284.371 82.3133 284.544 81.9554 284.82 81.6846C285.095 81.4137 285.456 81.2467 285.841 81.2119C286.226 81.1771 286.611 81.2766 286.931 81.4935C287.251 81.7104 287.486 82.0314 287.596 82.4019C287.705 82.7723 287.684 83.1695 287.534 83.5257C287.422 83.7953 287.242 84.0314 287.012 84.2112Z" fill="white"/>
<path d="M276.281 80.2372H268.823V87.6954H276.281V80.2372Z" fill="white"/>
<path d="M272.96 81.6244H272.144V86.3164H272.96V81.6244Z" fill="#419FD9"/>
<path d="M270.202 83.5584V84.3744H274.894V83.5584H270.202Z" fill="#419FD9"/>
<path d="M299.717 80.7186C299.717 80.8461 299.679 80.9708 299.608 81.0768C299.538 81.1828 299.437 81.2654 299.319 81.3142C299.201 81.363 299.072 81.3757 298.947 81.3509C298.822 81.326 298.707 81.2646 298.617 81.1744C298.526 81.0843 298.465 80.9694 298.44 80.8444C298.415 80.7193 298.428 80.5897 298.477 80.4719C298.526 80.3541 298.608 80.2535 298.714 80.1826C298.82 80.1118 298.945 80.074 299.072 80.074C299.157 80.074 299.241 80.0906 299.319 80.123C299.397 80.1554 299.468 80.2029 299.528 80.2628C299.588 80.3227 299.636 80.3937 299.668 80.4719C299.7 80.5501 299.717 80.634 299.717 80.7186Z" fill="white"/>
<path d="M299.717 84.048C299.717 84.2189 299.649 84.3829 299.528 84.5038C299.407 84.6247 299.243 84.6926 299.072 84.6926C298.901 84.6926 298.737 84.6247 298.617 84.5038C298.496 84.3829 298.428 84.2189 298.428 84.048C298.428 83.9633 298.444 83.8795 298.477 83.8013C298.509 83.7231 298.557 83.652 298.617 83.5921C298.676 83.5323 298.747 83.4848 298.826 83.4524C298.904 83.42 298.988 83.4033 299.072 83.4033C299.157 83.4033 299.241 83.42 299.319 83.4524C299.397 83.4848 299.468 83.5323 299.528 83.5921C299.588 83.652 299.636 83.7231 299.668 83.8013C299.7 83.8795 299.717 83.9633 299.717 84.048Z" fill="white"/>
<path d="M299.717 87.4099C299.717 87.4946 299.7 87.5784 299.668 87.6566C299.636 87.7348 299.588 87.8059 299.528 87.8657C299.468 87.9256 299.397 87.9731 299.319 88.0055C299.241 88.0379 299.157 88.0545 299.072 88.0545C298.988 88.0545 298.904 88.0379 298.826 88.0055C298.747 87.9731 298.676 87.9256 298.617 87.8657C298.557 87.8059 298.509 87.7348 298.477 87.6566C298.444 87.5784 298.428 87.4946 298.428 87.4099C298.428 87.2389 298.496 87.075 298.617 86.9541C298.737 86.8332 298.901 86.7653 299.072 86.7653C299.243 86.7653 299.407 86.8332 299.528 86.9541C299.649 87.075 299.717 87.2389 299.717 87.4099Z" fill="white"/>
<path d="M311.067 97.4874H159.781V120.85H311.067V97.4874Z" fill="#F2F2F2"/>
<path d="M184.416 113.685C183.942 113.978 183.424 114.193 182.882 114.322C181.588 114.632 180.225 114.444 179.064 113.794C177.904 113.144 177.031 112.08 176.619 110.815C176.208 109.55 176.288 108.177 176.845 106.968C177.401 105.76 178.392 104.806 179.621 104.296C180.85 103.786 182.226 103.758 183.474 104.218C184.722 104.677 185.752 105.59 186.357 106.775C186.962 107.96 187.098 109.329 186.738 110.61C186.378 111.891 185.549 112.989 184.416 113.685Z" fill="#419FD9"/>
<path d="M183.2 108.528C183.2 108.851 183.104 109.166 182.925 109.435C182.746 109.703 182.491 109.912 182.193 110.036C181.894 110.159 181.566 110.192 181.25 110.129C180.933 110.066 180.642 109.91 180.414 109.682C180.186 109.454 180.03 109.163 179.967 108.846C179.904 108.53 179.937 108.202 180.06 107.903C180.184 107.605 180.393 107.35 180.661 107.171C180.93 106.992 181.245 106.896 181.568 106.896C182.001 106.896 182.416 107.068 182.722 107.374C183.028 107.68 183.2 108.095 183.2 108.528Z" fill="white"/>
<path d="M184.416 113.016V113.685C183.942 113.978 183.424 114.193 182.882 114.322C182.194 114.494 181.478 114.526 180.777 114.417C180.076 114.307 179.405 114.059 178.802 113.685V113.016C178.802 112.276 179.096 111.566 179.619 111.043C180.143 110.519 180.852 110.225 181.592 110.225C182.333 110.225 183.042 110.519 183.566 111.043C184.089 111.566 184.383 112.276 184.383 113.016H184.416Z" fill="white"/>
<path d="M214.902 112.681H207.884L210.748 109.173L207.884 105.664H214.902L217.766 109.173L214.902 112.681Z" fill="white"/>
<path d="M196.868 105.664L198.01 107.973L200.556 108.34L198.712 110.144L199.153 112.681L196.868 111.482L194.591 112.681L195.024 110.144L193.18 108.34L195.726 107.973L196.868 105.664Z" fill="#419FD9"/>
<path d="M264.205 107.745H222.801V110.601H264.205V107.745Z" fill="#242424"/>
<path d="M297.497 107.745H281.267V110.601H297.497V107.745Z" fill="#419FD9"/>
<path d="M184.416 137.088C183.942 137.381 183.424 137.596 182.882 137.724C181.588 138.035 180.225 137.846 179.064 137.197C177.904 136.547 177.031 135.483 176.619 134.218C176.208 132.953 176.288 131.579 176.845 130.371C177.401 129.163 178.392 128.209 179.621 127.699C180.85 127.189 182.226 127.161 183.474 127.621C184.722 128.08 185.752 128.993 186.357 130.178C186.962 131.363 187.098 132.732 186.738 134.013C186.378 135.294 185.549 136.392 184.416 137.088Z" fill="#419FD9"/>
<path d="M183.2 131.931C183.2 132.254 183.104 132.569 182.925 132.838C182.746 133.106 182.491 133.315 182.193 133.439C181.894 133.562 181.566 133.594 181.25 133.531C180.933 133.469 180.642 133.313 180.414 133.085C180.186 132.857 180.03 132.566 179.967 132.249C179.904 131.933 179.937 131.604 180.06 131.306C180.184 131.008 180.393 130.753 180.661 130.574C180.93 130.395 181.245 130.299 181.568 130.299C182.001 130.299 182.416 130.471 182.722 130.777C183.028 131.083 183.2 131.498 183.2 131.931Z" fill="white"/>
<path d="M184.416 136.378V137.088C183.942 137.381 183.424 137.596 182.882 137.724C182.194 137.899 181.478 137.932 180.777 137.823C180.076 137.714 179.404 137.464 178.802 137.088V136.419C178.802 135.679 179.096 134.969 179.619 134.445C180.143 133.922 180.852 133.628 181.592 133.628C182.333 133.628 183.042 133.922 183.566 134.445C184.089 134.969 184.383 135.679 184.383 136.419L184.416 136.378Z" fill="white"/>
<path d="M214.902 136.043H207.884L210.748 132.535L207.884 129.026H214.902L217.766 132.535L214.902 136.043Z" fill="white"/>
<path d="M215 136.272H207.452L210.487 132.559L207.452 128.846H215L218.027 132.559L215 136.272ZM208.317 135.864H214.845L217.537 132.559L214.845 129.295H208.317L211.009 132.559L208.317 135.864Z" fill="#F2F2F2"/>
<path d="M196.868 129.026L198.01 131.335L200.556 131.702L198.712 133.506L199.153 136.043L196.868 134.844L194.591 136.043L195.024 133.506L193.18 131.702L195.726 131.335L196.868 129.026Z" fill="#419FD9"/>
<path d="M264.205 131.107H222.801V133.963H264.205V131.107Z" fill="#242424"/>
<path d="M297.497 131.107H281.267V133.963H297.497V131.107Z" fill="#419FD9"/>
<path d="M311.067 144.212H159.781V167.574H311.067V144.212Z" fill="#F2F2F2"/>
<path d="M184.416 160.409C183.941 160.701 183.423 160.919 182.882 161.054C181.582 161.373 180.209 161.19 179.038 160.542C177.866 159.894 176.982 158.828 176.562 157.557C176.142 156.286 176.216 154.903 176.77 153.684C177.325 152.466 178.318 151.501 179.552 150.982C180.786 150.463 182.171 150.429 183.429 150.886C184.688 151.343 185.728 152.258 186.341 153.448C186.955 154.637 187.098 156.015 186.741 157.305C186.384 158.595 185.554 159.704 184.416 160.409Z" fill="#419FD9"/>
<path d="M183.2 155.293C183.2 155.616 183.104 155.931 182.925 156.2C182.746 156.468 182.491 156.677 182.193 156.801C181.894 156.924 181.566 156.957 181.25 156.894C180.933 156.831 180.642 156.675 180.414 156.447C180.186 156.219 180.03 155.928 179.967 155.611C179.904 155.295 179.937 154.967 180.06 154.668C180.184 154.37 180.393 154.115 180.661 153.936C180.93 153.757 181.245 153.661 181.568 153.661C182.001 153.661 182.416 153.833 182.722 154.139C183.028 154.445 183.2 154.86 183.2 155.293Z" fill="white"/>
<path d="M184.416 159.74V160.409C183.94 160.701 183.423 160.919 182.882 161.054C182.193 161.227 181.477 161.259 180.776 161.148C180.075 161.037 179.403 160.786 178.802 160.409V159.74C178.802 159 179.096 158.29 179.619 157.767C180.143 157.243 180.852 156.949 181.592 156.949C182.333 156.949 183.042 157.243 183.566 157.767C184.089 158.29 184.383 159 184.383 159.74H184.416Z" fill="white"/>
<path d="M214.902 159.406H207.884L210.748 155.897L207.884 152.388H214.902L217.766 155.897L214.902 159.406Z" fill="white"/>
<path d="M196.868 152.388L198.01 154.697L200.556 155.064L198.712 156.868L199.153 159.406L196.868 158.206L194.591 159.406L195.024 156.868L193.18 155.064L195.726 154.697L196.868 152.388Z" fill="white"/>
<path d="M264.205 154.469H222.801V157.325H264.205V154.469Z" fill="#E6E6E6"/>
<path d="M297.497 154.469H281.267V157.325H297.497V154.469Z" fill="#F2F2F2"/>
<path d="M184.416 183.771C183.941 184.063 183.423 184.281 182.882 184.416C181.582 184.735 180.209 184.553 179.038 183.904C177.866 183.256 176.982 182.19 176.562 180.919C176.142 179.648 176.216 178.265 176.77 177.047C177.325 175.828 178.318 174.863 179.552 174.344C180.786 173.826 182.171 173.791 183.429 174.248C184.688 174.705 185.728 175.62 186.341 176.81C186.955 177.999 187.098 179.377 186.741 180.667C186.384 181.958 185.554 183.066 184.416 183.771Z" fill="#E6E6E6"/>
<path d="M183.2 178.655C183.2 178.978 183.104 179.293 182.925 179.562C182.746 179.83 182.491 180.039 182.193 180.163C181.894 180.286 181.566 180.319 181.25 180.256C180.933 180.193 180.642 180.037 180.414 179.809C180.186 179.581 180.03 179.29 179.967 178.973C179.904 178.657 179.937 178.329 180.06 178.03C180.184 177.732 180.393 177.477 180.661 177.298C180.93 177.119 181.245 177.023 181.568 177.023C182.001 177.023 182.416 177.195 182.722 177.501C183.028 177.807 183.2 178.222 183.2 178.655Z" fill="white"/>
<path d="M184.416 183.11V183.771C183.94 184.063 183.423 184.281 182.882 184.416C182.193 184.589 181.477 184.621 180.776 184.51C180.075 184.399 179.403 184.148 178.802 183.771V183.11C178.802 182.37 179.096 181.66 179.619 181.137C180.143 180.614 180.852 180.32 181.592 180.32C182.333 180.32 183.042 180.614 183.566 181.137C184.089 181.66 184.383 182.37 184.383 183.11H184.416Z" fill="white"/>
<path d="M214.902 182.768H207.884L210.748 179.259L207.884 175.75H214.902L217.766 179.259L214.902 182.768Z" fill="white"/>
<path d="M215 182.972H207.452L210.487 179.259L207.452 175.546H215L218.027 179.259L215 182.972ZM208.317 182.564H214.845L217.537 179.3L214.845 175.995H208.317L211.009 179.3L208.317 182.564Z" fill="#F2F2F2"/>
<path d="M196.868 175.75L198.01 178.059L200.556 178.435L198.712 180.23L199.153 182.768L196.868 181.568L194.591 182.768L195.024 180.23L193.18 178.435L195.726 178.059L196.868 175.75Z" fill="#419FD9"/>
<path d="M264.205 177.831H222.801V180.687H264.205V177.831Z" fill="#E6E6E6"/>
<path d="M297.497 177.831H281.267V180.687H297.497V177.831Z" fill="#F2F2F2"/>
<path d="M311.067 190.944H159.781V214.306H311.067V190.944Z" fill="#F2F2F2"/>
<path d="M184.416 207.133C183.941 207.426 183.423 207.643 182.882 207.778C181.582 208.097 180.209 207.915 179.038 207.266C177.866 206.618 176.982 205.552 176.562 204.281C176.142 203.01 176.216 201.627 176.77 200.409C177.325 199.19 178.318 198.225 179.552 197.706C180.786 197.188 182.171 197.153 183.429 197.61C184.688 198.067 185.728 198.982 186.341 200.172C186.955 201.362 187.098 202.739 186.741 204.029C186.384 205.32 185.554 206.428 184.416 207.133Z" fill="#999999"/>
<path d="M183.2 202.017C183.2 202.34 183.104 202.655 182.925 202.924C182.746 203.192 182.491 203.401 182.193 203.525C181.894 203.648 181.566 203.681 181.25 203.618C180.933 203.555 180.642 203.399 180.414 203.171C180.186 202.943 180.03 202.652 179.967 202.335C179.904 202.019 179.937 201.691 180.06 201.392C180.184 201.094 180.393 200.839 180.661 200.66C180.93 200.481 181.245 200.385 181.568 200.385C182.001 200.385 182.416 200.557 182.722 200.863C183.028 201.169 183.2 201.584 183.2 202.017Z" fill="white"/>
<path d="M184.416 206.448V207.109C183.94 207.401 183.423 207.618 182.882 207.754C182.193 207.926 181.477 207.958 180.776 207.847C180.075 207.737 179.403 207.486 178.802 207.109V206.448C178.802 205.708 179.096 204.998 179.619 204.475C180.143 203.951 180.852 203.657 181.592 203.657C182.333 203.657 183.042 203.951 183.566 204.475C184.089 204.998 184.383 205.708 184.383 206.448H184.416Z" fill="white"/>
<path d="M214.902 206.13H207.884L210.748 202.621L207.884 199.112H214.902L217.766 202.621L214.902 206.13Z" fill="white"/>
<path d="M196.868 199.112L198.01 201.421L200.556 201.797L198.712 203.592L199.153 206.13L196.868 204.93L194.591 206.13L195.024 203.592L193.18 201.797L195.726 201.421L196.868 199.112Z" fill="#419FD9"/>
<path d="M264.205 201.193H222.801V204.049H264.205V201.193Z" fill="#E6E6E6"/>
<path d="M297.497 201.193H281.267V204.049H297.497V201.193Z" fill="#F2F2F2"/>
<path d="M311.075 331.116V342.54C311.109 344.902 310.545 347.233 309.435 349.318C308.325 351.402 306.705 353.172 304.727 354.462H166.138C164.159 353.173 162.539 351.403 161.429 349.318C160.319 347.234 159.755 344.902 159.789 342.54V331.116H311.075Z" fill="#F2F2F2"/>
<path d="M184.416 347.314C183.941 347.606 183.423 347.824 182.882 347.959C181.582 348.278 180.209 348.095 179.038 347.447C177.866 346.799 176.982 345.733 176.562 344.462C176.142 343.191 176.216 341.808 176.77 340.589C177.325 339.37 178.318 338.406 179.552 337.887C180.786 337.368 182.171 337.334 183.429 337.791C184.688 338.248 185.728 339.163 186.341 340.352C186.955 341.542 187.098 342.92 186.741 344.21C186.384 345.5 185.554 346.609 184.416 347.314Z" fill="#419FD9"/>
<path d="M183.2 342.198C183.2 342.52 183.104 342.836 182.925 343.104C182.746 343.373 182.491 343.582 182.193 343.705C181.894 343.829 181.566 343.861 181.25 343.798C180.933 343.735 180.642 343.58 180.414 343.352C180.186 343.123 180.03 342.833 179.967 342.516C179.904 342.199 179.937 341.871 180.06 341.573C180.184 341.275 180.393 341.02 180.661 340.841C180.93 340.661 181.245 340.566 181.568 340.566C182.001 340.566 182.416 340.738 182.722 341.044C183.028 341.35 183.2 341.765 183.2 342.198Z" fill="white"/>
<path d="M184.416 346.645V347.314C183.94 347.606 183.423 347.824 182.882 347.959C182.193 348.13 181.477 348.161 180.776 348.05C180.076 347.939 179.404 347.689 178.802 347.314V346.645C178.802 345.905 179.096 345.195 179.619 344.672C180.143 344.148 180.852 343.854 181.592 343.854C182.333 343.854 183.042 344.148 183.566 344.672C184.089 345.195 184.383 345.905 184.383 346.645H184.416Z" fill="white"/>
<path d="M214.902 346.31H207.884L210.748 342.802L207.884 339.293H214.902L217.766 342.802L214.902 346.31Z" fill="white"/>
<path d="M196.868 339.293L198.01 341.602L200.556 341.969L198.712 343.773L199.153 346.31L196.868 345.111L194.591 346.31L195.024 343.773L193.18 341.969L195.726 341.602L196.868 339.293Z" fill="#419FD9"/>
<path d="M264.205 341.374H222.801V344.23H264.205V341.374Z" fill="#E6E6E6"/>
<path d="M297.497 341.374H281.267V344.23H297.497V341.374Z" fill="#F2F2F2"/>
<path d="M184.416 230.495C183.703 230.935 182.896 231.2 182.06 231.268C181.225 231.336 180.386 231.205 179.611 230.887C178.836 230.569 178.147 230.072 177.601 229.436C177.055 228.801 176.667 228.045 176.468 227.231C176.236 226.279 176.272 225.282 176.571 224.349C176.871 223.416 177.423 222.584 178.166 221.945C178.909 221.306 179.814 220.885 180.782 220.729C181.749 220.573 182.741 220.687 183.647 221.059C184.554 221.431 185.339 222.047 185.918 222.838C186.496 223.629 186.844 224.565 186.924 225.542C187.003 226.518 186.811 227.498 186.369 228.372C185.926 229.247 185.25 229.981 184.416 230.495Z" fill="#242424"/>
<path d="M183.2 225.379C183.2 225.702 183.104 226.017 182.925 226.286C182.746 226.554 182.491 226.763 182.193 226.887C181.894 227.01 181.566 227.043 181.25 226.98C180.933 226.917 180.642 226.761 180.414 226.533C180.186 226.305 180.03 226.014 179.967 225.698C179.904 225.381 179.937 225.053 180.06 224.755C180.184 224.456 180.393 224.202 180.661 224.022C180.93 223.843 181.245 223.747 181.568 223.747C182.001 223.747 182.416 223.919 182.722 224.225C183.028 224.531 183.2 224.946 183.2 225.379Z" fill="white"/>
<path d="M184.416 229.835V230.496C183.578 231.016 182.612 231.292 181.625 231.292C180.639 231.292 179.672 231.016 178.834 230.496V229.835C178.834 229.094 179.128 228.385 179.652 227.861C180.175 227.338 180.885 227.044 181.625 227.044C182.365 227.044 183.075 227.338 183.599 227.861C184.122 228.385 184.416 229.094 184.416 229.835Z" fill="white"/>
<path d="M214.902 229.492H207.884L210.748 225.983L207.884 222.474H214.902L217.766 225.983L214.902 229.492Z" fill="white"/>
<path d="M215 229.696H207.452L210.487 225.983L207.452 222.27H215L218.027 225.983L215 229.696ZM208.317 229.288H214.845L217.537 225.983L214.845 222.678H208.317L211.009 225.983L208.317 229.288Z" fill="#F2F2F2"/>
<path d="M196.868 222.474L198.01 224.784L200.556 225.159L198.712 226.954L199.153 229.492L196.868 228.292L194.591 229.492L195.024 226.954L193.18 225.159L195.726 224.784L196.868 222.474Z" fill="white"/>
<path d="M199.422 229.867L196.868 228.529L194.314 229.867L194.804 227.027L192.739 225.012L195.595 224.604L196.868 222.017L198.141 224.604L200.997 225.012L198.933 227.027L199.422 229.867ZM196.868 228.064L198.876 229.125L198.492 226.881L200.124 225.298L197.872 224.971L196.868 222.939L195.84 224.971L193.596 225.298L195.228 226.881L194.845 229.125L196.868 228.064Z" fill="#F2F2F2"/>
<path d="M264.205 224.555H222.801V227.411H264.205V224.555Z" fill="#E6E6E6"/>
<path d="M297.497 224.555H281.267V227.411H297.497V224.555Z" fill="#F2F2F2"/>
<path d="M311.067 237.668H159.781V261.03H311.067V237.668Z" fill="#F2F2F2"/>
<path d="M184.416 253.866C183.94 254.155 183.423 254.37 182.882 254.502C181.863 254.75 180.793 254.69 179.808 254.329C178.824 253.969 177.968 253.325 177.349 252.479C176.73 251.632 176.375 250.621 176.331 249.573C176.286 248.526 176.553 247.488 177.098 246.592C177.643 245.696 178.442 244.982 179.392 244.539C180.343 244.097 181.404 243.946 182.44 244.106C183.477 244.266 184.442 244.73 185.215 245.439C185.988 246.148 186.533 247.07 186.782 248.088C187.047 249.178 186.961 250.323 186.536 251.361C186.111 252.398 185.369 253.275 184.416 253.866Z" fill="#419FD9"/>
<path d="M183.2 248.741C183.2 249.064 183.104 249.38 182.925 249.648C182.746 249.916 182.491 250.126 182.193 250.249C181.894 250.373 181.566 250.405 181.25 250.342C180.933 250.279 180.642 250.123 180.414 249.895C180.186 249.667 180.03 249.376 179.967 249.06C179.904 248.743 179.937 248.415 180.06 248.117C180.184 247.819 180.393 247.564 180.661 247.384C180.93 247.205 181.245 247.109 181.568 247.109C182.001 247.109 182.416 247.281 182.722 247.587C183.028 247.893 183.2 248.308 183.2 248.741Z" fill="white"/>
<path d="M184.416 253.197V253.866C183.94 254.155 183.423 254.37 182.882 254.502C182.193 254.675 181.477 254.707 180.776 254.596C180.075 254.485 179.403 254.234 178.802 253.858V253.197C178.802 252.456 179.096 251.747 179.619 251.223C180.143 250.7 180.852 250.406 181.592 250.406C182.333 250.406 183.042 250.7 183.566 251.223C184.089 251.747 184.383 252.456 184.383 253.197H184.416Z" fill="white"/>
<path d="M214.902 252.862H207.884L210.748 249.345L207.884 245.836H214.902L217.766 249.345L214.902 252.862Z" fill="white"/>
<path d="M196.868 245.836L198.01 248.154L200.556 248.521L198.712 250.316L199.153 252.862L196.868 251.663L194.591 252.862L195.024 250.316L193.18 248.521L195.726 248.154L196.868 245.836Z" fill="#419FD9"/>
<path d="M264.205 247.925H222.801V250.781H264.205V247.925Z" fill="#242424"/>
<path d="M297.497 247.925H281.267V250.781H297.497V247.925Z" fill="#419FD9"/>
<path d="M184.416 277.228C183.942 277.521 183.424 277.736 182.882 277.864C181.863 278.112 180.793 278.052 179.808 277.691C178.824 277.331 177.968 276.687 177.349 275.841C176.73 274.994 176.375 273.983 176.331 272.935C176.286 271.888 176.553 270.85 177.098 269.954C177.643 269.058 178.442 268.344 179.392 267.901C180.343 267.459 181.404 267.308 182.44 267.468C183.477 267.628 184.442 268.092 185.215 268.801C185.988 269.51 186.533 270.432 186.782 271.451C187.047 272.54 186.961 273.685 186.536 274.723C186.111 275.76 185.369 276.637 184.416 277.228Z" fill="#419FD9"/>
<path d="M183.2 272.103C183.2 272.426 183.104 272.742 182.925 273.01C182.746 273.278 182.491 273.488 182.193 273.611C181.894 273.735 181.566 273.767 181.25 273.704C180.933 273.641 180.642 273.486 180.414 273.257C180.186 273.029 180.03 272.738 179.967 272.422C179.904 272.105 179.937 271.777 180.06 271.479C180.184 271.181 180.393 270.926 180.661 270.746C180.93 270.567 181.245 270.471 181.568 270.471C182.001 270.471 182.416 270.643 182.722 270.949C183.028 271.255 183.2 271.67 183.2 272.103Z" fill="white"/>
<path d="M184.416 276.559V277.228C183.942 277.521 183.424 277.736 182.882 277.864C182.193 278.037 181.477 278.069 180.776 277.958C180.075 277.847 179.403 277.596 178.802 277.22V276.559C178.802 275.819 179.096 275.109 179.619 274.585C180.143 274.062 180.852 273.768 181.592 273.768C182.333 273.768 183.042 274.062 183.566 274.585C184.089 275.109 184.383 275.819 184.383 276.559H184.416Z" fill="white"/>
<path d="M214.902 276.224H207.884L210.748 272.715L207.884 269.207H214.902L217.766 272.715L214.902 276.224Z" fill="white"/>
<path d="M215 276.428H207.452L210.487 272.715L207.452 269.003H215L218.027 272.715L215 276.428ZM208.317 276.02H214.845L217.537 272.715L214.845 269.451H208.317L211.009 272.715L208.317 276.02Z" fill="#F2F2F2"/>
<path d="M196.868 269.207L198.01 271.516L200.556 271.883L198.712 273.678L199.153 276.224L196.868 275.025L194.591 276.224L195.024 273.678L193.18 271.883L195.726 271.516L196.868 269.207Z" fill="white"/>
<path d="M199.422 276.624L196.868 275.286L194.314 276.624L194.804 273.784L192.739 271.728L195.595 271.312L196.868 268.725L198.141 271.312L200.997 271.728L198.933 273.735L199.422 276.624ZM193.621 272.063L195.253 273.646L194.869 275.881L196.876 274.821L198.884 275.881L198.5 273.646L200.132 272.063L197.88 271.728L196.876 269.696L195.84 271.728L193.621 272.063Z" fill="#F2F2F2"/>
<path d="M264.205 271.287H222.801V274.143H264.205V271.287Z" fill="#E6E6E6"/>
<path d="M297.497 271.287H281.267V274.143H297.497V271.287Z" fill="#F2F2F2"/>
<path d="M311.067 284.392H159.781V307.754H311.067V284.392Z" fill="#F2F2F2"/>
<path d="M184.416 300.59C183.942 300.883 183.424 301.098 182.882 301.226C181.588 301.537 180.225 301.348 179.064 300.699C177.904 300.049 177.031 298.985 176.619 297.72C176.208 296.455 176.288 295.081 176.845 293.873C177.401 292.665 178.392 291.711 179.621 291.201C180.85 290.691 182.226 290.663 183.474 291.123C184.722 291.582 185.752 292.495 186.357 293.68C186.962 294.865 187.098 296.234 186.738 297.515C186.378 298.795 185.549 299.894 184.416 300.59Z" fill="#419FD9"/>
<path d="M183.2 295.465C183.2 295.788 183.104 296.104 182.925 296.372C182.746 296.64 182.491 296.85 182.193 296.973C181.894 297.097 181.566 297.129 181.25 297.066C180.933 297.003 180.642 296.848 180.414 296.619C180.186 296.391 180.03 296.1 179.967 295.784C179.904 295.467 179.937 295.139 180.06 294.841C180.184 294.543 180.393 294.288 180.661 294.108C180.93 293.929 181.245 293.833 181.568 293.833C182.001 293.833 182.416 294.005 182.722 294.311C183.028 294.617 183.2 295.033 183.2 295.465Z" fill="white"/>
<path d="M184.416 299.921V300.59C183.942 300.883 183.424 301.098 182.882 301.226C182.194 301.398 181.478 301.431 180.777 301.321C180.076 301.212 179.405 300.963 178.802 300.59V299.921C178.802 299.181 179.096 298.471 179.619 297.947C180.143 297.424 180.852 297.13 181.592 297.13C182.333 297.13 183.042 297.424 183.566 297.947C184.089 298.471 184.383 299.181 184.383 299.921H184.416Z" fill="white"/>
<path d="M214.902 299.586H207.884L210.748 296.077L207.884 292.569H214.902L217.766 296.077L214.902 299.586Z" fill="white"/>
<path d="M196.868 292.569L198.01 294.878L200.556 295.245L198.712 297.04L199.153 299.586L196.868 298.387L194.591 299.586L195.024 297.04L193.18 295.245L195.726 294.878L196.868 292.569Z" fill="white"/>
<path d="M264.205 294.649H222.801V297.505H264.205V294.649Z" fill="#E6E6E6"/>
<path d="M297.497 294.649H281.267V297.505H297.497V294.649Z" fill="#F2F2F2"/>
<path d="M184.416 323.952C183.942 324.245 183.424 324.46 182.882 324.588C181.588 324.899 180.225 324.711 179.064 324.061C177.904 323.411 177.031 322.347 176.619 321.082C176.208 319.817 176.288 318.443 176.845 317.235C177.401 316.027 178.392 315.073 179.621 314.563C180.85 314.053 182.226 314.025 183.474 314.485C184.722 314.944 185.752 315.857 186.357 317.042C186.962 318.227 187.098 319.596 186.738 320.877C186.378 322.158 185.549 323.256 184.416 323.952Z" fill="#E6E6E6"/>
<path d="M183.2 318.836C183.2 319.158 183.104 319.474 182.925 319.742C182.746 320.011 182.491 320.22 182.193 320.343C181.894 320.467 181.566 320.499 181.25 320.436C180.933 320.373 180.642 320.218 180.414 319.99C180.186 319.761 180.03 319.471 179.967 319.154C179.904 318.837 179.937 318.509 180.06 318.211C180.184 317.913 180.393 317.658 180.661 317.479C180.93 317.299 181.245 317.204 181.568 317.204C182.001 317.204 182.416 317.376 182.722 317.682C183.028 317.988 183.2 318.403 183.2 318.836Z" fill="white"/>
<path d="M184.416 323.283V323.952C183.942 324.245 183.424 324.46 182.882 324.588C182.194 324.763 181.478 324.796 180.777 324.687C180.076 324.578 179.404 324.328 178.802 323.952V323.283C178.802 322.543 179.096 321.833 179.619 321.31C180.143 320.786 180.852 320.492 181.592 320.492C182.333 320.492 183.042 320.786 183.566 321.31C184.089 321.833 184.383 322.543 184.383 323.283H184.416Z" fill="white"/>
<path d="M214.902 322.948H207.884L210.748 319.439L207.884 315.931H214.902L217.766 319.439L214.902 322.948Z" fill="white"/>
<path d="M215 323.136H207.452L210.487 319.423L207.452 315.71H215L218.027 319.423L215 323.136ZM208.317 322.728H214.845L217.537 319.464L214.845 316.159H208.317L211.009 319.464L208.317 322.728Z" fill="#F2F2F2"/>
<path d="M196.868 315.931L198.01 318.24L200.556 318.607L198.712 320.41L199.153 322.948L196.868 321.749L194.591 322.948L195.024 320.41L193.18 318.607L195.726 318.24L196.868 315.931Z" fill="white"/>
<path d="M199.422 323.324L196.868 321.977L194.314 323.324L194.804 320.476L192.739 318.468L195.595 318.052L196.868 315.466L198.141 318.052L200.997 318.468L198.933 320.476L199.422 323.324ZM196.868 321.504L198.876 322.557L198.492 320.321L200.124 318.738L197.872 318.411L196.868 316.371L195.865 318.411L193.621 318.738L195.253 320.321L194.869 322.557L196.868 321.504Z" fill="#F2F2F2"/>
<path d="M264.205 318.011H222.801V320.867H264.205V318.011Z" fill="#E6E6E6"/>
<path d="M297.497 318.011H281.267V320.867H297.497V318.011Z" fill="#F2F2F2"/>
<path d="M183.38 366.155H117.137C109.213 338.362 102.84 317.195 102.84 317.195H165.648C165.648 317.195 173.408 338.158 183.38 366.155Z" fill="#242424"/>
<path d="M126.839 366.156H125.477C121.552 353.059 117.472 340.044 113.473 326.93C113.416 326.759 113.685 326.677 113.751 326.849C114.567 329.117 115.383 331.386 116.199 333.662C120.018 344.401 123.518 355.254 126.839 366.156Z" fill="#242424"/>
<path d="M164.212 317.22C164.138 318.534 160.638 330.553 158.826 348.538C158.165 355.172 157.415 361.414 156.615 366.155H68.7073C60.0087 339.276 72.9178 317.195 72.9178 317.195C72.9178 317.195 164.22 317.163 164.212 317.22Z" fill="#242424"/>
<path d="M146.643 346.988C146.953 351.5 147.06 356.021 147.002 360.533C146.859 362.404 146.843 364.282 146.953 366.155H145.428C145.06 363.291 145.428 359.725 145.428 356.91C145.379 345.25 143.893 333.719 142.098 322.214C142.097 322.162 142.113 322.112 142.145 322.071C142.177 322.03 142.222 322.002 142.273 321.991C142.323 321.981 142.376 321.988 142.422 322.012C142.467 322.037 142.503 322.076 142.523 322.124C144.746 330.248 146.127 338.58 146.643 346.988Z" fill="#999999"/>
<path d="M157.545 352.814C157.464 355.213 156.811 361.602 154.926 366.156H153.612C156.166 359.929 156.019 347.779 155.832 344.94C155.301 336.616 154.657 328.799 153.245 320.035C153.196 319.758 153.653 319.741 153.71 319.994C156.199 330.57 157.888 341.961 157.545 352.814Z" fill="#999999"/>
<path d="M74.1338 328.889C71.5879 339.897 72.8282 351.737 75.2599 362.63C75.5128 363.814 75.7984 364.989 76.0759 366.155H74.7539C71.1554 350.97 70.0538 335.253 76.3859 320.525C76.4675 320.345 76.7368 320.525 76.6634 320.68C75.6129 323.348 74.7672 326.092 74.1338 328.889Z" fill="#242424"/>
<path d="M220.075 156.672L205.632 202.645C205.053 203.984 205.681 205.142 207.019 205.216L231.075 206.587C231.811 206.576 232.53 206.355 233.145 205.95C233.761 205.545 234.249 204.974 234.551 204.302L248.962 158.361C249.541 157.015 248.913 155.864 247.574 155.791L223.584 154.42C222.845 154.422 222.123 154.635 221.501 155.034C220.879 155.433 220.385 156.001 220.075 156.672Z" fill="#242424"/>
<path d="M222.932 156.843L208.521 202.784C207.942 204.122 208.57 205.273 209.916 205.355L233.964 206.725C234.701 206.713 235.42 206.492 236.037 206.087C236.653 205.683 237.143 205.112 237.448 204.441L251.851 158.492C252.43 157.153 251.81 156.044 250.463 155.929L226.408 154.55C225.671 154.565 224.953 154.788 224.338 155.194C223.723 155.6 223.235 156.172 222.932 156.843Z" fill="#419FD9"/>
<path d="M229.402 159.348C229.37 159.752 229.219 160.138 228.968 160.456C228.717 160.774 228.377 161.01 227.991 161.135C227.606 161.26 227.192 161.268 226.802 161.157C226.412 161.047 226.064 160.823 225.801 160.515C225.538 160.206 225.373 159.827 225.326 159.424C225.279 159.022 225.352 158.615 225.537 158.254C225.721 157.893 226.009 157.595 226.363 157.398C226.717 157.2 227.121 157.113 227.525 157.145C228.066 157.189 228.567 157.445 228.919 157.859C229.271 158.272 229.445 158.807 229.402 159.348Z" fill="#242424"/>
<path d="M138.5 222.858C150.193 252.731 178.255 292.373 190.887 293.368C196.892 293.85 207.533 295.996 215.881 289.606C234.094 275.669 250.389 247.778 254.412 231.466C255.848 225.665 228.121 211.067 223.584 215.563C212.976 226.105 200.042 247.313 198.288 247.068C191.858 246.154 167.949 223.404 151.278 207.419C131.041 187.998 133.824 210.952 138.5 222.858Z" fill="#EB9481"/>
<path d="M257.122 201.177C254.886 189.051 252.454 186.285 255.996 175.065C258.321 167.721 254.617 163.045 248.913 168.708C239.578 177.961 239.178 194.208 240.663 199.879L257.122 201.177Z" fill="#EB9481"/>
<path d="M252.682 236.493C252.682 236.493 259.096 220.23 257.995 207.117C257.228 198.027 253.36 178.426 228.823 166.594C223.005 163.787 212.723 163.918 220.565 171.956C226.13 177.668 231.393 179.602 234.029 183.51C234.029 183.51 220.973 185.224 218.378 191.164C216.124 196.359 214.24 201.706 212.739 207.166C213.675 207.671 214.643 208.115 215.636 208.496C215.636 208.496 213.392 214.135 217.121 222.588L252.682 236.493Z" fill="#EB9481"/>
<path d="M255.882 198.516C252.446 195.187 245.045 188.259 237.016 184.693C228.105 180.736 209.859 175.513 207.003 182.123C204.914 186.97 211.703 189.581 211.703 189.581C211.703 189.581 203.706 189.01 202.776 193.8C201.96 198.166 207.297 199.871 207.297 199.871C207.297 199.871 202.401 200.361 202.401 204.726C202.401 209.973 212.674 208.088 217.26 213.417C218.272 214.608 255.882 198.516 255.882 198.516Z" fill="#EB9481"/>
<path d="M234.404 194.812C230.659 192.209 220.639 188.488 211.867 189.459C211.663 189.459 211.573 189.638 211.76 189.655C219.482 190.481 227.074 192.24 234.372 194.893C234.421 194.918 234.445 194.836 234.404 194.812Z" fill="#242424"/>
<path d="M230.112 203.698C226.652 201.78 216.158 198.41 207.264 199.691C207.068 199.691 206.987 199.887 207.174 199.904C214.912 200.327 222.578 201.627 230.022 203.78C230.033 203.792 230.048 203.799 230.064 203.799C230.08 203.8 230.096 203.795 230.108 203.784C230.12 203.773 230.127 203.758 230.128 203.742C230.129 203.726 230.123 203.71 230.112 203.698Z" fill="#242424"/>
<path d="M174.999 225.289L170.544 230.7L169.622 231.826L151.776 253.384C151.776 253.384 135.627 227.011 132.363 212.013C130.413 203.037 131.817 197.692 135.742 196.721C136.034 196.653 136.331 196.609 136.631 196.591C139.169 196.37 142.58 197.709 146.66 200.72C158.149 209.206 174.999 225.289 174.999 225.289Z" fill="#419FD9"/>
<path d="M174.004 224.4C173.592 225.752 173.088 227.075 172.494 228.358L174.942 225.42C174.948 225.385 174.948 225.349 174.942 225.314C174.869 225.167 174.534 224.849 174.004 224.4ZM146.594 200.736C145.009 201.744 143.556 202.948 142.27 204.318C138.361 208.409 136.175 213.846 136.166 219.504C136.178 221.023 136.276 222.541 136.46 224.049C136.862 224.979 137.27 225.91 137.684 226.84C137.61 226.236 137.529 225.64 137.447 225.028C136.878 221.771 136.834 218.443 137.317 215.171C137.832 212.592 138.814 210.128 140.213 207.9C141.938 205.117 144.236 202.733 146.954 200.907C146.847 200.842 146.758 200.769 146.66 200.695L146.594 200.736Z" fill="white"/>
<path d="M148.308 244.416C149.271 242.148 159.186 228.529 167.444 219.879C167.468 219.851 167.503 219.834 167.541 219.832C167.578 219.83 167.615 219.842 167.643 219.867C167.672 219.892 167.689 219.927 167.691 219.965C167.693 220.002 167.681 220.039 167.656 220.067C166.84 221.128 150.52 243.005 148.594 244.661C148.439 244.8 148.243 244.58 148.308 244.416Z" fill="#242424"/>
<path opacity="0.05" d="M163.2 239.602L151.776 253.376C151.776 253.376 135.627 227.011 132.363 212.013C130.111 201.666 132.306 196.166 137.667 196.583L163.2 239.602Z" fill="#242424"/>
<path d="M166.464 320.843C164.18 323.291 67.5733 333.613 67.0184 332.944C65.5414 331.141 74.4277 233.507 114.004 197.741C120.98 191.442 133.302 193.237 139.014 196.476C141.862 198.108 146.823 211.589 151.678 227.346C155.35 239.382 167.868 319.26 166.464 320.843Z" fill="#419FD9"/>
<path d="M166.464 320.843C165.958 321.39 160.752 322.336 152.976 323.462L152.094 323.585C148.161 324.148 143.624 324.752 138.728 325.364L137.667 325.502C123.689 327.257 107.018 329.134 93.375 330.57L92.9343 330.611C78.2463 332.161 67.2058 333.173 67.0182 332.944C66.8305 332.716 66.8305 328.644 67.4751 322.23C67.4751 321.961 67.5322 321.675 67.5567 321.414C69.099 306.588 73.3748 279.651 82.0734 253.596C82.2121 253.172 82.359 252.781 82.4977 252.332C85.1006 244.564 88.1716 236.961 91.694 229.565C91.8001 229.345 91.898 229.133 92.0122 228.912C95.4603 221.657 99.6148 214.758 104.415 208.317C104.579 208.104 104.734 207.9 104.905 207.705C107.633 204.123 110.678 200.794 114.003 197.758C114.936 196.926 115.969 196.216 117.08 195.644C117.333 195.514 117.594 195.391 117.855 195.277C121.334 193.816 125.126 193.255 128.879 193.645L129.809 193.743C133.027 194.058 136.153 194.994 139.014 196.501C140.132 197.146 141.584 199.61 143.224 203.355C143.306 203.519 143.379 203.698 143.453 203.878C145.901 209.59 148.83 218.109 151.678 227.37C152.682 230.634 154.355 238.957 156.207 249.337L156.329 250.039C156.974 253.621 157.635 257.456 158.296 261.406C158.394 261.969 158.492 262.524 158.582 263.087C159.928 271.149 161.274 279.619 162.474 287.518C162.515 287.836 162.564 288.162 162.621 288.472C163.633 295.229 164.53 301.528 165.224 306.743C165.273 307.159 165.322 307.559 165.379 307.967C166.301 315.457 166.774 320.46 166.464 320.843Z" fill="#419FD9"/>
<path d="M135.032 311.377C133.386 309.076 131.29 307.133 128.871 305.665C126.273 304.155 123.408 303.161 120.434 302.736C117.317 302.197 114.044 301.92 111.123 300.565C108.332 299.301 106.374 297.04 104.424 294.764C103.91 294.168 103.379 293.572 102.841 293.001C103.453 292.585 104.073 292.185 104.709 291.769C108.373 289.517 112.421 287.82 115.807 285.143C118.872 282.767 121.017 279.402 121.878 275.62C122.701 271.894 122.417 268.008 121.062 264.441C119.623 260.842 117.251 257.69 114.191 255.31C111.054 252.908 107.467 251.159 103.642 250.166C99.8171 249.174 95.8321 248.959 91.9226 249.533C88.6515 249.969 85.4655 250.899 82.4733 252.291C82.3346 252.715 82.1877 253.107 82.049 253.556C83.4995 252.825 85.0056 252.211 86.5533 251.72C94.0188 249.267 102.148 249.838 109.197 253.311C112.597 255.002 115.539 257.487 117.773 260.557C119.923 263.593 121.135 267.194 121.258 270.912C121.428 274.587 120.375 278.214 118.263 281.226C115.815 284.547 112.086 286.555 108.545 288.472C106.358 289.664 104.236 290.92 102.172 292.316C100.978 291.078 99.5454 290.095 97.961 289.427C95.3287 288.466 92.4446 288.449 89.801 289.378C84.0482 291.312 80.6292 296.885 79.9682 302.736C79.6459 305.999 80.0242 309.293 81.078 312.397C78.6798 314.855 75.9981 317.019 73.0893 318.844C71.3429 319.923 69.4677 320.779 67.5079 321.39C67.5079 321.667 67.4507 321.953 67.4263 322.206C67.7771 322.108 68.128 322.002 68.4708 321.879C73.4728 320.19 77.6344 316.943 81.3962 313.295C82.4435 316.127 83.8125 318.829 85.4762 321.349C87.6301 324.673 90.1182 327.768 92.9018 330.586L93.3424 330.545C91.7332 328.846 90.2264 327.054 88.83 325.176C85.9047 321.422 83.5838 317.235 81.9511 312.765C83.3464 311.377 84.6928 309.933 86.0311 308.505C88.6096 305.698 91.1474 302.793 93.8973 300.174C96.461 297.709 99.226 295.463 102.163 293.458C103.918 295.327 105.427 297.44 107.337 299.17C109.59 301.042 112.298 302.284 115.187 302.769C118.181 303.397 121.266 303.65 124.212 304.556C126.835 305.383 129.244 306.776 131.27 308.636C133.312 310.454 134.949 312.682 136.074 315.175C137.199 317.667 137.786 320.369 137.798 323.103C137.793 323.909 137.73 324.714 137.61 325.511L138.671 325.372C139.258 320.416 137.959 315.42 135.032 311.377ZM97.6672 295.62C94.5744 298.168 91.675 300.942 88.9931 303.919C86.5451 306.547 84.1869 309.297 81.6491 311.867C81.2019 310.417 80.8905 308.928 80.7189 307.42C80.0824 301.708 81.8205 295.18 86.7328 291.769C88.9767 290.189 91.6772 289.389 94.4195 289.492C97.1071 289.678 99.6279 290.863 101.486 292.813C100.189 293.703 98.9076 294.625 97.6672 295.62ZM162.433 287.46C159.61 289.721 156.925 292.185 153.767 293.988C149.222 296.583 142.972 297.962 138.834 293.842C137.111 292.169 136.072 289.913 135.922 287.516C135.771 285.119 136.518 282.751 138.018 280.875C139.65 278.591 141.666 276.673 143.249 274.347C144.547 272.403 145.68 270.353 146.635 268.219C148.663 268.828 150.834 268.75 152.813 267.999C155.227 267.029 157.24 265.268 158.525 263.005C158.435 262.442 158.337 261.887 158.239 261.324C157.599 262.578 156.774 263.727 155.791 264.735C154.884 265.7 153.773 266.451 152.539 266.932C151.306 267.413 149.98 267.613 148.659 267.517C148.125 267.463 147.596 267.368 147.076 267.232C147.198 266.979 147.313 266.718 147.427 266.416C149.72 261.177 151.637 255.636 155.244 251.1C155.564 250.691 155.905 250.299 156.264 249.924L156.142 249.223C152.747 252.748 150.56 257.334 148.626 261.765C147.868 263.503 147.125 265.249 146.317 266.979C144.506 266.333 142.865 265.284 141.519 263.911C137.088 259.398 136.754 252.43 137.211 246.489C137.504 242.866 138.027 239.259 138.206 235.636C138.245 232.059 137.972 228.485 137.39 224.955C136.821 221.697 136.777 218.369 137.26 215.098C137.775 212.518 138.757 210.054 140.156 207.827C141.059 206.346 142.132 204.977 143.355 203.747C143.282 203.568 143.208 203.388 143.127 203.225C142.817 203.519 142.515 203.82 142.213 204.139C138.282 208.283 136.114 213.792 136.166 219.504C136.166 223.225 136.909 226.889 137.194 230.593C137.389 234.41 137.205 238.237 136.648 242.017C135.889 248.619 135.211 255.889 138.655 261.895C140.28 264.72 142.84 266.89 145.893 268.032C145.509 268.848 145.118 269.664 144.693 270.414C143.943 271.808 143.103 273.152 142.18 274.437C141.307 275.628 140.328 276.738 139.365 277.856C137.594 279.921 135.791 282.173 135.285 284.898C134.85 287.239 135.212 289.658 136.313 291.769C137.376 293.91 139.158 295.609 141.348 296.567C143.999 297.589 146.92 297.667 149.622 296.787C154.73 295.294 158.598 291.696 162.621 288.448C162.523 288.138 162.474 287.811 162.433 287.493V287.46ZM165.338 307.909C162.768 305.869 160.026 303.829 156.664 303.56C155.021 303.371 153.364 303.78 151.997 304.711C150.746 305.655 149.815 306.959 149.328 308.448C148.215 311.728 148.345 315.303 149.695 318.493C150.474 320.345 151.58 322.042 152.959 323.503L152.078 323.626C151.162 322.634 150.365 321.539 149.704 320.362C148.767 318.682 148.145 316.846 147.868 314.943C147.362 311.639 147.868 307.918 150.038 305.266C152.396 302.393 156.24 302.1 159.545 303.307C161.603 304.139 163.515 305.296 165.208 306.734C165.232 307.134 165.281 307.542 165.338 307.942V307.909ZM128.928 194.975C129.222 194.567 129.491 194.159 129.744 193.718L128.814 193.62C126.92 196.526 124.67 199.183 122.115 201.528L121.609 202.009C121.094 200.205 120.287 198.499 119.218 196.958C118.787 196.356 118.309 195.788 117.79 195.261C117.529 195.375 117.268 195.497 117.015 195.628C118.725 197.367 119.992 199.491 120.711 201.821C120.793 202.091 120.866 202.36 120.94 202.637C118.729 204.828 116.142 206.603 113.302 207.876C110.625 208.961 107.361 209.182 104.84 207.696C104.669 207.892 104.513 208.096 104.35 208.308C106.437 209.506 108.894 209.887 111.245 209.377C114.991 208.668 118.19 206.195 120.989 203.739L121.176 203.576C122.351 208.619 121.911 213.939 122.702 219.08C123.608 224.93 126.415 230.846 124.971 236.836C124.496 239.184 123.217 241.293 121.356 242.801C120.235 243.567 118.946 244.051 117.598 244.213C116.25 244.375 114.882 244.21 113.612 243.731C107.835 241.879 104.465 236.387 99.6828 233.009C97.2313 231.42 94.6424 230.055 91.9471 228.929C91.8328 229.149 91.7349 229.361 91.6288 229.582C93.2608 230.357 94.8928 231.083 96.378 231.907C97.5464 232.524 98.665 233.23 99.7235 234.021C100.961 234.993 102.138 236.039 103.249 237.154C105.46 239.308 107.631 241.601 110.323 243.176C112.771 244.604 115.701 245.51 118.541 244.963C119.759 244.694 120.906 244.169 121.906 243.424C122.906 242.678 123.736 241.729 124.342 240.638C125.585 238.433 126.227 235.94 126.203 233.409C126.203 230.145 125.313 226.881 124.522 223.723C124.075 222.043 123.718 220.341 123.453 218.623C123.241 217.105 123.118 215.587 123.029 214.061C122.937 211.039 122.687 208.024 122.278 205.028C122.164 204.335 122.025 203.649 121.862 202.964C124.508 200.573 126.878 197.893 128.928 194.975Z" fill="white"/>
<path d="M104.603 211.344C88.6995 244.449 67.4101 326.718 64.2848 338.811C62.155 347.02 105.02 355.335 106.154 349.631C107.459 343.103 123.853 246.815 122.221 212.135C121.331 193.155 110.103 199.92 104.603 211.344Z" fill="#EB9481"/>
<path d="M106.684 345.837C106.178 352.071 102.604 364.752 99.601 366.816C96.5982 368.881 80.1231 369.338 71.857 369.779C63.591 370.219 61.8121 368.016 61.7958 365.136C61.7794 362.255 79.1521 360.819 79.1521 360.819C79.1521 360.819 56.3041 368.693 50.5186 370.08C44.7332 371.468 31.4732 375.572 29.3026 370.839C28.2582 368.701 31.8241 366.302 31.8241 366.302C31.8241 366.302 26.2671 368.244 25.2226 365.486C24.0313 362.345 28.4295 360.354 28.4295 360.354C28.4295 360.354 24.937 361.251 24.7249 358.648C24.2353 352.847 46.153 348.856 46.153 348.856C46.153 348.856 29.6862 357.971 28.8946 353.255C27.8012 346.727 62.0487 337.702 65.5004 334.65C68.0092 332.326 70.3362 329.814 72.4609 327.134L106.684 345.837Z" fill="#EB9481"/>
<path d="M62.0163 366.572C61.9374 366.169 61.957 365.753 62.0735 365.359C62.19 364.966 62.4 364.606 62.6854 364.311C63.2521 363.735 63.9113 363.258 64.6357 362.9C66.1305 362.162 67.6902 361.564 69.295 361.113C72.5182 360.109 75.823 359.35 79.087 358.314C75.6396 358.44 72.2226 359.007 68.9197 360.003C67.234 360.482 65.6243 361.196 64.1379 362.124C63.3692 362.601 62.7079 363.231 62.1958 363.977C61.9455 364.357 61.7975 364.796 61.7661 365.251C61.7346 365.705 61.8208 366.16 62.0163 366.572Z" fill="#242424"/>
<path d="M31.8242 366.302C34.1825 365.592 36.4999 364.793 38.8092 363.993C41.1185 363.193 43.4196 362.361 45.7207 361.545L52.5996 358.983C54.8925 358.167 57.1773 357.286 59.4948 356.461C57.0668 356.859 54.6679 357.418 52.314 358.134C49.9476 358.803 47.6301 359.619 45.3209 360.452C43.0116 361.284 40.7349 362.198 38.4909 363.185C36.2469 364.173 34.0029 365.144 31.8242 366.302Z" fill="#242424"/>
<path d="M53.587 350.937C51.3453 351.202 49.1255 351.627 46.9447 352.21C44.756 352.772 42.5987 353.451 40.482 354.242C38.3621 355.022 36.2887 355.924 34.2722 356.943C32.2461 357.939 30.2936 359.079 28.4297 360.354C30.5268 359.538 32.5586 358.575 34.6394 357.759C36.7202 356.943 38.7929 356.127 40.89 355.311C42.9871 354.495 45.0924 353.785 47.1977 353.042C49.303 352.3 51.449 351.639 53.587 350.937Z" fill="#242424"/>
<path d="M49.8824 345.576C46.2632 346.047 42.7214 346.99 39.3478 348.383C35.9449 349.709 32.732 351.479 29.7925 353.646C33.1626 352.243 36.4347 350.782 39.7803 349.468C43.1259 348.154 46.5123 346.873 49.8824 345.576Z" fill="#242424"/>
<path d="M123.045 249.378L84.8398 249.565C84.8398 249.565 95.2112 218.859 105.085 206.171C114.958 193.482 122.882 195.155 123.763 210.087C124.644 225.02 123.045 249.378 123.045 249.378Z" fill="#419FD9"/>
<path d="M123.763 210.087C123.812 210.765 123.844 211.475 123.869 212.184C123.869 212.503 123.869 212.821 123.918 213.147C124.456 228.105 123.053 249.378 123.053 249.378L112.673 249.435H111.637L84.8477 249.582C84.8477 249.582 89.2459 236.526 95.0232 223.976C95.219 223.56 95.4067 223.16 95.6189 222.719C98.5646 216.42 101.845 210.34 105.076 206.187C114.958 193.482 122.873 195.163 123.763 210.087Z" fill="#419FD9"/>
<path d="M92.0854 249.533L99.8456 249.484C97.2667 249.182 94.6604 249.198 92.0854 249.533ZM123.477 218.59C123.265 217.072 123.142 215.555 123.053 214.029C122.962 211.006 122.711 207.991 122.302 204.996C122.188 204.302 122.049 203.616 121.886 202.931C122.033 202.784 122.188 202.654 122.343 202.499C122.228 202.205 122.114 201.927 121.992 201.683C121.878 201.805 121.747 201.911 121.633 202.033C121.412 201.249 121.139 200.48 120.817 199.732C120.372 199.151 119.818 198.663 119.185 198.296C119.87 199.409 120.418 200.601 120.817 201.846C120.898 202.115 120.972 202.384 121.045 202.662C118.835 204.853 116.248 206.627 113.408 207.9C110.511 209.084 106.92 209.239 104.334 207.313C104.179 207.525 104.032 207.729 103.885 207.949C104.964 208.689 106.183 209.2 107.467 209.45C108.752 209.7 110.074 209.683 111.351 209.402C115.097 208.692 118.295 206.22 121.094 203.763L121.282 203.6C122.457 208.643 122.016 213.963 122.808 219.104C123.11 221.014 123.624 222.939 124.097 224.865C124.097 223.78 124.097 222.695 124.097 221.601C123.812 220.573 123.616 219.586 123.477 218.59ZM121.38 242.76C120.259 243.526 118.97 244.011 117.622 244.173C116.274 244.335 114.907 244.169 113.636 243.69C107.859 241.838 104.489 236.346 99.7069 232.968C97.4877 231.514 95.1417 230.263 92.6974 229.231C92.5914 229.451 92.5016 229.68 92.4037 229.908C93.7582 230.553 95.121 231.181 96.4021 231.875C97.5706 232.491 98.6892 233.198 99.7477 233.988C100.985 234.96 102.162 236.007 103.273 237.121C105.484 239.276 107.655 241.569 110.348 243.144C112.796 244.572 115.725 245.477 118.565 244.931C120.501 244.521 122.233 243.447 123.461 241.895C123.461 241.414 123.51 240.908 123.526 240.385C122.969 241.307 122.24 242.113 121.38 242.76Z" fill="white"/>
<path d="M89.7602 240.72C92.2082 239.969 109.842 238.802 122.343 239.635C122.382 239.635 122.419 239.65 122.447 239.678C122.474 239.705 122.49 239.743 122.49 239.782C122.49 239.821 122.474 239.858 122.447 239.885C122.419 239.913 122.382 239.928 122.343 239.928C120.964 240.01 92.3714 241.56 89.7602 241.12C89.5072 241.112 89.548 240.81 89.7602 240.72Z" fill="#242424"/>
<path d="M125.468 226.22C125.468 226.194 125.458 226.169 125.44 226.15C125.421 226.132 125.396 226.122 125.37 226.122C125.344 226.122 125.319 226.132 125.301 226.15C125.283 226.169 125.272 226.194 125.272 226.22C124.923 227.519 124.651 228.838 124.456 230.169C124.399 230.471 124.358 230.781 124.301 231.083C124.195 227.819 124.04 224.645 123.869 221.446C123.869 221.299 123.624 221.299 123.632 221.446C123.73 232.536 123.436 242.662 122.759 249.076L119.446 249.353C119.4 249.363 119.359 249.388 119.329 249.424C119.299 249.461 119.283 249.506 119.283 249.553C119.283 249.6 119.299 249.646 119.329 249.682C119.359 249.719 119.4 249.744 119.446 249.753L123.657 249.9C123.836 249.9 124.538 240.663 124.367 233.384C124.595 232.332 124.84 231.287 125.011 230.226C125.266 228.904 125.418 227.565 125.468 226.22Z" fill="#242424"/>
<path d="M90.0047 249.574C88.283 249.68 86.5612 249.769 84.8476 249.818H84.5049L84.611 249.484C85.2801 247.379 85.9655 245.281 86.7162 243.209C87.467 241.136 88.2258 239.055 89.0418 237.007C89.8578 234.959 90.6738 232.927 91.6286 230.903C92.5833 228.88 93.4972 226.897 94.5662 224.963L92.1182 231.132L89.7681 237.301L87.418 243.478L85.0761 249.696L84.8476 249.37C86.5612 249.378 88.283 249.467 90.0047 249.574Z" fill="#242424"/>
<path d="M136.664 213.392C130.854 215.31 119.887 207.141 115.227 200.157C114.909 199.675 115.227 179.373 114.901 175.35C114.828 174.534 140.744 179.283 140.744 179.283C140.744 179.283 138.989 187.949 139.642 194.967C139.707 195.554 142.278 211.54 136.664 213.392Z" fill="#EB9481"/>
<path d="M140.752 179.275C140.752 179.398 140.629 179.903 140.499 180.719C140.27 182.107 139.928 184.351 139.724 186.897C139.472 189.572 139.453 192.264 139.667 194.942C139.675 195.129 139.697 195.314 139.732 195.497V195.587C139.789 195.913 139.838 196.354 139.895 196.876C139.089 197.057 138.271 197.174 137.447 197.227C123.649 198.108 117.545 181.617 115.701 175.236L116.141 175.277C116.819 175.326 117.716 175.432 118.793 175.571L119.609 175.685C121.331 175.93 123.387 176.256 125.525 176.599C126.227 176.713 126.929 176.819 127.647 176.95C129.181 177.219 130.731 177.48 132.168 177.717C132.788 177.839 133.4 177.945 133.971 178.043C134.542 178.141 135.236 178.263 135.815 178.361L136.631 178.508L137.031 178.59L139.177 178.973L140.205 179.153C140.351 179.177 140.496 179.209 140.638 179.251C140.678 179.251 140.695 179.251 140.711 179.251L140.752 179.275Z" fill="#242424"/>
<path d="M109.94 145.77C107.492 154.852 113.09 180.662 119.675 186.244C129.238 194.33 144.457 194.632 151.238 183.257C157.766 172.233 149.908 138.712 142.588 133.685C131.801 126.284 113.563 132.355 109.94 145.77Z" fill="#EB9481"/>
<path d="M113.685 171.034C118.296 169.548 116.256 157.553 116.256 157.553C116.256 157.553 121.756 154.289 121.682 143.061C121.682 143.061 127.623 153.073 146.839 147.182C146.822 143.596 145.681 140.105 143.575 137.202C146.12 140.236 148.412 143.473 150.43 146.88C150.43 146.88 152.2 129.744 137.235 126.48C131.278 125.183 122.931 127.157 111.245 135.782C111.245 135.782 107.418 128.544 106.121 129.817C104.824 131.09 108.952 137.749 108.952 137.749C108.952 137.749 103.012 137.015 102.278 138.361C101.641 139.52 107.32 139.993 107.32 139.993C107.32 139.993 99.1605 144.277 102.424 153.947C105.354 162.792 111.4 171.776 113.685 171.034Z" fill="#242424"/>
<path d="M108.855 139.536C106.357 139.898 104.077 141.16 102.445 143.085C100.813 145.01 99.941 147.466 99.9929 149.989C100.083 152.869 101.331 155.774 102.702 158.271C104.246 160.922 106.125 163.363 108.292 165.534C108.406 165.656 108.585 165.452 108.463 165.33C106.551 163.267 104.968 160.922 103.771 158.377C102.49 156.005 101.597 153.443 101.127 150.789C100.813 148.317 101.438 145.818 102.88 143.787C104.322 141.755 106.475 140.34 108.912 139.822C108.946 139.81 108.974 139.787 108.992 139.756C109.01 139.725 109.015 139.689 109.008 139.654C109.002 139.619 108.982 139.588 108.954 139.566C108.925 139.544 108.89 139.534 108.855 139.536Z" fill="#242424"/>
<path d="M125.525 125.754C122.315 127.107 119.298 128.876 116.549 131.017C113.839 132.925 111.476 135.285 109.564 137.994C109.475 138.132 109.654 138.296 109.768 138.165C114.052 133.571 119.634 130.095 125.272 127.353C130.519 124.783 137.072 123.616 142.098 127.353C142.106 127.363 142.115 127.372 142.126 127.378C142.137 127.384 142.15 127.387 142.162 127.388C142.175 127.388 142.188 127.385 142.199 127.38C142.211 127.375 142.221 127.367 142.229 127.357C142.237 127.347 142.242 127.336 142.245 127.323C142.247 127.311 142.247 127.298 142.244 127.286C142.241 127.273 142.235 127.262 142.227 127.253C142.218 127.243 142.208 127.236 142.196 127.231C137.561 123.216 130.886 123.583 125.525 125.754Z" fill="#242424"/>
<path d="M116.5 166.913C116.5 166.913 110.495 158.598 106.708 160.752C102.922 162.906 107.524 175.016 112.029 176.615C112.592 176.86 113.2 176.988 113.814 176.992C114.429 176.997 115.038 176.877 115.605 176.64C116.172 176.403 116.685 176.053 117.114 175.613C117.543 175.173 117.878 174.65 118.1 174.077L116.5 166.913Z" fill="#EB9481"/>
<path d="M108.112 164.187C108.038 164.187 108.03 164.285 108.112 164.31C111.27 165.534 112.967 168.39 114.167 171.417C113.22 170.275 111.939 169.655 110.397 170.789C110.315 170.846 110.397 170.976 110.478 170.952C111.028 170.768 111.621 170.759 112.176 170.925C112.732 171.092 113.222 171.426 113.579 171.882C114.168 172.644 114.677 173.464 115.097 174.33C115.244 174.608 115.75 174.453 115.644 174.126C115.642 174.105 115.642 174.083 115.644 174.061C115.619 170.079 112.42 164.53 108.112 164.187Z" fill="#242424"/>
<path d="M136.852 160.589C136.852 160.532 136.737 160.695 136.746 160.768C137.113 162.482 137.235 164.514 135.775 165.362C135.766 165.366 135.758 165.372 135.753 165.38C135.748 165.388 135.745 165.398 135.745 165.407C135.745 165.417 135.748 165.426 135.753 165.434C135.758 165.442 135.766 165.448 135.775 165.452C137.659 164.832 137.472 162.164 136.852 160.589Z" fill="#242424"/>
<path d="M134.991 159.063C132.184 159.348 132.951 164.954 135.554 164.693C138.157 164.432 137.349 158.826 134.991 159.063Z" fill="#242424"/>
<path d="M146.733 158.565C146.733 158.5 146.88 158.63 146.888 158.704C147.076 160.442 147.582 162.408 149.23 162.784C149.279 162.784 149.287 162.882 149.23 162.882C147.272 162.865 146.627 160.246 146.733 158.565Z" fill="#242424"/>
<path d="M148.039 156.541C150.805 155.946 151.792 161.519 149.23 162.066C146.668 162.612 145.721 157.039 148.039 156.541Z" fill="#242424"/>
<path d="M132.363 157.488C133.07 157.169 133.759 156.812 134.428 156.419C135.209 156.149 135.878 155.627 136.329 154.934C136.428 154.69 136.444 154.421 136.374 154.167C136.305 153.914 136.154 153.69 135.946 153.53C135.48 153.279 134.955 153.156 134.426 153.175C133.896 153.193 133.382 153.353 132.934 153.636C131.944 154.069 131.15 154.854 130.707 155.84C130.62 156.071 130.601 156.322 130.654 156.563C130.706 156.804 130.827 157.025 131.002 157.199C131.177 157.374 131.399 157.493 131.64 157.545C131.882 157.596 132.133 157.576 132.363 157.488Z" fill="#242424"/>
<path d="M149.394 153.473C148.619 153.422 147.849 153.329 147.084 153.196C146.258 153.212 145.45 152.957 144.783 152.47C144.604 152.276 144.493 152.029 144.47 151.766C144.446 151.503 144.51 151.24 144.653 151.017C144.999 150.619 145.446 150.32 145.946 150.152C146.447 149.984 146.984 149.953 147.5 150.062C148.584 150.116 149.607 150.576 150.365 151.352C150.53 151.536 150.637 151.765 150.675 152.01C150.712 152.255 150.676 152.505 150.573 152.73C150.47 152.955 150.304 153.146 150.094 153.278C149.885 153.41 149.641 153.478 149.394 153.473Z" fill="#242424"/>
<path d="M137.178 176.036C137.651 176.387 138.141 176.852 138.81 176.852C139.453 176.752 140.068 176.515 140.613 176.158C140.67 176.158 140.735 176.158 140.703 176.24C140.501 176.614 140.202 176.928 139.837 177.148C139.473 177.367 139.056 177.485 138.63 177.488C138.263 177.444 137.918 177.291 137.637 177.05C137.357 176.809 137.154 176.49 137.055 176.134C136.982 176.036 137.088 175.987 137.178 176.036Z" fill="#242424"/>
<path d="M138.288 170.585C138.823 171.211 139.482 171.72 140.224 172.08C140.965 172.439 141.773 172.642 142.596 172.674C143.315 172.71 144.034 172.644 144.734 172.478C144.87 172.455 145.003 172.422 145.134 172.38L145.509 172.266C145.599 172.236 145.676 172.177 145.729 172.099C145.782 172.021 145.808 171.928 145.803 171.833L145.762 171.654V171.499C145.607 170.16 145.199 168.145 145.199 168.145C145.722 168.324 148.365 169.1 148.235 168.406C147.092 162.694 145.828 156.297 143.486 150.829C143.474 150.787 143.446 150.751 143.407 150.73C143.369 150.709 143.324 150.703 143.282 150.715C143.24 150.727 143.204 150.755 143.182 150.794C143.161 150.832 143.156 150.877 143.167 150.919C144.049 156.476 145.893 161.837 146.864 167.402C145.923 167.108 144.945 166.951 143.959 166.937C143.78 167.019 144.816 170.821 144.84 171.425C144.842 171.447 144.842 171.469 144.84 171.491C142.637 172.086 140.85 171.637 138.459 170.43C138.288 170.324 138.165 170.462 138.288 170.585Z" fill="#242424"/>
<path d="M143.853 171.907C143.252 172.962 142.389 173.844 141.348 174.469C140.77 174.794 140.105 174.928 139.446 174.852C138.01 174.681 137.814 173.416 137.904 172.29C137.965 171.692 138.096 171.103 138.296 170.536C139.955 171.574 141.902 172.054 143.853 171.907Z" fill="#242424"/>
<path d="M141.348 174.469C140.77 174.794 140.105 174.928 139.446 174.852C138.01 174.681 137.814 173.416 137.904 172.29C139.414 172.241 141.021 173.041 141.348 174.469Z" fill="#EB9481"/>
</svg>
