<svg width="408" height="408" viewBox="0 0 408 408" fill="none" xmlns="http://www.w3.org/2000/svg">
<path d="M71.4737 305.796L60.7678 306L55.3332 306.09C53.5135 306.09 51.6857 306.09 49.866 306.131H49.507V305.763L49.458 296.632V296.224H49.866L60.6698 296.273C64.2766 296.273 67.8751 296.363 71.4737 296.404H71.7022V296.624C71.7022 298.175 71.6287 299.709 71.5961 301.235L71.4737 305.796ZM71.4737 305.796L71.3594 301.177C71.3594 299.66 71.2697 298.158 71.2534 296.665L71.4737 296.885C67.8751 296.926 64.2766 297.016 60.6698 297.016L49.866 297.073L50.274 296.665V305.796L49.9068 305.429C51.6857 305.429 53.4646 305.429 55.2516 305.478L60.6209 305.568L71.4737 305.796Z" fill="#2E3740"/>
<path d="M59.421 317.31L48.715 317.538L43.2805 317.628C41.4608 317.628 39.633 317.628 37.8133 317.669H37.4542V317.302L37.4053 308.171V307.754H37.8133L48.6171 307.803C52.2157 307.803 55.8224 307.893 59.421 307.934H59.6494V308.154C59.6494 309.705 59.5842 311.239 59.5434 312.765L59.421 317.31ZM59.421 317.31L59.3067 312.691C59.2659 311.173 59.217 309.672 59.2006 308.179L59.421 308.399C55.8224 308.44 52.2157 308.53 48.6171 308.53L37.8133 308.587L38.2213 308.179L38.1805 317.31L37.8133 316.943C39.5922 316.943 41.371 316.943 43.1581 316.992L48.5274 317.081L59.421 317.31Z" fill="#2E3740"/>
<path d="M83.3628 317.31L72.6242 317.538L67.1897 317.628C65.37 317.628 63.5421 317.628 61.7225 317.669H61.3634V317.302L61.3145 308.171V307.754H61.7225L72.5263 307.803C76.133 307.803 79.7316 307.893 83.3301 307.934H83.5586V308.154C83.5586 309.705 83.4852 311.239 83.4444 312.765L83.3628 317.31ZM83.3628 317.31L83.2322 312.691C83.2322 311.173 83.1425 309.672 83.1261 308.179L83.3465 308.399C79.7479 308.44 76.1493 308.53 72.5426 308.53L61.7388 308.587L62.1468 308.179L62.106 317.31L61.7388 316.943C63.5177 316.943 65.2965 316.943 67.0836 316.992L72.4529 317.081L83.3628 317.31Z" fill="#2E3740"/>
<path d="M100.197 174.787L89.4825 175.008L84.0479 175.105C82.2364 175.105 80.4086 175.105 78.5889 175.105H78.2217V174.738V165.615V165.199H78.6297L89.4335 165.248C93.0321 165.248 96.6388 165.338 100.237 165.379H100.458V165.648C100.458 167.19 100.392 168.732 100.352 170.258L100.197 174.787ZM100.197 174.787L100.082 170.169C100.042 168.651 99.9844 167.149 99.9762 165.656L100.197 165.877C96.598 165.917 92.9913 166.007 89.3927 166.007L78.5889 166.056L78.9969 165.656L78.9479 174.779L78.5889 174.42C80.3678 174.42 82.1466 174.42 83.9255 174.461L89.2948 174.559L100.197 174.787Z" fill="#2E3740"/>
<path d="M88.1282 186.293L77.4141 186.521L71.9796 186.619C70.168 186.619 68.3402 186.619 66.5205 186.66H66.1533V186.293V177.17V176.754H66.5695L77.3733 176.803C80.9719 176.803 84.5704 176.892 88.1772 176.933H88.3975V177.154C88.3975 178.696 88.324 180.238 88.2914 181.764L88.1282 186.293ZM88.1282 186.293L88.0058 181.682C88.0058 180.165 87.916 178.663 87.8997 177.17L88.1282 177.39C84.5215 177.431 80.9229 177.521 77.3244 177.521L66.5205 177.57L66.9285 177.17L66.9122 186.293L66.5532 185.934C68.332 185.934 70.1028 185.934 71.8898 185.934L77.2591 186.032L88.1282 186.293Z" fill="#2E3740"/>
<path d="M370.187 211.842L359.473 212.07L354.038 212.16C352.226 212.16 350.399 212.16 348.579 212.201H348.212V211.833L348.171 202.702V202.294H348.579L359.383 202.343C362.981 202.343 366.588 202.433 370.187 202.474H370.407V202.694C370.407 204.245 370.342 205.779 370.301 207.305L370.187 211.842ZM370.187 211.842L370.072 207.223C370.072 205.705 369.974 204.204 369.966 202.711L370.187 202.931C366.588 202.972 362.981 203.061 359.383 203.061L348.579 203.119L348.987 202.711L348.938 211.842L348.579 211.474C350.358 211.474 352.137 211.474 353.916 211.523L359.285 211.613L370.187 211.842Z" fill="#2E3740"/>
<path d="M358.134 49.8904L347.42 50.1188L341.985 50.2086C340.173 50.2086 338.346 50.2086 336.526 50.2576H336.191V49.8904V40.7593V40.3513H336.608L347.411 40.4003C351.01 40.4003 354.609 40.4982 358.215 40.539H358.436V40.8001C358.436 42.3505 358.362 43.8928 358.329 45.4187L358.134 49.8904ZM358.134 49.8904L358.019 45.28C357.979 43.754 357.921 42.2526 357.905 40.7593L358.134 40.9796C354.527 41.0286 350.928 41.1102 347.33 41.1184L336.526 41.1673L336.934 40.7593L336.885 49.8904L336.526 49.5313C338.305 49.5313 340.076 49.5313 341.863 49.5313L347.232 49.6211L358.134 49.8904Z" fill="#2E3740"/>
<path d="M370.187 61.404L359.473 61.6325L354.038 61.7223C352.226 61.7223 350.399 61.7223 348.579 61.7712H348.212V61.404L348.171 52.273V51.865H348.579L359.383 51.9139C362.981 51.9139 366.588 52.0119 370.187 52.0527H370.407V52.273C370.407 53.8234 370.342 55.3656 370.301 56.8916L370.187 61.404ZM370.187 61.404L370.072 56.7936C370.072 55.2677 369.974 53.7663 369.966 52.273L370.187 52.4933C366.588 52.5423 362.981 52.6239 359.383 52.632L348.579 52.681L348.987 52.273L348.938 61.404L348.579 61.045C350.358 61.045 352.137 61.045 353.916 61.045L359.285 61.1347L370.187 61.404Z" fill="#2E3740"/>
<path d="M71.4737 49.8903L60.7678 50.1188L55.3332 50.2086C53.5135 50.2086 51.6857 50.2086 49.866 50.2575H49.507V49.8903L49.458 40.8001V40.3921H49.866L60.6698 40.4411C64.2766 40.4411 67.8751 40.539 71.4737 40.5798H71.7022V40.8001C71.7022 42.3505 71.6287 43.8927 71.5961 45.4187L71.4737 49.8903ZM71.4737 49.8903L71.3594 45.2799C71.3594 43.754 71.2697 42.2526 71.2534 40.7593L71.4737 40.9796C67.8751 41.0286 64.2766 41.1102 60.6698 41.1183L49.866 41.1673L50.274 40.7593V49.8903L49.9068 49.5313C51.6857 49.5313 53.4646 49.5313 55.2516 49.5313L60.6209 49.6211L71.4737 49.8903Z" fill="#2E3740"/>
<path d="M318.599 309.892L307.893 310.121L302.458 310.211C300.639 310.211 298.811 310.211 296.991 310.26H296.632V309.892L296.583 300.761V300.353H296.991L307.795 300.41C311.393 300.41 315 300.5 318.599 300.541H318.827V300.761C318.827 302.312 318.762 303.854 318.721 305.38L318.599 309.892ZM318.599 309.892L318.484 305.282C318.444 303.764 318.395 302.255 318.378 300.761L318.599 300.99C315 301.031 311.393 301.112 307.795 301.12L296.991 301.169L297.399 300.761V309.892L297.032 309.533C298.811 309.533 300.59 309.533 302.377 309.574L307.746 309.664L318.599 309.892Z" fill="#2E3740"/>
<path d="M354.144 214.167L358.632 206.921L356.412 205.55C356.095 205.352 355.839 205.069 355.673 204.733C355.507 204.397 355.438 204.022 355.474 203.649C355.499 203.222 355.499 202.795 355.474 202.368C355.464 201.994 355.557 201.624 355.745 201.3C355.932 200.976 356.206 200.71 356.535 200.532L358.828 199.3L354.821 191.76L352.512 193.025C352.181 193.198 351.809 193.277 351.436 193.253C351.063 193.228 350.704 193.101 350.399 192.886C350.05 192.642 349.688 192.418 349.313 192.217C348.982 192.039 348.706 191.772 348.518 191.446C348.329 191.121 348.234 190.749 348.244 190.373L348.326 187.77L339.807 187.5L339.733 190.12C339.717 190.495 339.597 190.858 339.387 191.17C339.177 191.481 338.884 191.727 338.542 191.882L337.979 192.168L337.44 192.478C337.121 192.672 336.754 192.774 336.38 192.774C336.006 192.774 335.639 192.672 335.319 192.478L333.091 191.091L328.595 198.337L330.815 199.716C331.134 199.913 331.391 200.196 331.557 200.532C331.723 200.868 331.791 201.244 331.753 201.617C331.753 202.042 331.704 202.433 331.712 202.89C331.722 203.263 331.629 203.632 331.444 203.956C331.258 204.28 330.987 204.546 330.66 204.726L328.358 205.958L332.389 213.474L334.682 212.233C335.015 212.06 335.389 211.982 335.763 212.006C336.137 212.03 336.497 212.157 336.804 212.372C337.15 212.615 337.51 212.839 337.881 213.041C338.213 213.217 338.488 213.483 338.677 213.807C338.866 214.131 338.961 214.502 338.95 214.877L338.868 217.488L347.388 217.758L347.469 215.138C347.484 214.765 347.603 214.403 347.812 214.093C348.021 213.784 348.312 213.538 348.652 213.384L349.215 213.098C349.403 213 349.583 212.894 349.762 212.788C350.083 212.592 350.451 212.488 350.827 212.488C351.203 212.488 351.571 212.592 351.892 212.788L354.144 214.167ZM346.931 208.79C345.713 209.443 344.329 209.721 342.953 209.588C341.578 209.454 340.273 208.916 339.204 208.041C338.134 207.166 337.348 205.993 336.946 204.671C336.543 203.349 336.541 201.937 336.941 200.614C337.341 199.292 338.124 198.117 339.192 197.24C340.259 196.362 341.563 195.821 342.938 195.684C344.313 195.548 345.698 195.823 346.917 196.474C348.136 197.124 349.135 198.122 349.787 199.341C350.219 200.15 350.488 201.037 350.577 201.95C350.666 202.863 350.574 203.785 350.307 204.663C350.039 205.541 349.601 206.357 349.017 207.065C348.434 207.773 347.716 208.359 346.906 208.79H346.931Z" fill="#232C36"/>
<path d="M70.3472 130.209L67.3688 125.036L65.7858 125.95C65.5566 126.08 65.2958 126.145 65.0322 126.136C64.7686 126.127 64.5126 126.046 64.2925 125.901C64.0477 125.737 63.7866 125.59 63.5254 125.452C63.2858 125.339 63.0824 125.162 62.9382 124.94C62.794 124.718 62.7148 124.46 62.7094 124.195V122.4H56.769V124.228C56.7636 124.492 56.6844 124.75 56.5402 124.972C56.396 125.195 56.1926 125.372 55.953 125.484C55.6918 125.623 55.4307 125.77 55.1859 125.933C54.9658 126.078 54.7098 126.16 54.4462 126.169C54.1826 126.177 53.9218 126.113 53.6926 125.982L52.1096 125.068L49.1312 130.242L50.7142 131.156C50.9354 131.286 51.1169 131.474 51.2391 131.7C51.3613 131.925 51.4196 132.18 51.4078 132.437C51.4078 132.584 51.4078 132.73 51.4078 132.877C51.4078 133.024 51.4078 133.171 51.4078 133.318C51.4239 133.58 51.3677 133.84 51.2453 134.072C51.123 134.304 50.9393 134.497 50.7142 134.632L49.123 135.554L52.1014 140.719L53.7334 139.805C53.9611 139.674 54.2206 139.61 54.483 139.618C54.7453 139.627 55 139.709 55.2186 139.854C55.4659 140.018 55.722 140.167 55.9856 140.303C56.2265 140.416 56.4307 140.595 56.575 140.818C56.7193 141.042 56.7978 141.302 56.8016 141.568V143.396H62.7666V141.568C62.7713 141.302 62.8502 141.043 62.9944 140.819C63.1386 140.596 63.3423 140.417 63.5826 140.303C63.8638 140.171 64.1363 140.021 64.3986 139.854C64.6171 139.709 64.8718 139.627 65.1342 139.618C65.3965 139.61 65.6561 139.674 65.8837 139.805L67.5157 140.719L70.4941 135.554L68.7642 134.64C68.5372 134.508 68.3519 134.315 68.2293 134.082C68.1067 133.85 68.0517 133.588 68.0706 133.326C68.0706 133.179 68.0706 133.032 68.0706 132.886C68.0706 132.739 68.0706 132.592 68.0706 132.445C68.0517 132.183 68.1067 131.921 68.2293 131.689C68.3519 131.456 68.5372 131.263 68.7642 131.131L70.3472 130.209ZM64.6352 132.877C64.6352 133.846 64.3481 134.792 63.8101 135.597C63.2721 136.403 62.5075 137.03 61.6128 137.401C60.7182 137.771 59.7338 137.868 58.784 137.679C57.8343 137.49 56.9619 137.024 56.2772 136.339C55.5925 135.655 55.1262 134.782 54.9373 133.833C54.7484 132.883 54.8453 131.898 55.2159 131.004C55.5865 130.109 56.214 129.344 57.0191 128.806C57.8243 128.268 58.7709 127.981 59.7392 127.981C60.3828 127.98 61.0204 128.106 61.6153 128.352C62.2103 128.597 62.751 128.958 63.2065 129.412C63.662 129.867 64.0233 130.407 64.2699 131.002C64.5165 131.596 64.6434 132.234 64.6434 132.877H64.6352Z" fill="#232C36"/>
<path d="M131.49 133.269C126.891 133.269 122.394 134.633 118.57 137.188C114.746 139.744 111.765 143.376 110.005 147.625C108.244 151.875 107.784 156.551 108.681 161.062C109.579 165.573 111.793 169.717 115.046 172.97C118.298 176.222 122.442 178.437 126.953 179.334C131.465 180.232 136.141 179.771 140.39 178.011C144.64 176.251 148.272 173.27 150.827 169.445C153.382 165.621 154.746 161.125 154.746 156.525C154.746 150.357 152.296 144.442 147.935 140.081C143.574 135.719 137.658 133.269 131.49 133.269ZM131.49 167.378C129.342 167.378 127.242 166.741 125.456 165.547C123.669 164.353 122.277 162.656 121.455 160.671C120.634 158.686 120.419 156.502 120.839 154.395C121.258 152.288 122.294 150.353 123.813 148.834C125.333 147.316 127.269 146.282 129.377 145.864C131.484 145.445 133.668 145.662 135.652 146.485C137.637 147.308 139.332 148.702 140.525 150.489C141.717 152.276 142.353 154.377 142.351 156.525C142.352 157.951 142.072 159.364 141.527 160.681C140.981 161.999 140.181 163.196 139.172 164.204C138.163 165.212 136.965 166.012 135.647 166.556C134.329 167.101 132.917 167.38 131.49 167.378Z" fill="#2E3740"/>
<path d="M135.962 134.232H127.026L127.516 127.908H135.472L135.962 134.232Z" fill="#2E3740"/>
<path d="M118.948 137.251L112.624 143.567L108.495 138.745L114.117 133.122L118.948 137.251Z" fill="#2E3740"/>
<path d="M109.042 151.409V160.352L102.718 159.854V151.906L109.042 151.409Z" fill="#2E3740"/>
<path d="M112.053 168.431L118.377 174.755L113.555 178.875L107.933 173.253L112.053 168.431Z" fill="#2E3740"/>
<path d="M126.219 178.329H135.162L134.664 184.661H126.717L126.219 178.329Z" fill="#2E3740"/>
<path d="M143.232 175.318L149.556 168.994L153.685 173.824L148.063 179.447L143.232 175.318Z" fill="#2E3740"/>
<path d="M153.139 161.16V152.217L159.471 152.706V160.662L153.139 161.16Z" fill="#2E3740"/>
<path d="M150.128 144.138L143.804 137.814L148.634 133.693L154.257 139.316L150.128 144.138Z" fill="#2E3740"/>
<path d="M309.182 32.8604C304.584 32.8604 300.09 34.2238 296.267 36.7783C292.444 39.3328 289.464 42.9636 287.704 47.2116C285.945 51.4596 285.484 56.134 286.381 60.6436C287.278 65.1533 289.492 69.2956 292.744 72.5469C295.995 75.7982 300.137 78.0123 304.647 78.9093C309.157 79.8064 313.831 79.346 318.079 77.5864C322.327 75.8268 325.958 72.8471 328.512 69.024C331.067 65.2009 332.43 60.7062 332.43 56.1082C332.431 53.0549 331.831 50.0314 330.663 47.2104C329.495 44.3893 327.782 41.8261 325.624 39.6671C323.465 37.5081 320.901 35.7957 318.08 34.6278C315.259 33.4599 312.236 32.8593 309.182 32.8604ZM309.182 66.961C307.034 66.961 304.934 66.3238 303.148 65.13C301.361 63.9362 299.969 62.2395 299.147 60.2545C298.326 58.2694 298.111 56.0852 298.531 53.9782C298.95 51.8711 299.986 49.9359 301.505 48.4173C303.025 46.8987 304.961 45.8649 307.069 45.4468C309.176 45.0286 311.36 45.2449 313.344 46.0682C315.329 46.8914 317.024 48.2848 318.217 50.0719C319.409 51.8591 320.045 53.9598 320.043 56.1082C320.043 57.5341 319.762 58.946 319.216 60.2633C318.671 61.5805 317.87 62.7773 316.862 63.7852C315.853 64.7931 314.656 65.5923 313.338 66.1372C312.02 66.6821 310.608 66.9621 309.182 66.961Z" fill="#2E3740"/>
<path d="M313.654 33.8231H304.711L305.201 27.491H313.157L313.654 33.8231Z" fill="#2E3740"/>
<path d="M296.632 36.8343L290.308 43.1583L286.188 38.3276L291.81 32.7053L296.632 36.8343Z" fill="#2E3740"/>
<path d="M286.726 50.9919V59.9353L280.402 59.4457V51.4897L286.726 50.9919Z" fill="#2E3740"/>
<path d="M289.745 68.0137L296.061 74.3377L291.238 78.4585L285.616 72.8362L289.745 68.0137Z" fill="#2E3740"/>
<path d="M303.902 77.9199H312.846L312.356 84.2439H304.4L303.902 77.9199Z" fill="#2E3740"/>
<path d="M320.925 74.9087L327.249 68.5847L331.37 73.4073L325.747 79.0295L320.925 74.9087Z" fill="#2E3740"/>
<path d="M330.831 60.7429V51.7996L337.155 52.2973V60.2452L330.831 60.7429Z" fill="#2E3740"/>
<path d="M327.812 43.7212L321.496 37.4053L326.319 33.2764L331.941 38.8986L327.812 43.7212Z" fill="#2E3740"/>
<path d="M64.0396 0H63.2236V83.0851H64.0396V0Z" fill="#999999"/>
<path d="M91.0818 109.54L88.8704 114.395H38.3927L36.1895 109.54L57.6829 94.6641H69.5883L91.0818 109.54Z" fill="#2E3740"/>
<path d="M71.0815 80.3352L69.5882 94.6642H57.6827L56.1895 80.3352H71.0815Z" fill="#232C36"/>
<path d="M91.0736 109.54L88.8704 114.395H38.3927L36.1895 109.54H91.0736Z" fill="#232C36"/>
<path d="M122.824 0H122.008V46.9771H122.824V0Z" fill="#999999"/>
<path d="M149.858 73.4237L147.646 78.2789H97.1687L94.9736 73.4237L116.459 58.5562H128.364L149.858 73.4237Z" fill="#2E3740"/>
<path d="M129.858 44.219L128.365 58.5561H116.459L114.966 44.219H129.858Z" fill="#232C36"/>
<path d="M149.858 73.4319L147.647 78.2871H97.169L94.9658 73.4319H149.858Z" fill="#232C36"/>
<path d="M331.385 297.554C332.188 300.463 332.715 303.441 332.96 306.449C332.878 306.596 332.895 307.151 332.96 306.995C332.96 307.485 333.719 307.395 333.719 306.914C333.719 306.604 333.719 306.286 333.719 305.984C335.457 303.821 337.978 302.459 340.018 300.582C341.659 299.109 342.855 297.207 343.47 295.09C345.159 289.264 343.576 283.087 345.608 277.269C347.362 272.258 350.504 267.901 353.164 263.356C355.979 258.558 358.06 253.507 358.256 247.852C358.419 243.543 357.905 237.807 354.625 234.575C351.149 231.148 346.84 233.719 344.172 236.771C336.452 245.632 332.886 256.828 331.442 268.276C330.626 274.617 329.81 280.99 330.006 287.387C330.127 290.813 330.589 294.219 331.385 297.554Z" fill="#419FD9"/>
<path d="M332.927 308.774C332.504 302.795 332.575 296.79 333.139 290.822C333.139 290.822 333.139 290.822 333.139 290.757C333.041 285.91 332.658 281.071 332.846 276.216C333.087 270.962 333.803 265.74 334.983 260.614C334.983 260.557 335.09 260.573 335.081 260.614C334.131 265.65 333.567 270.751 333.392 275.873C333.294 278.607 333.311 281.357 333.458 284.09C333.506 284.988 333.588 285.886 333.645 286.783C335.663 273.159 340.589 260.13 348.088 248.578C348.186 248.423 348.464 248.578 348.366 248.749C343.013 257.532 339.05 267.088 336.615 277.081C340.271 270.21 345.902 264.547 350.063 257.937C350.063 257.937 350.145 257.937 350.128 257.937C346.391 265.281 340.214 271.1 336.256 278.338C335.571 281.297 335.027 284.289 334.624 287.314C334.069 291.428 333.769 295.573 333.727 299.725C336.092 295.591 338.246 291.339 340.181 286.987C340.23 286.865 340.402 286.946 340.361 287.069C338.794 291.712 336.673 296.714 333.71 300.671C333.71 303.617 333.784 306.555 333.955 309.492C334.42 317.326 335.759 325.062 336.403 332.871C336.409 332.918 336.395 332.966 336.365 333.004C336.335 333.041 336.292 333.065 336.244 333.071C336.197 333.076 336.149 333.062 336.111 333.033C336.074 333.003 336.05 332.959 336.044 332.912C334.46 324.946 333.418 316.881 332.927 308.774Z" fill="white"/>
<path d="M341.25 248.333C341.25 248.276 341.356 248.333 341.34 248.374C339.904 252.332 339.096 256.338 338.076 260.402C338.073 260.421 338.066 260.44 338.056 260.456C338.045 260.473 338.032 260.487 338.016 260.499C338 260.51 337.982 260.518 337.963 260.522C337.944 260.527 337.924 260.527 337.905 260.524C337.885 260.521 337.867 260.514 337.85 260.504C337.834 260.493 337.819 260.48 337.808 260.464C337.797 260.448 337.789 260.43 337.784 260.411C337.78 260.392 337.779 260.372 337.782 260.353C338.351 256.2 339.519 252.151 341.25 248.333Z" fill="white"/>
<path d="M304.898 264.923C305.842 267.244 306.933 269.503 308.162 271.687C310.74 276.371 313.425 280.663 313.915 286.106C313.993 288.547 314.34 290.971 314.951 293.336C315.628 295.352 316.599 297.258 317.832 298.991C320.622 303.071 324.115 306.563 326.701 310.79C329.394 315.193 331.385 319.989 332.601 325.005C332.666 325.282 333.099 325.209 333.034 324.931C333.027 324.913 333.027 324.893 333.034 324.874C333.038 324.855 333.038 324.836 333.034 324.817C333.442 313.124 332.511 301.349 328.954 290.153C327.378 285.23 325.487 280.414 323.291 275.735C321.495 271.598 318.896 267.859 315.645 264.735C313.474 262.777 308.758 259.064 305.657 261.03C304.204 261.977 304.31 263.462 304.898 264.923Z" fill="#419FD9"/>
<path d="M316.649 291.418C318.706 294.82 320.974 298.09 323.438 301.21C324.572 302.687 325.714 304.148 326.849 305.633C327.379 306.326 327.975 307.028 328.481 307.771C328.179 306.547 327.877 305.323 327.559 304.091C326.057 298.183 324.605 292.226 322.361 286.547C320.061 281.047 317.347 275.731 314.241 270.643C314.16 270.504 314.38 270.406 314.462 270.537C316.91 274.617 319.439 278.656 321.512 282.94C322.658 285.325 323.659 287.777 324.507 290.284C323.554 284.957 322.223 279.705 320.525 274.568C320.525 274.519 320.574 274.486 320.59 274.568C322.817 279.757 324.214 285.264 324.727 290.888C325.233 292.405 325.698 293.94 326.139 295.482C327.975 302.01 329.59 308.628 331.092 315.253C331.117 310.898 330.74 306.549 329.966 302.263C329.971 302.246 329.982 302.232 329.995 302.222C330.009 302.212 330.026 302.207 330.043 302.207C330.06 302.207 330.077 302.212 330.091 302.222C330.105 302.232 330.115 302.246 330.121 302.263C331.26 306.734 331.641 311.366 331.247 315.963C331.81 318.485 332.365 321.014 332.879 323.536C334.029 328.921 335.441 334.405 336.143 339.856C336.136 339.88 336.122 339.901 336.102 339.916C336.082 339.932 336.058 339.94 336.033 339.94C336.008 339.94 335.983 339.932 335.963 339.916C335.944 339.901 335.929 339.88 335.923 339.856C335.107 336.91 334.641 333.85 333.989 330.88C333.336 327.91 332.65 324.899 331.957 321.904C330.94 317.552 329.884 313.213 328.791 308.889C328.064 307.297 326.669 305.886 325.617 304.556C324.466 303.095 323.315 301.634 322.197 300.149C320.098 297.399 318.218 294.488 316.575 291.443C316.51 291.402 316.608 291.361 316.649 291.418Z" fill="white"/>
<path d="M316.151 286.416C318.722 289.715 320.948 293.27 322.793 297.024C322.793 297.073 322.744 297.122 322.712 297.073C320.476 293.572 318.281 290.039 316.045 286.53C316.004 286.416 316.102 286.367 316.151 286.416Z" fill="white"/>
<path d="M365.902 276.004C364.384 278.615 362.638 281.716 363.307 284.882C363.715 286.865 365.167 288.472 365.428 290.496C366.016 294.959 361.569 297.905 358.345 300.019C350.324 305.282 339.316 309.974 337.856 320.729C337.807 321.112 337.146 321.014 337.195 320.639C337.192 320.617 337.192 320.595 337.195 320.574C337.195 320.574 337.154 320.574 337.154 320.508C336.101 315.079 336.151 309.492 337.301 304.082C338.5 298.542 340.916 293.564 343.772 288.693C348.602 280.451 353.719 272.014 361.022 265.706C363.046 263.96 367.183 260.81 368.79 264.759C370.398 268.709 367.754 272.83 365.902 276.004Z" fill="#419FD9"/>
<path d="M358.55 293.474C353.229 299.235 344.776 302.45 340.19 308.913C342.751 299.094 347.587 290.014 354.306 282.409C354.478 282.214 354.209 281.928 354.013 282.116C349.113 286.875 345.195 292.55 342.483 298.819C343.745 294.444 345.406 290.194 347.444 286.122C347.456 286.091 347.457 286.057 347.446 286.026C347.435 285.994 347.414 285.968 347.385 285.951C347.357 285.934 347.323 285.928 347.29 285.934C347.258 285.94 347.228 285.958 347.207 285.984C344.681 290.44 342.874 295.268 341.854 300.288C335.824 314.894 335.261 332.03 336.526 347.428C336.526 347.649 336.885 347.657 336.877 347.428C336.526 335.294 336.722 322.948 339.635 311.1C339.692 310.847 339.765 310.602 339.822 310.357C344.808 303.413 353.229 300.198 358.648 293.597C358.697 293.499 358.615 293.409 358.55 293.474Z" fill="white"/>
<path d="M359.79 288.529C356.991 291.092 354.241 293.711 351.442 296.273C351.442 296.273 351.442 296.347 351.491 296.322C354.656 294.188 357.504 291.62 359.953 288.693C359.975 288.671 359.987 288.642 359.987 288.611C359.987 288.58 359.975 288.551 359.953 288.529C359.932 288.508 359.902 288.496 359.872 288.496C359.841 288.496 359.812 288.508 359.79 288.529Z" fill="white"/>
<path d="M360.231 277.44C357.759 281.491 354.965 285.336 351.875 288.937C351.834 288.986 351.875 289.052 351.94 289.003C355.41 285.709 358.267 281.824 360.377 277.53C360.426 277.44 360.288 277.326 360.231 277.44Z" fill="white"/>
<path d="M347.656 358.257H323.185L326.481 325.339H343.886L347.656 358.257Z" fill="#419FD9"/>
<path d="M344.498 330.692H325.942L326.481 325.339H343.886L344.498 330.692Z" fill="white"/>
<path d="M346.881 321.692H323.951V326.947H346.881V321.692Z" fill="#419FD9"/>
<path d="M38.7109 358.257L80.0332 358.061L121.355 357.987L204 357.849L286.644 357.987L327.967 358.061L369.289 358.257L327.967 358.461L286.644 358.534L204 358.665L121.355 358.526L80.0332 358.461L38.7109 358.257Z" fill="#242424"/>
<path d="M296.747 54.3538H162.564C160.76 54.3697 158.978 54.7416 157.318 55.448C155.659 56.1544 154.156 57.1815 152.894 58.4703C151.633 59.7591 150.638 61.2843 149.967 62.9583C149.296 64.6324 148.963 66.4225 148.985 68.2258V344.434C148.964 348.061 150.381 351.549 152.926 354.134C155.471 356.719 158.936 358.19 162.564 358.224H296.747C300.382 358.192 303.856 356.718 306.405 354.126C308.954 351.534 310.37 348.036 310.341 344.401V68.185C310.357 66.384 310.019 64.5975 309.344 62.9276C308.669 61.2576 307.672 59.737 306.41 58.4525C305.147 57.168 303.644 56.1449 301.986 55.4416C300.328 54.7384 298.548 54.3687 296.747 54.3538ZM301.855 335.874C301.855 343.144 296.412 349.028 289.697 349.028H169.638C162.906 349.028 157.464 343.144 157.464 335.874V78.6542C157.464 63.8438 162.906 63.1502 169.638 63.1502H193.686C195.081 63.1502 196.224 64.7822 196.224 66.708V67.524C196.224 72.1344 198.745 72.1507 201.854 72.1507H257.464C260.59 72.1507 263.095 72.1507 263.095 67.524V66.708C263.095 64.7414 264.221 63.1502 265.641 63.1502H289.68C296.396 63.1502 301.839 65.125 301.839 78.6542L301.855 335.874Z" fill="white"/>
<path d="M237.244 66.3899H222.074C221.827 66.3899 221.589 66.2921 221.413 66.1179C221.238 65.9437 221.138 65.7071 221.136 65.4596C221.136 65.2108 221.235 64.9721 221.411 64.7961C221.587 64.6201 221.825 64.5212 222.074 64.5212H237.244C237.492 64.5212 237.731 64.6201 237.907 64.7961C238.083 64.9721 238.182 65.2108 238.182 65.4596C238.18 65.7071 238.08 65.9437 237.904 66.1179C237.729 66.2921 237.491 66.3899 237.244 66.3899Z" fill="#17212B"/>
<path d="M301.855 78.6543V335.89C301.855 343.161 296.412 349.044 289.697 349.044H169.647C162.915 349.044 157.464 343.161 157.464 335.89V78.6543C157.464 63.8439 162.915 63.1503 169.647 63.1503H193.686C195.081 63.1503 196.224 64.7823 196.224 66.7081V67.5241C196.224 72.1345 198.753 72.1508 201.854 72.1508H257.465C260.598 72.1508 263.095 72.1508 263.095 67.5241V66.7081C263.095 64.7415 264.221 63.1503 265.641 63.1503H289.68C296.412 63.1177 301.855 65.0924 301.855 78.6543Z" fill="#17212B"/>
<path d="M170.299 87.1324L167.729 84.7252L170.299 82.3262L170.699 82.7505L168.577 84.7252L170.699 86.7081L170.299 87.1324Z" fill="#232C36"/>
<path d="M284.784 83.8931C284.945 83.8931 285.103 83.9409 285.237 84.0306C285.371 84.1203 285.476 84.2477 285.538 84.3968C285.599 84.5459 285.616 84.71 285.584 84.8683C285.553 85.0265 285.475 85.1719 285.361 85.2861C285.247 85.4002 285.101 85.4779 284.943 85.5094C284.785 85.5409 284.621 85.5247 284.471 85.463C284.322 85.4012 284.195 85.2966 284.105 85.1624C284.016 85.0282 283.968 84.8705 283.968 84.7091C283.968 84.4926 284.054 84.2851 284.207 84.1321C284.36 83.979 284.567 83.8931 284.784 83.8931Z" fill="#232C36"/>
<path d="M287.771 83.8931C287.932 83.8931 288.09 83.9409 288.224 84.0306C288.359 84.1203 288.463 84.2477 288.525 84.3968C288.587 84.5459 288.603 84.71 288.571 84.8683C288.54 85.0265 288.462 85.1719 288.348 85.2861C288.234 85.4002 288.089 85.4779 287.93 85.5094C287.772 85.5409 287.608 85.5247 287.459 85.463C287.31 85.4012 287.182 85.2966 287.093 85.1624C287.003 85.0282 286.955 84.8705 286.955 84.7091C286.955 84.4926 287.041 84.2851 287.194 84.1321C287.347 83.979 287.555 83.8931 287.771 83.8931Z" fill="#232C36"/>
<path d="M290.757 83.8931C290.919 83.8931 291.077 83.9409 291.211 84.0306C291.345 84.1203 291.45 84.2477 291.511 84.3968C291.573 84.5459 291.589 84.71 291.558 84.8683C291.526 85.0265 291.449 85.1719 291.334 85.2861C291.22 85.4002 291.075 85.4779 290.917 85.5094C290.758 85.5409 290.594 85.5247 290.445 85.463C290.296 85.4012 290.169 85.2966 290.079 85.1624C289.989 85.0282 289.941 84.8705 289.941 84.7091C289.941 84.4926 290.027 84.2851 290.18 84.1321C290.333 83.979 290.541 83.8931 290.757 83.8931Z" fill="#232C36"/>
<path d="M189.541 68.8948L189.304 69.1315C189.263 69.1315 189.214 69.2131 189.173 69.262C188.88 68.9667 188.531 68.7323 188.147 68.5724C187.762 68.4125 187.35 68.3301 186.934 68.3301C186.517 68.3301 186.105 68.4125 185.721 68.5724C185.336 68.7323 184.987 68.9667 184.694 69.262L184.571 69.1315L184.343 68.903C184.441 68.8132 184.53 68.7235 184.637 68.6419C184.845 68.4716 185.072 68.3264 185.314 68.2094C185.598 68.0688 185.9 67.9673 186.211 67.9075L186.668 67.8503H187.06C187.158 67.8503 187.264 67.8503 187.362 67.8503C187.641 67.8802 187.916 67.9461 188.178 68.0462C188.37 68.1181 188.555 68.2055 188.733 68.3073C188.924 68.4146 189.105 68.5403 189.271 68.6827C189.353 68.7479 189.435 68.8295 189.516 68.903L189.541 68.8948Z" fill="#999999"/>
<path d="M185.428 69.9883L185.061 69.6293C185.46 69.2181 185.986 68.9536 186.554 68.8785C186.961 68.8165 187.377 68.8513 187.769 68.9804C188.16 69.1094 188.515 69.3289 188.806 69.6211L188.439 69.9883C188.038 69.5912 187.497 69.3683 186.933 69.3683C186.369 69.3683 185.828 69.5912 185.428 69.9883Z" fill="#999999"/>
<path d="M188.072 70.3554L187.705 70.7226C187.5 70.5188 187.223 70.4044 186.934 70.4044C186.645 70.4044 186.368 70.5188 186.163 70.7226L185.804 70.3636C186.107 70.0683 186.513 69.9024 186.936 69.9009C187.36 69.8994 187.767 70.0623 188.072 70.3554Z" fill="#999999"/>
<path d="M187.264 71.0573C187.251 71.136 187.211 71.2078 187.151 71.2595C187.09 71.3113 187.013 71.3398 186.933 71.3398C186.853 71.3398 186.776 71.3113 186.716 71.2595C186.655 71.2078 186.615 71.136 186.603 71.0573C186.595 71.0096 186.598 70.9607 186.611 70.9142C186.624 70.8677 186.647 70.8246 186.679 70.7878C186.71 70.7511 186.749 70.7216 186.793 70.7014C186.837 70.6811 186.885 70.6707 186.933 70.6707C186.982 70.6707 187.029 70.6811 187.073 70.7014C187.117 70.7216 187.156 70.7511 187.188 70.7878C187.219 70.8246 187.242 70.8677 187.255 70.9142C187.268 70.9607 187.271 71.0096 187.264 71.0573Z" fill="#999999"/>
<path d="M166.88 69.5967C166.882 69.4082 166.939 69.2245 167.045 69.0685C167.151 68.9126 167.3 68.7915 167.475 68.7205C167.649 68.6495 167.841 68.6317 168.026 68.6695C168.211 68.7073 168.38 68.7988 168.513 68.9327C168.645 69.0665 168.735 69.2366 168.772 69.4216C168.808 69.6066 168.788 69.7981 168.716 69.9721C168.643 70.1461 168.521 70.2947 168.364 70.3992C168.207 70.5038 168.023 70.5596 167.835 70.5596C167.709 70.5596 167.584 70.5346 167.467 70.4861C167.351 70.4376 167.245 70.3666 167.157 70.2771C167.068 70.1876 166.998 70.0813 166.95 69.9646C166.903 69.8478 166.879 69.7228 166.88 69.5967Z" fill="#999999"/>
<path d="M169.892 69.5967C169.892 69.4062 169.948 69.2201 170.054 69.0617C170.16 68.9034 170.31 68.78 170.486 68.7071C170.662 68.6342 170.856 68.6151 171.042 68.6523C171.229 68.6894 171.401 68.7811 171.535 68.9158C171.67 69.0505 171.762 69.222 171.799 69.4088C171.836 69.5956 171.817 69.7892 171.744 69.9651C171.671 70.1411 171.548 70.2915 171.389 70.3973C171.231 70.5031 171.045 70.5595 170.854 70.5595C170.599 70.5595 170.354 70.4581 170.174 70.2775C169.993 70.097 169.892 69.852 169.892 69.5967Z" fill="#999999"/>
<path d="M172.91 69.5967C172.912 69.4082 172.969 69.2245 173.075 69.0685C173.181 68.9126 173.331 68.7915 173.505 68.7205C173.68 68.6495 173.871 68.6317 174.056 68.6695C174.241 68.7073 174.41 68.7988 174.543 68.9327C174.676 69.0665 174.766 69.2366 174.802 69.4216C174.838 69.6066 174.819 69.7981 174.746 69.9721C174.674 70.1461 174.551 70.2947 174.394 70.3992C174.238 70.5038 174.053 70.5596 173.865 70.5596C173.739 70.5596 173.614 70.5346 173.498 70.4861C173.381 70.4376 173.276 70.3666 173.187 70.2771C173.098 70.1876 173.028 70.0813 172.981 69.9646C172.933 69.8478 172.909 69.7228 172.91 69.5967Z" fill="#999999"/>
<path d="M175.922 69.5966C175.922 69.4058 175.979 69.2194 176.085 69.0608C176.191 68.9023 176.342 68.7789 176.518 68.7063C176.695 68.6337 176.889 68.6151 177.076 68.6529C177.263 68.6907 177.434 68.7832 177.569 68.9187C177.703 69.0542 177.794 69.2265 177.83 69.4138C177.866 69.6012 177.846 69.795 177.772 69.9708C177.698 70.1466 177.573 70.2964 177.414 70.4012C177.254 70.506 177.067 70.5611 176.877 70.5595C176.623 70.5574 176.38 70.455 176.201 70.2746C176.022 70.0943 175.922 69.8506 175.922 69.5966Z" fill="#999999"/>
<path d="M178.933 69.5967C178.933 69.4062 178.989 69.2201 179.095 69.0617C179.201 68.9034 179.351 68.78 179.527 68.7071C179.703 68.6342 179.897 68.6151 180.083 68.6523C180.27 68.6894 180.442 68.7811 180.576 68.9158C180.711 69.0505 180.803 69.222 180.84 69.4088C180.877 69.5956 180.858 69.7892 180.785 69.9651C180.712 70.1411 180.589 70.2915 180.43 70.3973C180.272 70.5031 180.086 70.5595 179.896 70.5595C179.769 70.5595 179.644 70.5346 179.527 70.4863C179.41 70.4379 179.304 70.3669 179.215 70.2775C179.125 70.1881 179.054 70.082 179.006 69.9651C178.958 69.8483 178.933 69.7231 178.933 69.5967Z" fill="#999999"/>
<path d="M291.027 71.6938H283.226V68.0708H291.027V71.6938ZM283.634 71.2858H290.619V68.4788H283.634V71.2858Z" fill="#999999"/>
<path d="M288.897 68.6909H283.879V71.0736H288.897V68.6909Z" fill="#999999"/>
<path d="M291.72 68.9194H291.026V70.8534H291.72V68.9194Z" fill="#999999"/>
<path d="M225.836 123.265C225.836 124.112 226.087 124.941 226.558 125.645C227.029 126.35 227.698 126.899 228.481 127.223C229.263 127.547 230.125 127.632 230.956 127.467C231.787 127.301 232.55 126.893 233.149 126.294C233.748 125.695 234.156 124.932 234.322 124.101C234.487 123.27 234.402 122.408 234.078 121.626C233.754 120.843 233.205 120.174 232.5 119.703C231.796 119.232 230.967 118.981 230.12 118.981C228.984 118.981 227.894 119.432 227.091 120.236C226.287 121.039 225.836 122.129 225.836 123.265Z" fill="#419FD9"/>
<path opacity="0.9" d="M205.298 128.806C205.298 129.613 205.537 130.401 205.985 131.072C206.434 131.743 207.071 132.266 207.817 132.575C208.562 132.884 209.382 132.965 210.174 132.807C210.965 132.65 211.692 132.261 212.263 131.691C212.833 131.12 213.222 130.393 213.379 129.602C213.537 128.81 213.456 127.99 213.147 127.244C212.838 126.499 212.316 125.862 211.645 125.413C210.974 124.965 210.185 124.726 209.378 124.726C208.296 124.726 207.258 125.155 206.493 125.921C205.728 126.686 205.298 127.724 205.298 128.806Z" fill="#419FD9"/>
<path opacity="0.8" d="M192.527 142.947C192.526 143.712 192.751 144.461 193.175 145.098C193.599 145.735 194.203 146.232 194.909 146.526C195.616 146.82 196.394 146.898 197.145 146.75C197.896 146.601 198.586 146.233 199.127 145.693C199.669 145.152 200.038 144.463 200.188 143.713C200.338 142.962 200.262 142.184 199.969 141.477C199.677 140.77 199.181 140.165 198.545 139.74C197.909 139.314 197.161 139.087 196.395 139.087C195.371 139.087 194.388 139.494 193.663 140.217C192.938 140.941 192.53 141.922 192.527 142.947Z" fill="#419FD9"/>
<path opacity="0.7" d="M191.956 165.591C193.971 165.591 195.604 163.958 195.604 161.943C195.604 159.929 193.971 158.296 191.956 158.296C189.942 158.296 188.309 159.929 188.309 161.943C188.309 163.958 189.942 165.591 191.956 165.591Z" fill="#419FD9"/>
<path opacity="0.6" d="M192.617 179.871C192.617 180.552 192.819 181.218 193.198 181.784C193.576 182.35 194.114 182.792 194.743 183.052C195.372 183.313 196.065 183.381 196.732 183.248C197.4 183.115 198.014 182.787 198.496 182.306C198.977 181.824 199.305 181.211 199.438 180.543C199.571 179.875 199.503 179.182 199.242 178.553C198.981 177.924 198.54 177.386 197.974 177.008C197.408 176.629 196.742 176.427 196.061 176.427C195.147 176.427 194.272 176.79 193.626 177.436C192.98 178.082 192.617 178.957 192.617 179.871Z" fill="#419FD9"/>
<path opacity="0.5" d="M205.396 194.535C205.396 195.18 205.587 195.811 205.946 196.348C206.304 196.885 206.814 197.303 207.41 197.55C208.007 197.797 208.663 197.862 209.296 197.736C209.929 197.61 210.511 197.299 210.967 196.843C211.424 196.386 211.735 195.804 211.861 195.171C211.987 194.538 211.922 193.882 211.675 193.285C211.428 192.689 211.01 192.179 210.473 191.821C209.936 191.462 209.305 191.271 208.66 191.271C207.794 191.271 206.964 191.614 206.352 192.227C205.739 192.839 205.396 193.669 205.396 194.535Z" fill="#419FD9"/>
<path opacity="0.4" d="M227.231 200.663C227.231 201.26 227.409 201.843 227.74 202.34C228.072 202.836 228.544 203.223 229.095 203.452C229.647 203.68 230.254 203.74 230.84 203.624C231.425 203.507 231.963 203.22 232.386 202.797C232.808 202.375 233.095 201.837 233.212 201.252C233.328 200.666 233.269 200.059 233.04 199.507C232.812 198.955 232.425 198.484 231.928 198.152C231.432 197.82 230.848 197.643 230.251 197.643C229.45 197.643 228.682 197.961 228.116 198.528C227.55 199.094 227.231 199.862 227.231 200.663Z" fill="#419FD9"/>
<path opacity="0.3" d="M249.346 194.061C249.344 194.618 249.508 195.163 249.816 195.627C250.125 196.091 250.564 196.454 251.078 196.668C251.592 196.882 252.158 196.939 252.705 196.831C253.252 196.724 253.754 196.456 254.149 196.063C254.543 195.67 254.812 195.168 254.921 194.622C255.031 194.075 254.975 193.509 254.763 192.994C254.55 192.479 254.189 192.039 253.726 191.729C253.263 191.419 252.718 191.254 252.161 191.254C251.792 191.253 251.426 191.325 251.084 191.465C250.743 191.606 250.432 191.813 250.171 192.073C249.909 192.334 249.702 192.644 249.56 192.985C249.419 193.326 249.346 193.692 249.346 194.061Z" fill="#419FD9"/>
<path opacity="0.2" d="M262.034 178.704C262.033 179.219 262.184 179.723 262.469 180.152C262.754 180.582 263.16 180.916 263.635 181.115C264.111 181.313 264.635 181.366 265.14 181.266C265.646 181.167 266.11 180.919 266.475 180.556C266.84 180.192 267.089 179.728 267.19 179.223C267.291 178.718 267.24 178.194 267.043 177.718C266.846 177.242 266.513 176.835 266.084 176.548C265.656 176.262 265.152 176.109 264.637 176.109C263.948 176.109 263.287 176.382 262.799 176.869C262.312 177.355 262.036 178.015 262.034 178.704Z" fill="#419FD9"/>
<path opacity="0.1" d="M266.236 161.568C266.236 162.041 266.377 162.503 266.639 162.896C266.902 163.29 267.275 163.596 267.712 163.777C268.149 163.958 268.63 164.005 269.094 163.913C269.557 163.821 269.983 163.593 270.318 163.259C270.652 162.924 270.88 162.498 270.972 162.035C271.064 161.571 271.017 161.09 270.836 160.653C270.655 160.216 270.349 159.843 269.956 159.58C269.562 159.317 269.1 159.177 268.627 159.177C267.993 159.177 267.385 159.429 266.937 159.878C266.488 160.326 266.236 160.934 266.236 161.568Z" fill="#419FD9"/>
<path opacity="0.05" d="M262.442 141.699C263.646 141.699 264.621 140.723 264.621 139.52C264.621 138.317 263.646 137.341 262.442 137.341C261.239 137.341 260.264 138.317 260.264 139.52C260.264 140.723 261.239 141.699 262.442 141.699Z" fill="#419FD9"/>
<path opacity="0.01" d="M245.616 127.133C245.616 127.523 245.732 127.905 245.949 128.23C246.166 128.555 246.474 128.808 246.835 128.957C247.196 129.107 247.593 129.146 247.976 129.069C248.359 128.993 248.711 128.805 248.987 128.529C249.263 128.253 249.452 127.901 249.528 127.518C249.604 127.135 249.565 126.738 249.415 126.377C249.266 126.016 249.013 125.708 248.688 125.491C248.363 125.274 247.982 125.158 247.591 125.158C247.331 125.157 247.074 125.207 246.834 125.306C246.594 125.405 246.376 125.55 246.192 125.734C246.009 125.918 245.863 126.136 245.764 126.376C245.665 126.616 245.615 126.873 245.616 127.133Z" fill="#419FD9"/>
<path d="M229.369 171.083C231.255 171.073 233.095 170.505 234.658 169.45C236.221 168.394 237.436 166.9 238.15 165.155C238.863 163.409 239.044 161.492 238.668 159.644C238.293 157.796 237.378 156.101 236.04 154.773C234.701 153.445 232.999 152.543 231.148 152.182C229.298 151.82 227.382 152.015 225.642 152.743C223.902 153.47 222.417 154.696 221.374 156.267C220.331 157.838 219.777 159.683 219.781 161.568C219.785 162.823 220.035 164.065 220.519 165.222C221.003 166.38 221.711 167.431 222.601 168.315C223.492 169.199 224.548 169.898 225.71 170.373C226.871 170.848 228.115 171.089 229.369 171.083ZM220.94 161.568C220.93 159.912 221.412 158.291 222.324 156.909C223.236 155.527 224.537 154.446 226.063 153.803C227.589 153.161 229.272 152.985 230.897 153.299C232.523 153.612 234.02 154.401 235.197 155.565C236.375 156.729 237.181 158.216 237.514 159.838C237.846 161.46 237.69 163.144 237.066 164.678C236.441 166.211 235.376 167.525 234.004 168.453C232.633 169.381 231.017 169.882 229.361 169.891C227.141 169.902 225.008 169.032 223.429 167.471C221.85 165.911 220.955 163.788 220.94 161.568ZM229.369 171.058C231.256 171.048 233.097 170.48 234.661 169.423C236.224 168.367 237.439 166.871 238.152 165.124C238.865 163.378 239.044 161.459 238.666 159.61C238.289 157.762 237.372 156.067 236.031 154.74C234.69 153.412 232.986 152.513 231.133 152.154C229.281 151.796 227.364 151.994 225.625 152.725C223.885 153.456 222.402 154.686 221.362 156.26C220.322 157.834 219.772 159.681 219.781 161.568C219.785 162.823 220.035 164.065 220.519 165.222C221.003 166.38 221.711 167.431 222.601 168.315C223.492 169.199 224.548 169.898 225.71 170.373C226.871 170.848 228.115 171.089 229.369 171.083V171.058ZM220.94 161.568C220.93 159.912 221.412 158.291 222.324 156.909C223.236 155.527 224.537 154.446 226.063 153.803C227.589 153.161 229.272 152.985 230.897 153.299C232.523 153.612 234.02 154.401 235.197 155.565C236.375 156.729 237.181 158.216 237.514 159.838C237.846 161.46 237.69 163.144 237.066 164.678C236.441 166.211 235.376 167.525 234.004 168.453C232.633 169.381 231.017 169.882 229.361 169.891C227.141 169.902 225.008 169.032 223.429 167.471C221.85 165.911 220.955 163.788 220.94 161.568ZM229.369 171.058C231.256 171.048 233.097 170.48 234.661 169.423C236.224 168.367 237.439 166.871 238.152 165.124C238.865 163.378 239.044 161.459 238.666 159.61C238.289 157.762 237.372 156.067 236.031 154.74C234.69 153.412 232.986 152.513 231.133 152.154C229.281 151.796 227.364 151.994 225.625 152.725C223.885 153.456 222.402 154.686 221.362 156.26C220.322 157.834 219.772 159.681 219.781 161.568C219.785 162.823 220.035 164.065 220.519 165.222C221.003 166.38 221.711 167.431 222.601 168.315C223.492 169.199 224.548 169.898 225.71 170.373C226.871 170.848 228.115 171.089 229.369 171.083V171.058ZM220.94 161.568C220.93 159.912 221.412 158.291 222.324 156.909C223.236 155.527 224.537 154.446 226.063 153.803C227.589 153.161 229.272 152.985 230.897 153.299C232.523 153.612 234.02 154.401 235.197 155.565C236.375 156.729 237.181 158.216 237.514 159.838C237.846 161.46 237.69 163.144 237.066 164.678C236.441 166.211 235.376 167.525 234.004 168.453C232.633 169.381 231.017 169.882 229.361 169.891C227.141 169.902 225.008 169.032 223.429 167.471C221.85 165.911 220.955 163.788 220.94 161.568ZM229.427 181.617C233.402 181.595 237.281 180.393 240.574 178.166C243.866 175.938 246.424 172.784 247.924 169.103C249.424 165.421 249.799 161.378 249.001 157.483C248.202 153.589 246.267 150.019 243.439 147.225C240.612 144.43 237.019 142.537 233.116 141.785C229.212 141.032 225.173 141.454 221.51 142.998C217.846 144.541 214.723 147.136 212.534 150.455C210.345 153.773 209.19 157.666 209.214 161.642C209.227 164.282 209.76 166.895 210.783 169.329C211.806 171.764 213.299 173.973 215.176 175.83C217.053 177.688 219.278 179.157 221.723 180.154C224.168 181.151 226.786 181.657 229.427 181.642V181.617ZM218.296 161.584C218.283 159.406 218.917 157.272 220.117 155.453C221.316 153.635 223.028 152.213 225.036 151.367C227.044 150.521 229.258 150.29 231.397 150.702C233.537 151.115 235.506 152.152 237.055 153.684C238.605 155.215 239.666 157.172 240.104 159.306C240.541 161.441 240.336 163.657 239.514 165.675C238.693 167.692 237.291 169.421 235.487 170.642C233.682 171.863 231.556 172.522 229.378 172.535C226.461 172.548 223.659 171.406 221.582 169.359C219.506 167.311 218.324 164.525 218.296 161.609V161.584ZM219.781 161.584C219.789 163.47 220.356 165.312 221.411 166.875C222.465 168.439 223.959 169.656 225.704 170.371C227.449 171.086 229.367 171.267 231.215 170.893C233.064 170.518 234.76 169.604 236.089 168.266C237.418 166.928 238.32 165.225 238.682 163.375C239.044 161.524 238.849 159.607 238.122 157.867C237.395 156.127 236.169 154.641 234.598 153.598C233.027 152.554 231.182 152 229.296 152.005C226.767 152.013 224.344 153.025 222.56 154.818C220.777 156.611 219.777 159.039 219.781 161.568V161.584ZM220.94 161.584C220.93 159.929 221.412 158.307 222.324 156.925C223.236 155.543 224.537 154.462 226.063 153.82C227.589 153.177 229.272 153.001 230.897 153.315C232.523 153.628 234.02 154.417 235.197 155.581C236.375 156.745 237.181 158.232 237.514 159.854C237.846 161.476 237.69 163.161 237.066 164.694C236.441 166.228 235.376 167.541 234.004 168.469C232.633 169.397 231.017 169.898 229.361 169.908C228.261 169.913 227.17 169.702 226.151 169.285C225.132 168.869 224.205 168.256 223.424 167.482C222.642 166.708 222.02 165.787 221.594 164.772C221.168 163.757 220.945 162.669 220.94 161.568V161.584ZM229.369 171.075C231.255 171.065 233.096 170.496 234.659 169.441C236.222 168.385 237.437 166.89 238.15 165.145C238.864 163.399 239.044 161.481 238.668 159.633C238.291 157.785 237.376 156.09 236.037 154.762C234.697 153.434 232.995 152.533 231.143 152.172C229.292 151.812 227.376 152.008 225.636 152.737C223.897 153.465 222.412 154.693 221.37 156.265C220.328 157.837 219.775 159.682 219.781 161.568C219.785 162.823 220.035 164.065 220.519 165.222C221.003 166.38 221.711 167.431 222.601 168.315C223.492 169.199 224.548 169.898 225.71 170.373C226.871 170.848 228.115 171.089 229.369 171.083V171.075ZM220.94 161.568C220.93 159.912 221.412 158.291 222.324 156.909C223.236 155.527 224.537 154.446 226.063 153.803C227.589 153.161 229.272 152.985 230.897 153.299C232.523 153.612 234.02 154.401 235.197 155.565C236.375 156.729 237.181 158.216 237.514 159.838C237.846 161.46 237.69 163.144 237.066 164.678C236.441 166.211 235.376 167.525 234.004 168.453C232.633 169.381 231.017 169.882 229.361 169.891C227.141 169.902 225.008 169.032 223.429 167.471C221.85 165.911 220.955 163.788 220.94 161.568ZM229.369 171.058C231.256 171.048 233.097 170.48 234.661 169.423C236.224 168.367 237.439 166.871 238.152 165.124C238.865 163.378 239.044 161.459 238.666 159.61C238.289 157.762 237.372 156.067 236.031 154.74C234.69 153.412 232.986 152.513 231.133 152.154C229.281 151.796 227.364 151.994 225.625 152.725C223.885 153.456 222.402 154.686 221.362 156.26C220.322 157.834 219.772 159.681 219.781 161.568C219.785 162.823 220.035 164.065 220.519 165.222C221.003 166.38 221.711 167.431 222.601 168.315C223.492 169.199 224.548 169.898 225.71 170.373C226.871 170.848 228.115 171.089 229.369 171.083V171.058ZM220.94 161.568C220.93 159.912 221.412 158.291 222.324 156.909C223.236 155.527 224.537 154.446 226.063 153.803C227.589 153.161 229.272 152.985 230.897 153.299C232.523 153.612 234.02 154.401 235.197 155.565C236.375 156.729 237.181 158.216 237.514 159.838C237.846 161.46 237.69 163.144 237.066 164.678C236.441 166.211 235.376 167.525 234.004 168.453C232.633 169.381 231.017 169.882 229.361 169.891C227.141 169.902 225.008 169.032 223.429 167.471C221.85 165.911 220.955 163.788 220.94 161.568Z" fill="#419FD9"/>
<path d="M225.339 142.302L233.066 142.253L232.609 136.786L225.731 136.827L225.339 142.302Z" fill="#419FD9"/>
<path d="M240.06 144.815L245.559 150.25L249.101 146.056L244.213 141.225L240.06 144.815Z" fill="#419FD9"/>
<path d="M248.692 157.007L248.741 164.734L254.209 164.277L254.168 157.406L248.692 157.007Z" fill="#419FD9"/>
<path d="M246.18 171.735L240.745 177.235L244.939 180.777L249.77 175.881L246.18 171.735Z" fill="#419FD9"/>
<path d="M233.988 180.369L226.261 180.418L226.718 185.885L233.588 185.844L233.988 180.369Z" fill="#419FD9"/>
<path d="M219.259 177.855L213.759 172.421L210.218 176.615L215.114 181.446L219.259 177.855Z" fill="#419FD9"/>
<path d="M210.627 165.656L210.578 157.929L205.11 158.394L205.151 165.265L210.627 165.656Z" fill="#419FD9"/>
<path d="M213.14 150.936L218.574 145.436L214.388 141.894L209.558 146.782L213.14 150.936Z" fill="#419FD9"/>
<path d="M277.815 227.852H181.527V219.822H277.815V227.852ZM181.911 227.444H277.44V220.23H181.968L181.911 227.444Z" fill="#419FD9"/>
<path d="M186.929 221.479H183.478V226.203H186.929V221.479Z" fill="#419FD9"/>
<path d="M191.695 221.479H188.243V226.203H191.695V221.479Z" fill="#419FD9"/>
<path d="M196.468 221.479H193.017V226.203H196.468V221.479Z" fill="#419FD9"/>
<path d="M201.234 221.479H197.782V226.203H201.234V221.479Z" fill="#419FD9"/>
<path d="M206.007 221.479H202.556V226.203H206.007V221.479Z" fill="#419FD9"/>
<path d="M210.773 221.479H207.321V226.203H210.773V221.479Z" fill="#419FD9"/>
<path d="M215.546 221.479H212.095V226.203H215.546V221.479Z" fill="#419FD9"/>
<path d="M220.312 221.479H216.86V226.203H220.312V221.479Z" fill="#419FD9"/>
<path d="M225.085 221.479H221.634V226.203H225.085V221.479Z" fill="#419FD9"/>
<path d="M229.851 221.479H226.399V226.203H229.851V221.479Z" fill="#419FD9"/>
<path d="M234.625 221.479H231.173V226.203H234.625V221.479Z" fill="#419FD9"/>
<path d="M239.39 221.479H235.938V226.203H239.39V221.479Z" fill="#419FD9"/>
<path d="M266.644 222.686L265.445 225.526C265.425 225.574 265.391 225.614 265.347 225.642C265.303 225.67 265.252 225.683 265.2 225.681H265.102C265.038 225.652 264.986 225.6 264.959 225.535C264.932 225.47 264.931 225.396 264.955 225.33L265.992 222.882H264.751C264.681 222.88 264.615 222.851 264.566 222.801C264.517 222.75 264.49 222.683 264.49 222.613C264.49 222.544 264.518 222.477 264.567 222.428C264.616 222.379 264.682 222.352 264.751 222.352H266.449L266.547 222.393V222.499L266.644 222.686Z" fill="#419FD9"/>
<path d="M267.215 224C267.206 223.595 267.32 223.197 267.542 222.858C267.627 222.697 267.755 222.563 267.911 222.47C268.067 222.376 268.245 222.327 268.427 222.327C268.609 222.327 268.787 222.376 268.943 222.47C269.099 222.563 269.227 222.697 269.312 222.858C269.534 223.197 269.648 223.595 269.639 224C269.648 224.408 269.534 224.809 269.312 225.151C269.227 225.311 269.099 225.445 268.943 225.539C268.787 225.632 268.609 225.682 268.427 225.682C268.245 225.682 268.067 225.632 267.911 225.539C267.755 225.445 267.627 225.311 267.542 225.151C267.32 224.809 267.206 224.408 267.215 224ZM269.108 224C269.108 223.711 269.026 223.429 268.872 223.184C268.83 223.101 268.767 223.031 268.69 222.979C268.613 222.928 268.524 222.897 268.431 222.89C268.337 222.898 268.245 222.928 268.166 222.98C268.086 223.031 268.02 223.101 267.974 223.184C267.828 223.431 267.749 223.713 267.746 224C267.746 224.288 267.825 224.57 267.974 224.816C268.02 224.9 268.086 224.971 268.165 225.024C268.245 225.076 268.336 225.109 268.431 225.118C268.524 225.109 268.613 225.076 268.69 225.024C268.767 224.971 268.83 224.9 268.872 224.816C269.027 224.572 269.109 224.289 269.108 224Z" fill="#419FD9"/>
<path d="M270.569 223.151C270.569 222.935 270.655 222.727 270.808 222.574C270.961 222.421 271.169 222.335 271.385 222.335C271.602 222.335 271.809 222.421 271.962 222.574C272.115 222.727 272.201 222.935 272.201 223.151C272.207 223.262 272.19 223.373 272.151 223.476C272.113 223.58 272.054 223.675 271.977 223.755C271.901 223.835 271.809 223.899 271.707 223.942C271.606 223.986 271.496 224.008 271.385 224.008C271.275 224.008 271.165 223.986 271.063 223.942C270.962 223.899 270.87 223.835 270.793 223.755C270.717 223.675 270.658 223.58 270.619 223.476C270.581 223.373 270.564 223.262 270.569 223.151ZM271.72 223.151C271.72 222.882 271.565 222.662 271.353 222.662C271.141 222.662 270.994 222.882 270.994 223.143C270.994 223.421 271.149 223.633 271.361 223.633C271.573 223.633 271.728 223.413 271.728 223.151H271.72ZM271.116 225.395L273.319 222.384C273.336 222.357 273.36 222.335 273.389 222.32C273.418 222.306 273.45 222.3 273.483 222.303C273.532 222.303 273.58 222.323 273.615 222.358C273.65 222.393 273.67 222.441 273.67 222.491C273.67 222.535 273.656 222.578 273.629 222.613L271.426 225.616C271.409 225.644 271.385 225.667 271.357 225.682C271.328 225.698 271.296 225.706 271.263 225.706C271.238 225.706 271.214 225.701 271.191 225.691C271.168 225.682 271.148 225.668 271.13 225.651C271.113 225.633 271.099 225.612 271.09 225.59C271.08 225.567 271.075 225.543 271.075 225.518C271.075 225.474 271.09 225.431 271.116 225.395ZM272.593 224.873C272.563 224.753 272.561 224.627 272.586 224.506C272.612 224.385 272.665 224.271 272.741 224.173C272.818 224.075 272.915 223.996 273.027 223.942C273.138 223.887 273.261 223.859 273.385 223.859C273.509 223.859 273.631 223.887 273.743 223.942C273.854 223.996 273.952 224.075 274.028 224.173C274.104 224.271 274.157 224.385 274.183 224.506C274.209 224.627 274.206 224.753 274.176 224.873C274.206 224.994 274.209 225.119 274.183 225.241C274.157 225.362 274.104 225.476 274.028 225.574C273.952 225.671 273.854 225.75 273.743 225.805C273.631 225.859 273.509 225.888 273.385 225.888C273.261 225.888 273.138 225.859 273.027 225.805C272.915 225.75 272.818 225.671 272.741 225.574C272.665 225.476 272.612 225.362 272.586 225.241C272.561 225.119 272.563 224.994 272.593 224.873ZM273.752 224.873C273.752 224.604 273.597 224.384 273.376 224.384C273.156 224.384 273.017 224.604 273.017 224.857C273.017 225.126 273.172 225.347 273.393 225.347C273.613 225.347 273.752 225.126 273.752 224.873Z" fill="#419FD9"/>
<path d="M249.516 240.402C249.661 240.402 249.801 240.459 249.903 240.562C250.006 240.665 250.063 240.804 250.063 240.949C250.063 241.094 250.006 241.233 249.903 241.335C249.801 241.438 249.661 241.495 249.516 241.495C249.371 241.495 249.232 241.438 249.13 241.335C249.027 241.233 248.97 241.094 248.97 240.949C248.97 240.804 249.027 240.665 249.13 240.562C249.232 240.459 249.371 240.402 249.516 240.402Z" fill="#999999"/>
<path d="M251.206 240.402C251.351 240.402 251.49 240.459 251.592 240.562C251.695 240.665 251.753 240.804 251.753 240.949C251.753 241.094 251.695 241.233 251.592 241.335C251.49 241.438 251.351 241.495 251.206 241.495C251.061 241.495 250.922 241.438 250.819 241.335C250.717 241.233 250.659 241.094 250.659 240.949C250.659 240.804 250.717 240.665 250.819 240.562C250.922 240.459 251.061 240.402 251.206 240.402Z" fill="#999999"/>
<path d="M252.895 240.402C253.04 240.402 253.179 240.459 253.282 240.562C253.384 240.665 253.442 240.804 253.442 240.949C253.442 241.094 253.384 241.233 253.282 241.335C253.179 241.438 253.04 241.495 252.895 241.495C252.75 241.495 252.611 241.438 252.509 241.335C252.406 241.233 252.349 241.094 252.349 240.949C252.349 240.804 252.406 240.665 252.509 240.562C252.611 240.459 252.75 240.402 252.895 240.402Z" fill="#999999"/>
<path d="M68.6419 358.526L186.44 359.032C215.073 336.551 218.027 303.242 197.603 283.054C185.24 270.814 169.548 273.303 154.599 271.361H154.55C149.27 270.802 144.134 269.296 139.389 266.914C123.999 258.794 115.325 239.635 102.375 223.527C100.743 221.503 99.1113 219.545 97.308 217.652C86.7 206.277 65.484 205.909 54.3782 221.895C26.2099 262.499 39.1108 322.948 68.6419 358.526Z" fill="#419FD9"/>
<path opacity="0.5" d="M68.6419 358.526L186.44 359.032C215.073 336.551 218.027 303.242 197.603 283.054C185.24 270.814 169.548 273.303 154.599 271.361H154.55C149.27 270.802 144.134 269.296 139.389 266.914C123.999 258.794 115.325 239.635 102.375 223.527C100.743 221.503 99.1113 219.545 97.308 217.652C86.7 206.277 65.484 205.909 54.3782 221.895C26.2099 262.499 39.1108 322.948 68.6419 358.526Z" fill="#17212B"/>
<path d="M66.0304 265.6C69.1149 313.924 124.929 331.965 159.789 317.489C190.095 304.899 180.189 276.167 154.599 271.361H154.55C149.27 270.802 144.134 269.296 139.389 266.914C123.999 258.795 115.325 239.635 102.375 223.527C83.0848 213.498 63.7701 230.21 66.0304 265.6Z" fill="#232C36"/>
<path d="M174.689 366.139C172.87 365.47 131.825 332.683 131.05 330.423C130.748 329.607 135.179 323.316 140.744 315.906C141.943 314.274 143.192 312.642 144.481 311.01C152.772 300.198 161.829 288.921 161.829 288.921L189.353 310.79L171.246 332.275L167.28 337.008C167.28 337.008 177.382 356.592 177.97 359.146C178.557 361.7 176.509 366.808 174.689 366.139Z" fill="#EB9481"/>
<path d="M175.946 366.637C174.061 365.984 131.115 332.895 130.25 330.594C129.924 329.729 134.379 323.185 139.993 315.441L140.165 315.205L168.113 336.241L167.737 336.706C167.737 336.706 178.508 356.723 179.161 359.35C179.814 361.978 177.831 367.29 175.946 366.637Z" fill="#242424"/>
<path d="M176.746 364.597C169.647 358.836 140.458 336.29 133 331.141C132.943 331.1 132.91 331.141 133 331.19C139.912 337.049 169.279 359.358 176.689 364.711C176.811 364.825 176.893 364.752 176.746 364.597Z" fill="#17212B"/>
<path d="M170.03 338.583C167.582 335.858 163.771 333.605 160.034 333.956C159.887 333.956 159.911 334.177 160.034 334.217C163.424 335.439 166.674 337.02 169.728 338.934C169.774 338.974 169.835 338.994 169.896 338.989C169.957 338.985 170.014 338.956 170.054 338.909C170.094 338.863 170.114 338.802 170.11 338.741C170.105 338.68 170.076 338.623 170.03 338.583Z" fill="white"/>
<path d="M171.131 341.406C168.683 338.681 164.873 336.429 161.135 336.78C160.988 336.78 161.013 337 161.135 337.041C164.534 338.26 167.793 339.841 170.854 341.757C170.901 341.781 170.954 341.787 171.006 341.776C171.057 341.764 171.103 341.736 171.135 341.694C171.168 341.653 171.185 341.602 171.184 341.55C171.184 341.497 171.165 341.447 171.131 341.406Z" fill="white"/>
<path d="M172.233 344.23C169.785 341.504 165.974 339.252 162.237 339.603C162.09 339.603 162.115 339.823 162.237 339.864C165.636 341.084 168.894 342.665 171.955 344.581C172.002 344.604 172.056 344.611 172.107 344.599C172.159 344.588 172.204 344.559 172.237 344.518C172.269 344.477 172.287 344.426 172.286 344.373C172.285 344.321 172.267 344.27 172.233 344.23Z" fill="white"/>
<path d="M177.79 365.568C178.329 366.458 176.158 368.914 175.465 368.685C174.771 368.457 128.112 332.21 127.427 331.419C126.742 330.627 129.263 327.999 130.299 328.563C131.336 329.126 177.79 365.568 177.79 365.568Z" fill="#419FD9"/>
<path d="M143.616 325.478C141.706 321.52 135.554 324.483 137.471 328.448C139.389 332.414 145.501 329.436 143.616 325.478Z" fill="white"/>
<path d="M217.154 268.733C215.269 283.038 180.026 324.319 175.954 329.052L175.024 330.129L145.877 307.722L146.211 307.289L171.883 273.678C171.883 273.678 129.451 298.452 108.235 287.208C98.6955 282.157 91.6289 273.189 91.6289 273.189L119.373 258.403C119.373 258.403 127.043 260.851 131.947 260.165C148.839 257.717 186.709 243.323 195.693 243.682C207.215 244.155 218.884 255.612 217.154 268.733Z" fill="white"/>
<path d="M181.103 261.185C180.149 262.261 179.264 263.394 178.451 264.58C177.546 265.771 176.623 266.946 175.718 268.138L176.199 267.093C176.77 265.91 177.227 264.686 177.905 263.56C177.905 263.487 177.839 263.421 177.799 263.495C177.105 264.613 176.297 265.682 175.701 266.865C175.424 267.428 175.155 267.991 174.885 268.562C174.755 268.872 174.616 269.19 174.494 269.509C174.428 269.658 174.371 269.81 174.322 269.966C173.914 270.52 173.506 271.075 173.131 271.638C172.266 272.887 171.499 274.209 170.626 275.457C170.577 275.523 170.683 275.58 170.732 275.523C171.621 274.356 172.609 273.262 173.515 272.103C174.42 270.945 175.293 269.713 176.158 268.489C177.023 267.265 177.79 266.09 178.647 264.898C179.567 263.723 180.412 262.491 181.177 261.21C181.177 261.21 181.152 261.12 181.103 261.185Z" fill="#999999"/>
<path d="M151.71 302.638C153.342 304.115 155.04 305.494 156.729 306.873C158.418 308.252 160.123 309.639 161.837 311.01C165.256 313.752 168.667 316.51 172.127 319.17C174.028 320.655 175.946 322.116 177.92 323.487C178.01 323.552 178.108 323.414 178.026 323.34C174.762 320.394 171.327 317.693 167.908 314.96C164.489 312.226 161.045 309.493 157.577 306.8C155.684 305.323 153.799 303.813 151.808 302.459C151.776 302.442 151.645 302.573 151.71 302.638Z" fill="#999999"/>
<path d="M106.235 230.496C112.453 245.233 131.866 259.961 138.165 260.353C145.509 260.81 164.277 251.858 171.32 241.454C172.992 239.006 157.129 227.901 154.551 229.769C149.255 233.621 139.226 238.917 138.361 239.006C136.631 239.186 124.489 232.609 115.081 226.407C103.404 218.688 103.755 224.62 106.235 230.496Z" fill="#EB9481"/>
<path d="M169.157 244.221C169.157 244.221 175.685 237.089 176.224 230.528C176.591 225.991 175.799 214.004 164.694 206.179C162.058 204.318 156.982 203.543 160.189 208.137C162.458 211.401 164.889 212.78 165.901 214.926C165.901 214.926 159.332 214.698 157.578 217.415C156.04 219.783 154.676 222.259 153.498 224.824C153.916 225.15 154.355 225.447 154.812 225.714C154.812 225.714 153.416 228.407 154.559 232.87L169.157 244.221Z" fill="#EB9481"/>
<path d="M151.915 201.87L145.109 225.771C144.832 226.473 145.166 227.06 145.86 227.077L158.288 227.46C158.668 227.441 159.036 227.315 159.349 227.097C159.662 226.879 159.908 226.578 160.058 226.228L166.864 202.368C167.141 201.666 166.807 201.079 166.113 201.062L153.677 200.679C153.302 200.693 152.937 200.813 152.626 201.023C152.314 201.234 152.068 201.527 151.915 201.87Z" fill="#419FD9"/>
<path d="M153.408 201.903L146.603 225.804C146.317 226.505 146.66 227.093 147.354 227.109L159.781 227.493C160.161 227.475 160.529 227.349 160.841 227.131C161.153 226.913 161.396 226.611 161.544 226.261L168.341 202.368C168.619 201.666 168.284 201.079 167.59 201.062L155.155 200.679C154.778 200.698 154.414 200.823 154.105 201.04C153.797 201.256 153.555 201.555 153.408 201.903Z" fill="#999999"/>
<path d="M156.762 203.102C156.75 203.31 156.677 203.51 156.552 203.676C156.427 203.843 156.256 203.968 156.06 204.037C155.863 204.106 155.651 204.115 155.449 204.064C155.248 204.012 155.066 203.902 154.927 203.747C154.788 203.592 154.698 203.399 154.669 203.193C154.639 202.987 154.671 202.777 154.761 202.59C154.851 202.402 154.994 202.245 155.173 202.139C155.352 202.033 155.559 201.982 155.766 201.993C155.905 201.999 156.041 202.033 156.166 202.092C156.292 202.152 156.404 202.235 156.497 202.339C156.59 202.442 156.661 202.563 156.706 202.694C156.752 202.825 156.771 202.964 156.762 203.102Z" fill="#242424"/>
<path d="M175.391 224.115C173.971 222.197 170.895 218.182 167.231 215.775C163.151 213.099 154.616 209.035 152.674 212.054C151.246 214.265 154.371 216.134 154.371 216.134C154.371 216.134 150.487 215.204 149.638 217.489C148.863 219.569 151.368 220.842 151.368 220.842C151.368 220.842 148.92 220.679 148.545 222.825C148.112 225.412 153.335 225.322 155.154 228.317C155.571 228.962 175.391 224.115 175.391 224.115Z" fill="#EB9481"/>
<path d="M165.125 220.54C162.114 217.994 158.395 216.431 154.468 216.061C154.371 216.061 154.313 216.126 154.403 216.15C158.134 217.189 161.726 218.674 165.101 220.573C165.101 220.573 165.142 220.557 165.125 220.54Z" fill="#242424"/>
<path d="M162.303 224.563C160.76 223.339 155.864 220.818 151.401 220.728C151.303 220.728 151.246 220.801 151.344 220.818C155.12 221.662 158.788 222.932 162.278 224.604C162.278 224.604 162.327 224.58 162.303 224.563Z" fill="#242424"/>
<path d="M154.289 227.256C154.346 228.7 154.403 230.096 154.566 231.491C154.648 232.185 154.778 232.862 154.925 233.547C155.095 234.236 155.302 234.914 155.545 235.579C154.628 234.425 154.062 233.032 153.913 231.565C153.836 230.841 153.82 230.112 153.865 229.386C153.919 228.661 154.062 227.946 154.289 227.256Z" fill="#242424"/>
<path d="M114.542 245.698L125.664 232.56C125.664 232.56 116.337 225.004 109.654 222.23C102.971 219.455 102.155 223.739 105.232 230.088C108.308 236.436 114.542 245.698 114.542 245.698Z" fill="#419FD9"/>
<path d="M116.377 225.91L115.619 225.437C115.874 225.968 116.188 226.469 116.557 226.93C116.522 226.586 116.462 226.245 116.377 225.91ZM124.456 231.622C123.817 231.751 123.191 231.94 122.587 232.185C121.795 232.499 121.051 232.922 120.376 233.441C121.218 233.341 122.042 233.124 122.824 232.797C123.482 232.535 124.108 232.201 124.693 231.801L124.456 231.622ZM109.833 233.597C109.496 234.377 109.271 235.201 109.164 236.045C109.691 235.376 110.122 234.637 110.445 233.849C110.782 233.069 111.007 232.245 111.114 231.401C110.586 232.075 110.155 232.82 109.833 233.613V233.597Z" fill="#17212B"/>
<path d="M122.701 236.053L114.541 245.698C114.541 245.698 108.291 236.444 105.215 230.104C102.897 225.33 102.767 221.724 105.712 221.414L122.701 236.053Z" fill="#242424"/>
<path d="M122.318 230.724C118.867 234.166 115.65 237.835 112.689 241.707C112.689 241.707 112.763 241.805 112.779 241.789C115.578 238.949 120.727 232.886 122.441 230.838C122.473 230.806 122.351 230.691 122.318 230.724Z" fill="#242424"/>
<path d="M78.2793 279.643C79.9113 280.166 126.252 266.759 126.252 266.759L120.768 250.667C120.768 250.667 123.469 245.494 122.213 240.516C120.54 233.866 108.235 222.931 107.264 222.295C103.379 219.716 99.7401 219.765 96.5251 221.479C83.1345 228.594 78.2793 279.643 78.2793 279.643Z" fill="#419FD9"/>
<path d="M122.539 242.785C122.172 242.581 121.788 242.401 121.405 242.23C120.626 241.886 119.801 241.658 118.957 241.552C119.626 242.079 120.364 242.51 121.152 242.834C121.609 243.021 122.078 243.179 122.555 243.307C122.555 243.168 122.555 242.956 122.539 242.785ZM100.605 240.443C99.8262 240.099 99.0016 239.871 98.157 239.765C98.8309 240.293 99.5752 240.725 100.368 241.047C101.149 241.383 101.973 241.609 102.816 241.716C102.142 241.19 101.398 240.762 100.605 240.443ZM111.319 269.517C110.54 269.173 109.716 268.945 108.871 268.84C109.539 269.368 110.278 269.799 111.066 270.121C111.595 270.339 112.141 270.514 112.698 270.643L113.163 270.512C112.587 270.115 111.968 269.781 111.319 269.517ZM87.7449 268.464C86.9651 268.124 86.1409 267.895 85.2969 267.787C85.9596 268.318 86.6964 268.75 87.4838 269.068C88.263 269.41 89.0874 269.638 89.9318 269.745C89.2666 269.218 88.5304 268.786 87.7449 268.464ZM100.205 258.999C99.8612 259.777 99.633 260.602 99.5279 261.447C100.573 260.099 101.248 258.501 101.486 256.812C100.957 257.476 100.526 258.212 100.205 258.999ZM109.834 233.613C109.497 234.393 109.272 235.217 109.165 236.061C109.692 235.392 110.123 234.653 110.446 233.866C110.783 233.085 111.008 232.261 111.115 231.418C110.588 232.087 110.157 232.825 109.834 233.613ZM118.255 257.579C117.463 257.893 116.719 258.316 116.044 258.835C116.886 258.735 117.71 258.518 118.492 258.191C119.285 257.88 120.03 257.456 120.703 256.934C119.861 257.035 119.037 257.252 118.255 257.579ZM87.9244 253.776C87.1326 254.091 86.3883 254.513 85.713 255.033C86.555 254.932 87.3788 254.715 88.161 254.388C88.9544 254.077 89.6991 253.654 90.3724 253.132C89.5305 253.232 88.7066 253.449 87.9244 253.776ZM96.0191 226.971C95.226 227.279 94.4813 227.699 93.8078 228.219C94.6497 228.119 95.4735 227.902 96.2558 227.574C97.0488 227.266 97.7936 226.846 98.4671 226.326C97.6246 226.413 96.7996 226.625 96.0191 226.954V226.971ZM98.5814 273.825C98.6068 274.077 98.645 274.328 98.6956 274.576L99.0465 274.478C98.9049 274.246 98.7495 274.023 98.5814 273.809V273.825ZM88.3487 240.63C88.0372 239.841 87.617 239.1 87.1002 238.427C87.193 239.271 87.4102 240.096 87.7449 240.875C88.0531 241.666 88.4736 242.408 88.9934 243.078C88.9022 242.23 88.6849 241.399 88.3487 240.614V240.63ZM110.446 249.003C110.135 248.212 109.712 247.47 109.189 246.799C109.288 247.642 109.505 248.466 109.834 249.247C110.143 250.042 110.567 250.787 111.091 251.459C110.992 250.609 110.775 249.776 110.446 248.986V249.003Z" fill="#17212B"/>
<path d="M102.587 253.923C104.14 253.309 105.726 252.78 107.337 252.34C108.153 252.128 108.969 251.956 109.785 251.81L110.968 251.622C111.408 251.557 111.849 251.548 112.281 251.483C112.33 251.483 112.347 251.54 112.281 251.548C111.882 251.63 111.465 251.777 111.082 251.875L109.866 252.185L107.418 252.797C105.786 253.197 104.154 253.613 102.579 254.062C102.53 254.086 102.506 253.956 102.587 253.923Z" fill="#242424"/>
<path d="M99.2829 222.124C99.5277 222.94 103.877 228.113 107.688 227.68C108.928 227.542 108.455 220.736 108.455 220.736L108.536 220.222L109.646 213.082L99.7888 207.688C99.7888 207.688 99.1768 221.773 99.2829 222.124Z" fill="#EB9481"/>
<path d="M109.646 213.074L108.528 220.222C106.573 219.64 104.762 218.651 103.216 217.321C101.669 215.991 100.42 214.349 99.5518 212.503C99.6415 210.055 99.7313 208.031 99.7394 207.729L100.988 208.358L109.646 213.074Z" fill="#242424"/>
<path d="M95.1623 201.014C95.3639 201.162 95.5104 201.373 95.5788 201.613C95.6472 201.854 95.6336 202.11 95.5401 202.342C95.4465 202.574 95.2784 202.768 95.0623 202.894C94.8461 203.02 94.5942 203.07 94.3463 203.037C94.3789 203.196 94.3789 203.36 94.3463 203.519C94.276 203.82 94.0955 204.084 93.8404 204.259C93.5852 204.435 93.2738 204.508 92.9673 204.465C92.9958 204.597 92.9958 204.733 92.9673 204.865C92.894 205.152 92.7108 205.398 92.4573 205.551C92.2038 205.704 91.9004 205.75 91.6127 205.681C91.3629 205.625 91.1406 205.484 90.9844 205.281C90.8976 205.551 90.7126 205.777 90.4661 205.917C90.2196 206.056 89.9298 206.097 89.6543 206.032C89.5009 205.992 89.3567 205.923 89.23 205.828V205.926C89.1947 206.068 89.1316 206.203 89.0444 206.321C88.9572 206.439 88.8476 206.539 88.7218 206.615C88.596 206.69 88.4565 206.741 88.3113 206.762C88.1661 206.784 88.018 206.777 87.8754 206.742C87.6949 206.709 87.5255 206.631 87.3829 206.516C87.2403 206.4 87.1291 206.251 87.0594 206.081C86.9515 206.315 86.7657 206.505 86.5337 206.618C86.3016 206.731 86.0376 206.761 85.7865 206.701C85.5903 206.65 85.4113 206.547 85.2679 206.404C85.1245 206.26 85.0218 206.081 84.9705 205.885C84.716 206.005 84.4289 206.036 84.1545 205.975C83.9932 205.937 83.8412 205.867 83.7079 205.769C83.5746 205.671 83.4628 205.547 83.3793 205.404C83.1973 205.52 82.988 205.586 82.7725 205.596C82.5569 205.605 82.3425 205.558 82.1508 205.459C81.9591 205.36 81.7968 205.212 81.6802 205.031C81.5635 204.849 81.4966 204.64 81.4862 204.424C81.3376 204.449 81.186 204.449 81.0374 204.424C80.7712 204.362 80.5367 204.206 80.3775 203.983C80.2184 203.761 80.1455 203.489 80.1724 203.217C79.9681 203.264 79.755 203.259 79.5535 203.201C79.3519 203.142 79.1685 203.034 79.0206 202.885C78.8727 202.737 78.7652 202.553 78.7083 202.351C78.6514 202.149 78.647 201.936 78.6954 201.732C78.7199 201.597 78.7727 201.469 78.8505 201.356H78.6546C78.3702 201.279 78.1265 201.095 77.9744 200.843C77.8223 200.591 77.7737 200.289 77.8386 200.002C77.8864 199.799 77.9879 199.613 78.1324 199.463C77.8404 199.366 77.5951 199.163 77.4442 198.894C77.2934 198.626 77.2478 198.311 77.3164 198.011C77.3678 197.784 77.4841 197.577 77.651 197.415C77.4375 197.276 77.272 197.074 77.1771 196.838C77.0822 196.601 77.0625 196.341 77.1206 196.093C77.1656 195.913 77.2517 195.746 77.372 195.604C77.4923 195.462 77.6436 195.351 77.8142 195.277C77.724 195.148 77.6621 195.001 77.6326 194.847C77.6031 194.692 77.6065 194.533 77.6428 194.379C77.6763 194.224 77.7434 194.078 77.8392 193.951C77.935 193.824 78.0574 193.72 78.1977 193.645C78.0732 193.5 77.9846 193.328 77.9393 193.142C77.8939 192.956 77.893 192.762 77.9366 192.576C77.9968 192.319 78.1377 192.087 78.3388 191.915C78.5399 191.744 78.7907 191.641 79.0545 191.621C79.0054 191.445 79.0054 191.259 79.0545 191.083C79.1147 190.817 79.2695 190.581 79.4901 190.421C79.7108 190.26 79.9822 190.185 80.254 190.21C80.2091 190.036 80.2091 189.853 80.254 189.679C80.2896 189.52 80.3564 189.37 80.4505 189.237C80.5446 189.104 80.6642 188.991 80.8024 188.904C80.9405 188.818 81.0944 188.759 81.2552 188.733C81.416 188.706 81.5805 188.712 81.7391 188.749C81.8322 188.772 81.9225 188.805 82.0084 188.847C82.0045 188.782 82.0045 188.716 82.0084 188.651C82.0823 188.331 82.2801 188.053 82.5586 187.879C82.837 187.704 83.1733 187.648 83.4935 187.721C83.5958 187.743 83.6947 187.778 83.7873 187.827C83.7673 187.711 83.7673 187.592 83.7873 187.476C83.8451 187.235 83.9734 187.017 84.1559 186.849C84.3384 186.681 84.5667 186.571 84.8118 186.533C85.0569 186.496 85.3077 186.532 85.5321 186.637C85.7566 186.743 85.9446 186.913 86.0721 187.125C86.22 186.971 86.405 186.858 86.6095 186.797C86.8139 186.735 87.0307 186.727 87.239 186.774C87.5499 186.849 87.821 187.038 87.9978 187.305C88.1034 187.113 88.2623 186.955 88.4553 186.852C88.6484 186.748 88.8673 186.703 89.0857 186.721C89.304 186.739 89.5125 186.82 89.6858 186.954C89.8591 187.088 89.9899 187.269 90.0623 187.476C90.2246 187.356 90.4159 187.282 90.6164 187.261C90.8169 187.24 91.0195 187.272 91.2032 187.356C91.3869 187.439 91.5451 187.569 91.6616 187.734C91.778 187.899 91.8485 188.091 91.8657 188.292C92.007 188.191 92.1681 188.122 92.3383 188.088C92.5085 188.054 92.684 188.057 92.853 188.096C93.1305 188.163 93.3771 188.322 93.5521 188.548C93.7271 188.773 93.8201 189.051 93.8159 189.337C93.9508 189.312 94.089 189.312 94.2239 189.337C94.5106 189.41 94.757 189.593 94.9097 189.847C95.0624 190.1 95.1092 190.403 95.0399 190.691C95.0076 190.825 94.9524 190.952 94.8767 191.067H94.9502C95.1095 191.103 95.2601 191.171 95.3932 191.266C95.5264 191.361 95.6394 191.481 95.7259 191.62C95.8123 191.758 95.8705 191.913 95.897 192.074C95.9235 192.236 95.9179 192.401 95.8804 192.56C95.8555 192.678 95.8114 192.791 95.7498 192.894C95.8499 192.879 95.9517 192.879 96.0518 192.894C96.3367 192.968 96.5817 193.15 96.7342 193.401C96.8867 193.653 96.9346 193.954 96.8678 194.241C96.7972 194.534 96.6159 194.788 96.3618 194.951C96.5123 195.085 96.6236 195.258 96.684 195.45C96.7443 195.643 96.7514 195.848 96.7046 196.044C96.6373 196.33 96.4618 196.579 96.215 196.738C96.4422 196.868 96.6224 197.067 96.7298 197.305C96.8372 197.544 96.8662 197.811 96.8128 198.067C96.7594 198.324 96.6262 198.556 96.4323 198.732C96.2384 198.908 95.9938 199.019 95.7335 199.047C95.8707 199.18 95.9712 199.346 96.0256 199.529C96.0799 199.712 96.0861 199.905 96.0436 200.091C96.0061 200.316 95.902 200.524 95.7449 200.688C95.5877 200.853 95.3847 200.966 95.1623 201.014Z" fill="#242424"/>
<path d="M113.473 188.757C113.674 188.905 113.821 189.116 113.889 189.357C113.958 189.597 113.944 189.854 113.85 190.086C113.757 190.318 113.589 190.512 113.373 190.638C113.156 190.764 112.905 190.814 112.657 190.781C112.689 190.94 112.689 191.104 112.657 191.262C112.586 191.564 112.406 191.828 112.151 192.003C111.896 192.178 111.584 192.252 111.278 192.209C111.306 192.341 111.306 192.477 111.278 192.609C111.204 192.895 111.021 193.142 110.768 193.295C110.514 193.447 110.211 193.494 109.923 193.425C109.672 193.371 109.449 193.229 109.295 193.025C109.208 193.294 109.023 193.521 108.776 193.66C108.53 193.799 108.24 193.841 107.965 193.776C107.809 193.736 107.662 193.667 107.532 193.572C107.536 193.604 107.536 193.637 107.532 193.67C107.497 193.812 107.434 193.946 107.347 194.064C107.259 194.183 107.15 194.282 107.024 194.358C106.898 194.434 106.759 194.484 106.613 194.506C106.468 194.528 106.32 194.521 106.178 194.486C105.997 194.453 105.828 194.375 105.685 194.259C105.542 194.144 105.431 193.994 105.362 193.825C105.252 194.058 105.066 194.247 104.835 194.36C104.603 194.473 104.34 194.503 104.089 194.445C103.892 194.393 103.713 194.291 103.57 194.147C103.427 194.004 103.324 193.825 103.273 193.629C103.018 193.749 102.731 193.78 102.457 193.718C102.288 193.685 102.129 193.617 101.988 193.519C101.848 193.421 101.729 193.294 101.641 193.147C101.504 193.235 101.352 193.294 101.192 193.322C101.032 193.35 100.869 193.346 100.71 193.31C100.448 193.249 100.213 193.105 100.039 192.899C99.8657 192.693 99.7634 192.437 99.7475 192.168C99.6017 192.192 99.4528 192.192 99.3069 192.168C99.0407 192.106 98.8062 191.949 98.647 191.727C98.4879 191.505 98.415 191.232 98.4419 190.96C98.2374 191.007 98.0243 191.001 97.8226 190.943C97.621 190.885 97.4374 190.777 97.289 190.628C97.1407 190.48 97.0324 190.296 96.9743 190.095C96.9162 189.893 96.9102 189.68 96.9568 189.475C96.9877 189.341 97.043 189.214 97.12 189.1H96.9242C96.6386 189.025 96.3936 188.841 96.2412 188.588C96.0888 188.335 96.0411 188.033 96.1082 187.745C96.1559 187.543 96.2574 187.357 96.4019 187.207C96.1099 187.109 95.8646 186.906 95.7138 186.638C95.563 186.37 95.5174 186.055 95.5859 185.754C95.6376 185.529 95.7506 185.323 95.9123 185.159C95.7012 185.018 95.5381 184.815 95.4447 184.579C95.3514 184.343 95.3324 184.084 95.3901 183.837C95.4352 183.657 95.5212 183.489 95.6415 183.348C95.7618 183.206 95.9131 183.094 96.0837 183.021C95.9933 182.891 95.9312 182.744 95.9014 182.588C95.8717 182.433 95.8751 182.273 95.9113 182.119C95.9474 181.965 96.0156 181.821 96.1114 181.695C96.2072 181.569 96.3285 181.465 96.4672 181.389C96.3427 181.244 96.2542 181.071 96.2088 180.885C96.1634 180.7 96.1625 180.506 96.2061 180.32C96.2663 180.062 96.4073 179.831 96.6084 179.659C96.8095 179.487 97.0602 179.384 97.324 179.365C97.2791 179.188 97.2791 179.003 97.324 178.826C97.386 178.56 97.5424 178.324 97.7644 178.164C97.9863 178.003 98.2589 177.929 98.5317 177.953C98.491 177.779 98.491 177.597 98.5317 177.423C98.5682 177.264 98.6359 177.113 98.7308 176.98C98.8258 176.847 98.9461 176.734 99.0849 176.647C99.2236 176.561 99.3782 176.503 99.5395 176.476C99.7008 176.45 99.8658 176.455 100.025 176.493C100.118 176.517 100.208 176.55 100.294 176.591C100.286 176.526 100.286 176.46 100.294 176.395C100.33 176.236 100.397 176.085 100.491 175.952C100.585 175.819 100.704 175.706 100.843 175.62C100.981 175.533 101.135 175.475 101.295 175.448C101.456 175.422 101.621 175.427 101.779 175.465C101.88 175.485 101.976 175.521 102.065 175.571C102.045 175.455 102.045 175.336 102.065 175.22C102.123 174.979 102.251 174.76 102.434 174.592C102.616 174.424 102.844 174.315 103.09 174.277C103.335 174.239 103.585 174.275 103.81 174.381C104.034 174.486 104.222 174.656 104.35 174.869C104.498 174.715 104.683 174.602 104.887 174.54C105.092 174.479 105.308 174.471 105.517 174.518C105.828 174.593 106.099 174.782 106.276 175.048C106.391 174.828 106.576 174.653 106.803 174.551C107.029 174.449 107.283 174.426 107.524 174.485C107.711 174.528 107.885 174.618 108.028 174.746C108.17 174.875 108.278 175.038 108.34 175.22C108.502 175.1 108.692 175.025 108.893 175.003C109.093 174.982 109.295 175.015 109.479 175.098C109.662 175.181 109.819 175.312 109.935 175.477C110.05 175.642 110.12 175.835 110.135 176.036C110.277 175.935 110.438 175.866 110.608 175.832C110.778 175.799 110.953 175.801 111.123 175.84C111.402 175.905 111.65 176.063 111.827 176.289C112.003 176.515 112.097 176.794 112.094 177.08C112.229 177.056 112.367 177.056 112.502 177.08C112.788 177.154 113.035 177.337 113.187 177.59C113.34 177.844 113.387 178.147 113.318 178.435C113.292 178.569 113.239 178.697 113.163 178.81H113.236C113.405 178.838 113.567 178.9 113.711 178.994C113.855 179.087 113.979 179.209 114.073 179.353C114.167 179.496 114.231 179.658 114.259 179.827C114.288 179.996 114.281 180.17 114.24 180.336C114.211 180.453 114.167 180.565 114.109 180.671C114.206 180.655 114.306 180.655 114.403 180.671C114.689 180.742 114.935 180.924 115.088 181.176C115.241 181.428 115.288 181.73 115.219 182.017C115.148 182.312 114.963 182.567 114.705 182.727C114.857 182.86 114.971 183.032 115.033 183.225C115.095 183.418 115.102 183.623 115.056 183.82C114.988 184.106 114.813 184.355 114.566 184.514C114.793 184.644 114.974 184.843 115.081 185.082C115.188 185.32 115.217 185.587 115.164 185.843C115.111 186.1 114.977 186.333 114.783 186.509C114.59 186.685 114.345 186.795 114.085 186.823C114.222 186.956 114.322 187.122 114.377 187.305C114.431 187.488 114.437 187.682 114.395 187.868C114.348 188.091 114.234 188.295 114.07 188.454C113.906 188.612 113.698 188.718 113.473 188.757Z" fill="#242424"/>
<path d="M117.798 200.222C121.649 212.307 114.844 215.987 112.241 216.811C109.866 217.562 101.715 219.822 96.6309 208.194C91.5472 196.566 95.9454 190.952 101.274 188.945C106.602 186.938 113.946 188.129 117.798 200.222Z" fill="#EB9481"/>
<path d="M115.619 198.925C115.325 198.925 115.039 198.925 114.745 198.925C114.439 198.978 114.124 198.93 113.848 198.786C113.77 198.723 113.715 198.636 113.692 198.539C113.668 198.441 113.677 198.339 113.717 198.247C113.824 198.078 113.974 197.942 114.152 197.851C114.331 197.761 114.53 197.72 114.729 197.733C115.136 197.696 115.542 197.809 115.871 198.051C115.949 198.112 116.006 198.194 116.036 198.287C116.066 198.38 116.068 198.48 116.04 198.574C116.013 198.668 115.958 198.751 115.883 198.814C115.808 198.876 115.716 198.915 115.619 198.925Z" fill="#242424"/>
<path d="M107.41 201.944C107.69 201.836 107.963 201.711 108.226 201.568C108.523 201.473 108.781 201.284 108.961 201.03C109 200.938 109.008 200.836 108.984 200.739C108.961 200.642 108.907 200.555 108.83 200.491C108.658 200.391 108.462 200.338 108.263 200.338C108.064 200.338 107.868 200.391 107.696 200.491C107.315 200.645 107.006 200.936 106.831 201.307C106.799 201.391 106.791 201.481 106.807 201.569C106.824 201.657 106.864 201.738 106.924 201.804C106.984 201.87 107.062 201.918 107.147 201.943C107.233 201.968 107.324 201.968 107.41 201.944Z" fill="#242424"/>
<path d="M109.605 203.372C109.605 203.372 109.556 203.429 109.605 203.462C109.858 204.278 110.005 205.273 109.319 205.755C109.319 205.755 109.319 205.812 109.319 205.804C110.16 205.428 109.98 204.114 109.605 203.372Z" fill="#242424"/>
<path d="M108.626 202.694C107.263 202.956 107.875 205.673 109.148 205.436C110.421 205.2 109.777 202.482 108.626 202.694Z" fill="#242424"/>
<path d="M108.128 202.964C107.924 203.168 107.753 203.494 107.476 203.584C107.198 203.674 106.831 203.47 106.553 203.241C106.553 203.241 106.513 203.241 106.513 203.282C106.627 203.804 106.945 204.294 107.525 204.245C108.104 204.196 108.341 203.657 108.341 203.102C108.324 203.004 108.21 202.874 108.128 202.964Z" fill="#242424"/>
<path d="M114.534 202.025C114.534 202.025 114.608 202.025 114.616 202.091C114.771 202.907 115.097 203.886 115.921 204V204.049C114.958 204.123 114.542 202.858 114.534 202.025Z" fill="#242424"/>
<path d="M115.056 200.981C116.394 200.581 117.096 203.282 115.872 203.649C114.648 204.016 113.97 201.315 115.056 200.981Z" fill="#242424"/>
<path d="M115.701 201.014C115.953 201.103 116.231 201.307 116.517 201.258C116.802 201.209 116.957 200.85 117.071 200.524C117.071 200.483 117.112 200.524 117.12 200.524C117.267 201.038 117.243 201.617 116.769 201.846C116.296 202.074 115.896 201.699 115.635 201.218C115.562 201.144 115.603 200.973 115.701 201.014Z" fill="#242424"/>
<path d="M113.922 206.448C113.922 206.448 114.362 207.672 114.485 208.268C114.485 208.325 114.362 208.382 114.158 208.431C113.667 208.631 113.13 208.692 112.606 208.608C112.082 208.523 111.591 208.295 111.188 207.95C111.181 207.938 111.177 207.925 111.178 207.912C111.178 207.899 111.183 207.886 111.191 207.875C111.199 207.864 111.21 207.856 111.223 207.852C111.235 207.848 111.249 207.848 111.262 207.852C112.131 208.209 113.092 208.277 114.003 208.047C114.003 207.876 113.187 205.975 113.277 205.942C113.746 205.882 114.22 205.882 114.689 205.942C113.873 203.364 112.6 200.94 111.8 198.353C111.8 198.264 111.906 198.207 111.947 198.28C113.366 200.84 114.525 203.535 115.407 206.326C115.505 206.717 114.183 206.53 113.922 206.448Z" fill="#242424"/>
<path d="M114.085 208.235C113.873 208.807 113.519 209.315 113.056 209.712C112.796 209.915 112.48 210.035 112.151 210.055C111.433 210.096 111.22 209.484 111.18 208.921C111.157 208.62 111.174 208.319 111.229 208.023C112.134 208.396 113.134 208.47 114.085 208.235Z" fill="#242424"/>
<path d="M113.056 209.712C112.796 209.915 112.48 210.035 112.151 210.055C111.433 210.096 111.22 209.484 111.18 208.921C111.536 208.82 111.916 208.844 112.257 208.988C112.598 209.131 112.88 209.387 113.056 209.712Z" fill="#EB9481"/>
<path d="M106.235 190.716C106.752 191.735 106.951 192.887 106.806 194.02C106.096 197.138 102.53 197.154 101.625 198.533C100.719 199.912 101.625 201.895 100.882 203.16C99.8459 204.914 98.6871 204.082 98.679 205.11C98.6708 206.138 98.679 209.378 97.5692 210.055C96.4595 210.732 86.0963 191.385 102.465 188.39C102.465 188.39 104.53 186.848 108.332 187.949C113.75 189.516 116.011 195.71 116.011 195.71C115.427 195.711 114.849 195.592 114.314 195.359C113.375 194.845 112.877 194.412 112.2 194.094C111.139 193.596 110.699 194.216 109.605 193.743C107.949 193.017 106.235 190.716 106.235 190.716Z" fill="#242424"/>
<path d="M105.933 190.063C106.367 190.812 106.712 191.608 106.961 192.437C107.245 193.221 107.312 194.066 107.157 194.885C106.888 195.673 106.339 196.335 105.615 196.746C104.913 197.203 104.081 197.48 103.322 197.994C102.928 198.257 102.614 198.624 102.416 199.055C102.261 199.489 102.194 199.95 102.22 200.41C102.317 201.247 102.178 202.094 101.821 202.858C101.614 203.22 101.332 203.534 100.992 203.776C100.652 204.019 100.264 204.184 99.854 204.261C98.9842 204.31 98.1352 204.547 97.3652 204.955C98.1241 204.473 98.9972 204.579 99.8867 204.457C100.337 204.394 100.767 204.232 101.148 203.984C101.529 203.736 101.85 203.407 102.09 203.021C102.508 202.218 102.684 201.311 102.596 200.41C102.574 200.002 102.635 199.594 102.775 199.21C102.962 198.848 103.244 198.543 103.591 198.329C104.269 197.847 105.101 197.554 105.852 197.064C106.234 196.82 106.577 196.52 106.872 196.175C107.175 195.825 107.391 195.409 107.5 194.959C107.637 194.07 107.527 193.161 107.182 192.331C106.857 191.528 106.438 190.767 105.933 190.063Z" fill="#242424"/>
<path d="M106.406 190.732C106.74 191.473 107.174 192.165 107.696 192.788C108.215 193.453 108.919 193.95 109.719 194.216C110.121 194.313 110.531 194.373 110.943 194.396C111.309 194.426 111.657 194.562 111.947 194.787C112.225 195.091 112.534 195.364 112.869 195.603C113.225 195.812 113.624 195.937 114.036 195.971C113.654 195.864 113.296 195.684 112.983 195.44C112.685 195.178 112.412 194.888 112.167 194.575C111.844 194.276 111.437 194.085 111 194.029C110.609 194.003 110.221 193.94 109.842 193.841C109.111 193.591 108.456 193.159 107.94 192.584C107.387 192.003 106.875 191.384 106.406 190.732Z" fill="#242424"/>
<path d="M98.8423 208.513C98.8423 208.513 95.2682 205.249 93.7341 206.619C92.2 207.99 95.4967 213.147 97.7244 213.417C98.0078 213.476 98.3002 213.476 98.584 213.419C98.8678 213.362 99.1371 213.248 99.3757 213.084C99.6143 212.921 99.8173 212.71 99.9724 212.466C100.128 212.221 100.232 211.948 100.278 211.662L98.8423 208.513Z" fill="#EB9481"/>
<path d="M94.7217 208.08V208.137C96.2966 208.398 97.3574 209.565 98.206 210.83C98.0884 210.705 97.9453 210.608 97.7865 210.543C97.6276 210.479 97.4568 210.45 97.2856 210.458C97.1144 210.465 96.9469 210.51 96.7946 210.588C96.6422 210.667 96.5085 210.777 96.4026 210.912C96.4026 210.912 96.4026 210.993 96.4598 210.977C96.6949 210.838 96.9675 210.776 97.2395 210.8C97.5115 210.823 97.7695 210.931 97.9775 211.108C98.325 211.405 98.6397 211.739 98.9159 212.103C99.0138 212.209 99.226 212.103 99.1444 211.956C98.7364 210.055 96.7372 207.803 94.7217 208.08Z" fill="#242424"/>
<path d="M93.5135 232.666C96.6878 252.095 105.615 266.285 109.319 266.897C119.283 268.529 136.133 252.209 141.143 248.423C143.175 246.873 126.602 233.001 124.644 234.902C120.025 239.374 113.905 245.363 113.571 245.363C112.869 245.363 110.494 240.532 101.82 229.141C94.5743 219.602 92.2079 224.726 93.5135 232.666Z" fill="#EB9481"/>
<path d="M150.388 216.175C151.759 218.272 146.308 221.234 146.308 221.234C147.389 221.241 148.434 221.625 149.262 222.319C150.666 223.617 149.262 226.399 149.262 226.399C150.38 226.638 151.401 227.206 152.192 228.031C153.408 229.402 152.371 232.397 152.371 232.397C153.253 233.201 153.829 234.285 154.003 235.465C154.648 240.777 143.053 248.366 139.315 249.827L124.113 236.102C124.113 236.102 129.752 223.502 134.346 220.247C136.876 218.435 148.283 212.976 150.388 216.175Z" fill="#EB9481"/>
<path d="M146.219 221.201C142.981 222.315 139.893 223.822 137.023 225.689C137.015 225.693 137.009 225.697 137.003 225.703C136.998 225.709 136.994 225.716 136.991 225.724C136.989 225.732 136.988 225.74 136.989 225.748C136.989 225.756 136.992 225.764 136.996 225.771C137 225.778 137.006 225.784 137.012 225.788C137.019 225.793 137.026 225.796 137.034 225.798C137.042 225.8 137.05 225.799 137.058 225.798C137.066 225.796 137.074 225.792 137.08 225.787C139.944 224.025 143.355 222.988 146.285 221.348C146.3 221.338 146.312 221.322 146.317 221.303C146.323 221.285 146.321 221.265 146.314 221.247C146.306 221.23 146.292 221.216 146.275 221.207C146.258 221.199 146.238 221.197 146.219 221.201Z" fill="#242424"/>
<path d="M149.018 226.22C148.297 226.514 147.619 226.904 147.002 227.378C146.317 227.835 145.639 228.3 144.97 228.782C143.627 229.745 142.307 230.74 141.013 231.768C140.956 231.817 141.013 231.915 141.078 231.875C142.416 230.912 143.776 229.979 145.158 229.076C145.843 228.627 146.537 228.186 147.239 227.746C147.922 227.37 148.562 226.922 149.148 226.407C149.173 226.39 149.19 226.364 149.195 226.334C149.201 226.304 149.194 226.273 149.177 226.248C149.168 226.236 149.157 226.225 149.145 226.217C149.132 226.209 149.118 226.204 149.103 226.201C149.073 226.196 149.043 226.202 149.018 226.22Z" fill="#242424"/>
<path d="M152.29 232.438C151.642 232.712 151.045 233.096 150.527 233.572L148.708 234.918C147.5 235.808 146.26 236.697 145.036 237.538C145.026 237.548 145.021 237.561 145.02 237.575C145.019 237.589 145.022 237.603 145.029 237.615C145.036 237.627 145.047 237.636 145.06 237.641C145.073 237.646 145.087 237.647 145.101 237.644C146.366 236.787 147.647 235.955 148.912 235.09L150.764 233.8C151.362 233.462 151.895 233.02 152.339 232.495C152.339 232.495 152.322 232.421 152.29 232.438Z" fill="#242424"/>
<path d="M153.407 233.735C153.971 234.553 154.222 235.546 154.117 236.534C153.992 237.527 153.612 238.472 153.016 239.276C151.896 240.883 150.593 242.353 149.132 243.658C147.684 244.969 146.137 246.167 144.505 247.24C142.877 248.314 141.154 249.235 139.356 249.99C138.214 250.928 130.706 257.415 129.507 257.905C130.568 256.877 138.034 250.716 139.119 249.745C140.846 248.896 142.507 247.919 144.089 246.824C145.677 245.74 147.195 244.558 148.634 243.282C150.076 242.014 151.398 240.615 152.583 239.104C153.177 238.37 153.583 237.501 153.767 236.575C153.982 235.615 153.855 234.611 153.407 233.735Z" fill="#242424"/>
<path d="M96.0597 249.019L111.05 240.606C111.05 240.606 104.954 230.267 99.6256 225.33C94.2972 220.394 92.0776 224.131 92.7468 231.148C93.4159 238.166 96.0597 249.019 96.0597 249.019Z" fill="#419FD9"/>
<path d="M96.019 226.954C95.2259 227.262 94.4812 227.683 93.8076 228.203C94.6495 228.102 95.4734 227.885 96.2556 227.558C97.0487 227.25 97.7934 226.829 98.467 226.31C97.6236 226.402 96.7986 226.62 96.019 226.954ZM100.605 240.443C99.8261 240.099 99.0014 239.871 98.1569 239.765C98.8307 240.293 99.5751 240.725 100.368 241.047C101.149 241.383 101.973 241.609 102.816 241.716C102.142 241.19 101.398 240.762 100.605 240.443Z" fill="#17212B"/>
<path d="M108.528 237.709C104.092 239.73 99.796 242.045 95.668 244.637C95.668 244.637 95.668 244.751 95.7251 244.743C99.34 243.062 106.284 239.178 108.602 237.864C108.642 237.84 108.528 237.685 108.528 237.709Z" fill="#242424"/>
<path d="M97.5205 248.203C97.0636 248.521 96.5903 248.823 96.1252 249.125L95.9864 249.223L95.9375 249.043C95.3282 246.786 94.7842 244.509 94.3055 242.213C94.077 241.071 93.8485 239.92 93.669 238.77C93.4895 237.619 93.2936 236.461 93.1631 235.294C93.5058 236.42 93.8159 237.554 94.0933 238.688C94.3708 239.823 94.6482 240.957 94.9093 242.099C95.4098 244.378 95.8341 246.674 96.1823 248.986L95.9946 248.905C96.5087 248.668 97.0064 248.423 97.5205 248.203Z" fill="#242424"/>
<path d="M94.0196 239.651C93.7317 239.262 93.4752 238.849 93.2526 238.419C93.0204 237.996 92.8238 237.553 92.665 237.097C93.2369 237.879 93.6931 238.739 94.0196 239.651Z" fill="#242424"/>
<path d="M110.486 241.022C110.641 240.842 110.813 240.679 110.976 240.5V240.671C109.923 239.088 108.903 237.497 107.867 235.914L104.774 231.14C106.118 232.497 107.323 233.984 108.373 235.579C109.44 237.161 110.384 238.822 111.196 240.549L111.253 240.663L111.164 240.712C110.911 240.818 110.707 240.932 110.486 241.022Z" fill="#242424"/>
<path d="M107.5 234.616C107.257 234.199 107.046 233.762 106.872 233.311C106.695 232.859 106.55 232.396 106.439 231.924C106.683 232.341 106.893 232.778 107.068 233.229C107.245 233.681 107.389 234.144 107.5 234.616Z" fill="#242424"/>
<path d="M281.112 328.954C280.443 330.774 247.501 371.713 245.257 372.488C244.441 372.782 238.166 368.326 230.773 362.696C229.141 361.488 227.509 360.248 225.877 358.95C215.097 350.619 203.845 341.529 203.845 341.529L225.803 314.07L247.248 332.292L251.948 336.282C251.948 336.282 271.573 326.245 274.127 325.674C276.681 325.103 281.781 327.143 281.112 328.954Z" fill="#EB9481"/>
<path d="M280.974 328.22C280.239 330.08 245.298 371.525 242.964 372.284C242.083 372.578 235.743 367.837 228.276 361.888L228.048 361.7L250.292 334.707L250.733 335.099C250.733 335.099 271.206 325.217 273.858 324.687C276.51 324.156 281.708 326.4 280.974 328.22Z" fill="#242424"/>
<path d="M278.966 327.33C272.903 334.177 249.1 362.345 243.633 369.567C243.584 369.632 243.633 369.656 243.674 369.607C249.834 362.957 273.409 334.593 279.08 327.428C279.202 327.281 279.072 327.216 278.966 327.33Z" fill="#17212B"/>
<path d="M252.682 332.928C249.851 335.245 247.444 338.966 247.631 342.72C247.631 342.867 247.844 342.851 247.893 342.72C249.258 339.377 250.979 336.19 253.025 333.214C253.049 333.167 253.056 333.114 253.046 333.064C253.036 333.013 253.008 332.967 252.968 332.933C252.928 332.9 252.878 332.881 252.826 332.88C252.774 332.879 252.724 332.896 252.682 332.928Z" fill="white"/>
<path d="M255.555 331.924C252.723 334.234 250.308 337.955 250.496 341.716C250.496 341.863 250.716 341.847 250.757 341.716C252.126 338.374 253.846 335.188 255.889 332.21C255.91 332.165 255.916 332.114 255.905 332.065C255.894 332.017 255.868 331.973 255.83 331.94C255.792 331.908 255.745 331.889 255.695 331.886C255.645 331.883 255.596 331.897 255.555 331.924Z" fill="white"/>
<path d="M258.427 330.945C255.595 333.263 253.18 336.984 253.368 340.737C253.368 340.884 253.58 340.876 253.629 340.737C254.994 337.394 256.715 334.207 258.761 331.231C258.782 331.185 258.788 331.135 258.777 331.086C258.766 331.037 258.74 330.994 258.702 330.961C258.664 330.929 258.617 330.91 258.567 330.907C258.518 330.904 258.468 330.917 258.427 330.945Z" fill="white"/>
<path d="M280.019 326.335C280.933 325.829 283.283 328.089 283.038 328.783C282.793 329.476 244.482 374.479 243.666 375.132C242.85 375.784 240.328 373.149 240.94 372.137C241.552 371.125 280.019 326.335 280.019 326.335Z" fill="#419FD9"/>
<path d="M238.435 358.746C234.396 360.484 237.089 366.759 241.136 365.021C245.184 363.283 242.474 357.008 238.435 358.746Z" fill="white"/>
<path d="M246.081 328.146L223.233 358.975L146.137 305.478L138.72 300.288C138.72 300.288 136.614 301.708 133.44 303.462C129.042 305.91 122.587 308.97 116.883 309.811C107.312 311.231 91.3263 311.076 83.2642 300.288C76.4669 291.206 80.1553 279.358 80.1553 279.358L90.6653 274.845C90.6653 274.845 115.537 254.119 131.645 253.499C138.491 253.229 148.454 258.395 157.683 263.829C166.912 269.264 246.081 328.146 246.081 328.146Z" fill="white"/>
<path d="M138.72 300.288C138.72 300.288 136.615 301.708 133.441 303.462C127.843 296.755 115.978 284.572 115.619 284.139L138.72 300.288Z" fill="#999999"/>
<path d="M99.7638 267.934C98.2787 268.962 96.8425 270.064 95.3737 271.124C93.9049 272.185 92.4443 273.14 91.0734 274.282C89.7025 275.425 88.3561 276.673 87.0424 277.922C86.4059 278.525 85.7776 279.129 85.1656 279.749C84.5191 280.351 83.919 281 83.3704 281.692C83.3628 281.707 83.3605 281.725 83.3637 281.742C83.367 281.759 83.3756 281.775 83.3884 281.787C83.4012 281.799 83.4174 281.806 83.4347 281.808C83.452 281.81 83.4695 281.806 83.4846 281.798C84.181 281.295 84.846 280.75 85.4756 280.166L87.5564 278.395C88.8865 277.261 90.2492 276.151 91.5875 275.008C92.9257 273.866 94.1416 272.642 95.4472 271.492C96.7528 270.341 98.3358 269.125 99.7964 267.966C99.8209 267.958 99.7964 267.909 99.7638 267.934Z" fill="#999999"/>
<path d="M238.272 325.005C236.885 326.694 235.62 328.497 234.347 330.268C233.074 332.039 231.793 333.834 230.528 335.621C227.998 339.203 225.452 342.777 222.972 346.392C221.609 348.383 220.271 350.382 219.014 352.439C218.965 352.528 219.104 352.618 219.177 352.537C221.919 349.126 224.4 345.511 226.921 341.929C229.443 338.346 231.956 334.748 234.428 331.125C235.783 329.142 237.178 327.159 238.41 325.103C238.416 325.085 238.415 325.066 238.409 325.048C238.403 325.03 238.391 325.015 238.376 325.004C238.361 324.993 238.343 324.988 238.324 324.988C238.305 324.988 238.287 324.994 238.272 325.005Z" fill="#999999"/>
<path d="M177.439 327.355C173.604 324.336 169.63 321.48 165.648 318.648C161.666 315.817 157.741 312.993 153.726 310.26C152.567 309.476 151.406 308.701 150.242 307.934C149.083 307.159 147.875 306.449 146.741 305.649C146.676 305.6 146.619 305.714 146.684 305.755C147.729 306.506 148.708 307.346 149.736 308.122C150.764 308.897 151.686 309.615 152.674 310.341C154.599 311.769 156.541 313.165 158.483 314.576C162.427 317.427 166.401 320.228 170.405 322.981C172.682 324.54 174.942 326.106 177.268 327.591C177.407 327.681 177.578 327.461 177.439 327.355Z" fill="#999999"/>
<path d="M202.099 295.547C198.557 292.609 194.755 289.974 191.042 287.256C187.329 284.539 183.543 281.732 179.773 279.007L168.537 270.912C164.914 268.293 161.299 265.624 157.472 263.307C155.375 262.034 153.22 260.859 151.009 259.79C148.864 258.696 146.631 257.785 144.334 257.064C144.32 257.063 144.307 257.066 144.295 257.073C144.283 257.08 144.273 257.091 144.268 257.104C144.263 257.116 144.261 257.131 144.264 257.144C144.267 257.158 144.275 257.17 144.285 257.179C146.178 258.24 148.161 259.121 150.071 260.141C151.98 261.161 153.824 262.205 155.652 263.315C159.463 265.624 163.053 268.211 166.66 270.839C174.159 276.232 181.633 281.642 189.181 286.955C193.408 289.933 197.545 293.075 201.927 295.808C202.066 295.865 202.229 295.653 202.099 295.547Z" fill="#999999"/>
<path d="M51.6039 168.235C51.9563 171.585 53.2324 174.772 55.2899 177.44C57.3473 180.108 60.1053 182.152 63.2563 183.344C66.4073 184.536 69.8275 184.83 73.1356 184.192C76.4437 183.554 79.5097 182.01 81.9918 179.732L91.082 181.07L86.5369 173.204C87.5806 170.644 88.0267 167.879 87.8412 165.12C87.6558 162.361 86.8438 159.68 85.4668 157.282C84.0899 154.884 82.1843 152.832 79.895 151.281C77.6056 149.73 74.9928 148.721 72.2552 148.332C69.5175 147.942 66.7271 148.182 64.0961 149.033C61.4651 149.884 59.0628 151.324 57.0717 153.243C55.0807 155.162 53.5533 157.509 52.6059 160.107C51.6584 162.705 51.3158 165.485 51.6039 168.235Z" fill="#17212B"/>
<path d="M57.047 153.212C59.0372 151.275 61.4346 149.805 64.0646 148.912C67.4034 147.807 70.989 147.683 74.3964 148.553C77.8038 149.424 80.8901 151.253 83.2896 153.825C85.689 156.396 87.301 159.601 87.9344 163.06C88.5679 166.52 88.1963 170.088 86.8636 173.343V173.025L91.3924 180.907L91.7188 181.487L91.066 181.389L81.9758 179.993L82.1879 179.928C79.6651 182.211 76.5575 183.748 73.2119 184.367C72.3801 184.523 71.5367 184.611 70.6905 184.628C69.8499 184.673 69.0072 184.657 68.1691 184.579C66.4904 184.422 64.8422 184.029 63.2731 183.412C61.7005 182.81 60.2221 181.986 58.883 180.964C58.2124 180.458 57.5721 179.913 56.9654 179.332C56.3826 178.733 55.8376 178.098 55.3334 177.431C52.6092 173.876 51.2848 169.444 51.6111 164.977C51.9375 160.51 53.8921 156.318 57.1041 153.196L57.047 153.212ZM55.3334 177.407C56.3378 178.746 57.5434 179.921 58.9075 180.891C60.2459 181.888 61.7219 182.685 63.2894 183.257C65.6309 184.142 68.1368 184.507 70.6334 184.326C71.456 184.29 72.2745 184.189 73.0814 184.024C76.3552 183.367 79.3797 181.807 81.8126 179.52L81.9023 179.43H82.0247L91.1313 180.703L90.8049 181.185L86.2271 173.335L86.1374 173.188L86.2108 173.025C87.2174 170.511 87.6522 167.804 87.4838 165.101C87.3077 162.395 86.521 159.765 85.1827 157.406C83.8189 155.059 81.9619 153.035 79.7399 151.474C77.4943 149.923 74.9236 148.907 72.2246 148.504C69.5181 148.091 66.7532 148.298 64.138 149.108C61.5156 149.962 59.1177 151.392 57.1204 153.294C53.8714 156.367 51.8865 160.543 51.5545 165.003C51.2224 169.463 52.5671 173.886 55.3252 177.407H55.3334Z" fill="white"/>
<path d="M66.9944 176.386L59.4219 168.716L61.9678 166.203L66.3905 170.683L75.5868 156.264L78.606 158.19L66.9944 176.386Z" fill="#419FD9"/>
</svg>
